%
M48
M72
T01C0.0236
T02C0.0240
T03C0.0276
T04C0.0315
T05C0.0320
T06C0.0362
T07C0.0400
T08C0.0906
T09C0.1102
%
T01
X12109Y14000
X12109Y17000
X15729Y5320
X16289Y4750
X15509Y3950
X14939Y4520
T02
X8369Y11130
X6369Y11130
X9759Y15400
X12099Y14800
X12099Y16080
X12909Y18550
X17869Y15580
X20979Y14270
X22119Y14250
X22099Y12880
X20959Y12880
X17799Y21730
X17799Y24100
X6609Y18550
T03
X7679Y14090
X8679Y14090
X8699Y12820
X7699Y12820
X5609Y14000
X4609Y14000
X12609Y8500
X12609Y7500
X13609Y7500
X13609Y8500
X14609Y8500
X15609Y8500
X15609Y7500
X14609Y7500
X17715Y2660
X18502Y2660
X20215Y2660
X21002Y2660
X22715Y2660
X23502Y2660
X25215Y2660
X26002Y2660
X25609Y10000
X25609Y11000
X25609Y12000
X25609Y13000
X24609Y13000
X24609Y12000
X24609Y11000
X24609Y10000
X25215Y31500
X26002Y31500
X23502Y31500
X22715Y31500
X21002Y31500
X20215Y31500
X18502Y31500
X17715Y31500
X16002Y31500
X15215Y31500
X13502Y31500
X12715Y31500
X11002Y31500
X10215Y31500
X8502Y31500
X7715Y31500
X6002Y31500
X5215Y31500
X4149Y27134
X4149Y26346
T04
X16278Y22543
X16278Y21756
X16278Y20969
X16278Y20181
X16278Y19394
X16278Y18606
X16278Y17819
X16278Y17031
X16278Y16244
X16278Y15457
X24939Y15457
X24939Y16244
X24939Y17031
X24939Y17819
X24939Y18606
X24939Y19394
X24939Y20181
X24939Y20969
X24939Y21756
X24939Y22543
T05
X24809Y25990
X23609Y26000
X21109Y26000
X18609Y26000
X16109Y26000
X13609Y26000
X13609Y24000
X13609Y23000
X13609Y22000
X13609Y21000
X13609Y20000
X13609Y19000
X13609Y18000
X13609Y17000
X13609Y16000
X13609Y15000
X13609Y14000
X13609Y13000
X13609Y12000
X13609Y11000
X11109Y8000
X10109Y8000
X12609Y6500
X13609Y6500
X14609Y6500
X15609Y6500
X17609Y5000
X18609Y5000
X19609Y5000
X20609Y5000
X21609Y5000
X22609Y5000
X23609Y5000
X24609Y5000
X24609Y8000
X23609Y8000
X22609Y8000
X21609Y8000
X20609Y8000
X19609Y8000
X18609Y8000
X17609Y8000
X19609Y10000
X19609Y11000
X19609Y12000
X19609Y13000
X16349Y12630
X16349Y11630
X10609Y12000
X10609Y11000
X10609Y13000
X10609Y14000
X10609Y15000
X10609Y16000
X10609Y17000
X10609Y18000
X10609Y19000
X10609Y20000
X10609Y21000
X10609Y22000
X10609Y23000
X10609Y24000
X11109Y26000
X9609Y26000
X8359Y26610
X7859Y25860
X7359Y26610
X6249Y27750
X6249Y28750
X6609Y30000
X9609Y30000
X11109Y30000
X13609Y30000
X16109Y30000
X18609Y30000
X21109Y30000
X23609Y30000
X24809Y29990
X23609Y13000
X23609Y12000
X23609Y11000
X23609Y10000
X15609Y2500
X14609Y2500
X13609Y2500
X12609Y2500
X11109Y4000
X10109Y4000
X8609Y15500
X8609Y19500
X2609Y30000
T06
X6845Y23322
X7633Y23322
X7633Y22338
X6845Y22338
T07
X7389Y18390
X7389Y16610
X4829Y16610
X4829Y18390
X2609Y18000
X2609Y17000
X2609Y16000
X2609Y15000
X2609Y14000
X2609Y19000
X8709Y8500
X8509Y7500
X8709Y6500
X8509Y5500
X8709Y4500
X8509Y3500
T08
X5779Y20460
X5779Y25200
T09
X3099Y1420
X26099Y27990
X26179Y7550
X2979Y31620
M30
