G75*
G70*
%OFA0B0*%
%FSLAX24Y24*%
%IPPOS*%
%LPD*%
%AMOC8*
5,1,8,0,0,1.08239X$1,22.5*
%
%ADD10C,0.1162*%
%ADD11C,0.0580*%
%ADD12C,0.0575*%
%ADD13OC8,0.0580*%
%ADD14C,0.0800*%
%ADD15C,0.0316*%
%ADD16C,0.0500*%
%ADD17C,0.0630*%
%ADD18C,0.0690*%
%ADD19OC8,0.0690*%
%ADD20C,0.1418*%
%ADD21C,0.0622*%
%ADD22C,0.0500*%
%ADD23C,0.0496*%
%ADD24R,0.0496X0.0496*%
%ADD25R,0.0500X0.0500*%
D10*
X003099Y001420D03*
X026099Y027990D03*
X026179Y007550D03*
X002979Y031620D03*
D11*
X010349Y024000D02*
X010869Y024000D01*
X010869Y023000D02*
X010349Y023000D01*
X010349Y022000D02*
X010869Y022000D01*
X010869Y021000D02*
X010349Y021000D01*
X010349Y020000D02*
X010869Y020000D01*
X010869Y019000D02*
X010349Y019000D01*
X010349Y018000D02*
X010869Y018000D01*
X010869Y017000D02*
X010349Y017000D01*
X010349Y016000D02*
X010869Y016000D01*
X010869Y015000D02*
X010349Y015000D01*
X010349Y014000D02*
X010869Y014000D01*
X010869Y013000D02*
X010349Y013000D01*
X010349Y012000D02*
X010869Y012000D01*
X010869Y011000D02*
X010349Y011000D01*
X013349Y011000D02*
X013869Y011000D01*
X013869Y012000D02*
X013349Y012000D01*
X013349Y013000D02*
X013869Y013000D01*
X013869Y014000D02*
X013349Y014000D01*
X013349Y015000D02*
X013869Y015000D01*
X013869Y016000D02*
X013349Y016000D01*
X013349Y017000D02*
X013869Y017000D01*
X013869Y018000D02*
X013349Y018000D01*
X013349Y019000D02*
X013869Y019000D01*
X013869Y020000D02*
X013349Y020000D01*
X013349Y021000D02*
X013869Y021000D01*
X013869Y022000D02*
X013349Y022000D01*
X013349Y023000D02*
X013869Y023000D01*
X013869Y024000D02*
X013349Y024000D01*
X017609Y008260D02*
X017609Y007740D01*
X018609Y007740D02*
X018609Y008260D01*
X019609Y008260D02*
X019609Y007740D01*
X020609Y007740D02*
X020609Y008260D01*
X021609Y008260D02*
X021609Y007740D01*
X022609Y007740D02*
X022609Y008260D01*
X023609Y008260D02*
X023609Y007740D01*
X024609Y007740D02*
X024609Y008260D01*
X024609Y005260D02*
X024609Y004740D01*
X023609Y004740D02*
X023609Y005260D01*
X022609Y005260D02*
X022609Y004740D01*
X021609Y004740D02*
X021609Y005260D01*
X020609Y005260D02*
X020609Y004740D01*
X019609Y004740D02*
X019609Y005260D01*
X018609Y005260D02*
X018609Y004740D01*
X017609Y004740D02*
X017609Y005260D01*
D12*
X016278Y015457D03*
X016278Y016244D03*
X016278Y017031D03*
X016278Y017819D03*
X016278Y018606D03*
X016278Y019394D03*
X016278Y020181D03*
X016278Y020969D03*
X016278Y021756D03*
X016278Y022543D03*
X024939Y022543D03*
X024939Y021756D03*
X024939Y020969D03*
X024939Y020181D03*
X024939Y019394D03*
X024939Y018606D03*
X024939Y017819D03*
X024939Y017031D03*
X024939Y016244D03*
X024939Y015457D03*
D13*
X023609Y013000D03*
X023609Y012000D03*
X023609Y011000D03*
X023609Y010000D03*
X019609Y010000D03*
X019609Y011000D03*
X019609Y012000D03*
X019609Y013000D03*
X015609Y006500D03*
X014609Y006500D03*
X013609Y006500D03*
X012609Y006500D03*
X011109Y008000D03*
X010109Y008000D03*
X010109Y004000D03*
X011109Y004000D03*
X012609Y002500D03*
X013609Y002500D03*
X014609Y002500D03*
X015609Y002500D03*
X008609Y015500D03*
X008609Y019500D03*
X007859Y025860D03*
X008359Y026610D03*
X007359Y026610D03*
X009609Y026000D03*
X011109Y026000D03*
X013609Y026000D03*
X016109Y026000D03*
X018609Y026000D03*
X021109Y026000D03*
X023609Y026000D03*
X024809Y025990D03*
X024809Y029990D03*
X023609Y030000D03*
X021109Y030000D03*
X018609Y030000D03*
X016109Y030000D03*
X013609Y030000D03*
X011109Y030000D03*
X009609Y030000D03*
X006609Y030000D03*
X002609Y030000D03*
D14*
X002609Y019000D03*
X002609Y018000D03*
X002609Y017000D03*
X002609Y016000D03*
X002609Y015000D03*
X002609Y014000D03*
X004829Y016610D03*
X004829Y018390D03*
X007389Y018390D03*
X007389Y016610D03*
X008709Y008500D03*
X008509Y007500D03*
X008709Y006500D03*
X008509Y005500D03*
X008709Y004500D03*
X008509Y003500D03*
D15*
X012609Y007500D03*
X012609Y008500D03*
X013609Y008500D03*
X013609Y007500D03*
X014609Y007500D03*
X015609Y007500D03*
X015609Y008500D03*
X014609Y008500D03*
X008699Y012820D03*
X007699Y012820D03*
X007679Y014090D03*
X008679Y014090D03*
X005609Y014000D03*
X004609Y014000D03*
X024609Y013000D03*
X024609Y012000D03*
X024609Y011000D03*
X024609Y010000D03*
X025609Y010000D03*
X025609Y011000D03*
X025609Y012000D03*
X025609Y013000D03*
D16*
X008369Y011350D02*
X008369Y010910D01*
X006369Y010910D02*
X006369Y011350D01*
D17*
X017715Y002660D03*
X018502Y002660D03*
X020215Y002660D03*
X021002Y002660D03*
X022715Y002660D03*
X023502Y002660D03*
X025215Y002660D03*
X026002Y002660D03*
X004149Y026346D03*
X004149Y027134D03*
X005215Y031500D03*
X006002Y031500D03*
X007715Y031500D03*
X008502Y031500D03*
X010215Y031500D03*
X011002Y031500D03*
X012715Y031500D03*
X013502Y031500D03*
X015215Y031500D03*
X016002Y031500D03*
X017715Y031500D03*
X018502Y031500D03*
X020215Y031500D03*
X021002Y031500D03*
X022715Y031500D03*
X023502Y031500D03*
X025215Y031500D03*
X026002Y031500D03*
D18*
X016349Y011630D03*
X006249Y027750D03*
D19*
X006249Y028750D03*
X016349Y012630D03*
D20*
X005779Y020460D03*
X005779Y025200D03*
D21*
X006845Y023322D03*
X007633Y023322D03*
X007633Y022338D03*
X006845Y022338D03*
D22*
X006609Y018550D03*
X009759Y015400D03*
X012909Y018550D03*
X017869Y015580D03*
X017799Y021730D03*
X017799Y024100D03*
D23*
X012109Y017000D03*
X012109Y014000D03*
D24*
X015729Y005320D03*
X016289Y004750D03*
X015509Y003950D03*
X014939Y004520D03*
D25*
X020959Y012880D03*
X022099Y012880D03*
X022119Y014250D03*
X020979Y014270D03*
X012099Y014800D03*
X012099Y016080D03*
M02*
