G75*
G70*
%OFA0B0*%
%FSLAX24Y24*%
%IPPOS*%
%LPD*%
%AMOC8*
5,1,8,0,0,1.08239X$1,22.5*
%
%ADD10C,0.1162*%
%ADD11C,0.0540*%
%ADD12C,0.0560*%
%ADD13OC8,0.0540*%
%ADD14C,0.0800*%
%ADD15C,0.0707*%
%ADD16C,0.0721*%
%ADD17C,0.0460*%
%ADD18C,0.0630*%
%ADD19C,0.0690*%
%ADD20OC8,0.0690*%
%ADD21C,0.1418*%
%ADD22C,0.0603*%
%ADD23C,0.0500*%
%ADD24C,0.0496*%
%ADD25R,0.0496X0.0496*%
%ADD26R,0.0500X0.0500*%
D10*
X003099Y001420D03*
X026099Y027990D03*
X026179Y007550D03*
X002979Y031620D03*
D11*
X010369Y024000D02*
X010849Y024000D01*
X010849Y023000D02*
X010369Y023000D01*
X010369Y022000D02*
X010849Y022000D01*
X010849Y021000D02*
X010369Y021000D01*
X010369Y020000D02*
X010849Y020000D01*
X010849Y019000D02*
X010369Y019000D01*
X010369Y018000D02*
X010849Y018000D01*
X010849Y017000D02*
X010369Y017000D01*
X010369Y016000D02*
X010849Y016000D01*
X010849Y015000D02*
X010369Y015000D01*
X010369Y014000D02*
X010849Y014000D01*
X010849Y013000D02*
X010369Y013000D01*
X010369Y012000D02*
X010849Y012000D01*
X010849Y011000D02*
X010369Y011000D01*
X013369Y011000D02*
X013849Y011000D01*
X013849Y012000D02*
X013369Y012000D01*
X013369Y013000D02*
X013849Y013000D01*
X013849Y014000D02*
X013369Y014000D01*
X013369Y015000D02*
X013849Y015000D01*
X013849Y016000D02*
X013369Y016000D01*
X013369Y017000D02*
X013849Y017000D01*
X013849Y018000D02*
X013369Y018000D01*
X013369Y019000D02*
X013849Y019000D01*
X013849Y020000D02*
X013369Y020000D01*
X013369Y021000D02*
X013849Y021000D01*
X013849Y022000D02*
X013369Y022000D01*
X013369Y023000D02*
X013849Y023000D01*
X013849Y024000D02*
X013369Y024000D01*
X017609Y008240D02*
X017609Y007760D01*
X018609Y007760D02*
X018609Y008240D01*
X019609Y008240D02*
X019609Y007760D01*
X020609Y007760D02*
X020609Y008240D01*
X021609Y008240D02*
X021609Y007760D01*
X022609Y007760D02*
X022609Y008240D01*
X023609Y008240D02*
X023609Y007760D01*
X024609Y007760D02*
X024609Y008240D01*
X024609Y005240D02*
X024609Y004760D01*
X023609Y004760D02*
X023609Y005240D01*
X022609Y005240D02*
X022609Y004760D01*
X021609Y004760D02*
X021609Y005240D01*
X020609Y005240D02*
X020609Y004760D01*
X019609Y004760D02*
X019609Y005240D01*
X018609Y005240D02*
X018609Y004760D01*
X017609Y004760D02*
X017609Y005240D01*
D12*
X016278Y015457D03*
X016278Y016244D03*
X016278Y017031D03*
X016278Y017819D03*
X016278Y018606D03*
X016278Y019394D03*
X016278Y020181D03*
X016278Y020969D03*
X016278Y021756D03*
X016278Y022543D03*
X024939Y022543D03*
X024939Y021756D03*
X024939Y020969D03*
X024939Y020181D03*
X024939Y019394D03*
X024939Y018606D03*
X024939Y017819D03*
X024939Y017031D03*
X024939Y016244D03*
X024939Y015457D03*
D13*
X023609Y013000D03*
X023609Y012000D03*
X023609Y011000D03*
X023609Y010000D03*
X019609Y010000D03*
X019609Y011000D03*
X019609Y012000D03*
X019609Y013000D03*
X015609Y006500D03*
X014609Y006500D03*
X013609Y006500D03*
X012609Y006500D03*
X011109Y008000D03*
X010109Y008000D03*
X010109Y004000D03*
X011109Y004000D03*
X012609Y002500D03*
X013609Y002500D03*
X014609Y002500D03*
X015609Y002500D03*
X008609Y015500D03*
X008609Y019500D03*
X007859Y025860D03*
X008359Y026610D03*
X007359Y026610D03*
X009609Y026000D03*
X011109Y026000D03*
X013609Y026000D03*
X016109Y026000D03*
X018609Y026000D03*
X021109Y026000D03*
X023609Y026000D03*
X024809Y025990D03*
X024809Y029990D03*
X023609Y030000D03*
X021109Y030000D03*
X018609Y030000D03*
X016109Y030000D03*
X013609Y030000D03*
X011109Y030000D03*
X009609Y030000D03*
X006609Y030000D03*
X002609Y030000D03*
D14*
X002609Y019000D03*
X002609Y018000D03*
X002609Y017000D03*
X002609Y016000D03*
X002609Y015000D03*
X002609Y014000D03*
X004829Y016610D03*
X004829Y018390D03*
X007389Y018390D03*
X007389Y016610D03*
X008709Y008500D03*
X008509Y007500D03*
X008709Y006500D03*
X008509Y005500D03*
X008709Y004500D03*
X008509Y003500D03*
D15*
X012609Y008500D03*
X013609Y008500D03*
X014609Y008500D03*
X015609Y008500D03*
X007699Y012820D03*
X007679Y014090D03*
X005609Y014000D03*
X025609Y013000D03*
X025609Y012000D03*
X025609Y011000D03*
X025609Y010000D03*
D16*
X024609Y010000D03*
X024609Y011000D03*
X024609Y012000D03*
X024609Y013000D03*
X015609Y007500D03*
X014609Y007500D03*
X013609Y007500D03*
X012609Y007500D03*
X008699Y012820D03*
X008679Y014090D03*
X004609Y014000D03*
D17*
X006369Y011330D02*
X006369Y010930D01*
X008369Y010930D02*
X008369Y011330D01*
D18*
X017715Y002660D03*
X018502Y002660D03*
X020215Y002660D03*
X021002Y002660D03*
X022715Y002660D03*
X023502Y002660D03*
X025215Y002660D03*
X026002Y002660D03*
X004149Y026346D03*
X004149Y027134D03*
X005215Y031500D03*
X006002Y031500D03*
X007715Y031500D03*
X008502Y031500D03*
X010215Y031500D03*
X011002Y031500D03*
X012715Y031500D03*
X013502Y031500D03*
X015215Y031500D03*
X016002Y031500D03*
X017715Y031500D03*
X018502Y031500D03*
X020215Y031500D03*
X021002Y031500D03*
X022715Y031500D03*
X023502Y031500D03*
X025215Y031500D03*
X026002Y031500D03*
D19*
X016349Y011630D03*
X006249Y027750D03*
D20*
X006249Y028750D03*
X016349Y012630D03*
D21*
X005779Y020460D03*
X005779Y025200D03*
D22*
X006845Y023322D03*
X007633Y023322D03*
X007633Y022338D03*
X006845Y022338D03*
D23*
X006609Y018550D03*
X009759Y015400D03*
X012909Y018550D03*
X017869Y015580D03*
X017799Y021730D03*
X017799Y024100D03*
D24*
X012109Y017000D03*
X012109Y014000D03*
D25*
X015729Y005320D03*
X016289Y004750D03*
X015509Y003950D03*
X014939Y004520D03*
D26*
X020959Y012880D03*
X022099Y012880D03*
X022119Y014250D03*
X020979Y014270D03*
X012099Y014800D03*
X012099Y016080D03*
M02*
