G75*
G70*
%OFA0B0*%
%FSLAX24Y24*%
%IPPOS*%
%LPD*%
%AMOC8*
5,1,8,0,0,1.08239X$1,22.5*
%
%ADD10C,0.0480*%
%ADD11C,0.0500*%
%ADD12OC8,0.0480*%
%ADD13C,0.0740*%
%ADD14C,0.0650*%
%ADD15C,0.0400*%
%ADD16C,0.0570*%
%ADD17C,0.0630*%
%ADD18OC8,0.0630*%
%ADD19C,0.1358*%
%ADD20C,0.0543*%
%ADD21C,0.0100*%
%ADD22C,0.0440*%
%ADD23C,0.0160*%
%ADD24C,0.0436*%
%ADD25R,0.0436X0.0436*%
%ADD26R,0.0440X0.0440*%
D10*
X010369Y011000D02*
X010849Y011000D01*
X010849Y012000D02*
X010369Y012000D01*
X010369Y013000D02*
X010849Y013000D01*
X010849Y014000D02*
X010369Y014000D01*
X010369Y015000D02*
X010849Y015000D01*
X010849Y016000D02*
X010369Y016000D01*
X010369Y017000D02*
X010849Y017000D01*
X010849Y018000D02*
X010369Y018000D01*
X010369Y019000D02*
X010849Y019000D01*
X010849Y020000D02*
X010369Y020000D01*
X010369Y021000D02*
X010849Y021000D01*
X010849Y022000D02*
X010369Y022000D01*
X010369Y023000D02*
X010849Y023000D01*
X010849Y024000D02*
X010369Y024000D01*
X013369Y024000D02*
X013849Y024000D01*
X013849Y023000D02*
X013369Y023000D01*
X013369Y022000D02*
X013849Y022000D01*
X013849Y021000D02*
X013369Y021000D01*
X013369Y020000D02*
X013849Y020000D01*
X013849Y019000D02*
X013369Y019000D01*
X013369Y018000D02*
X013849Y018000D01*
X013849Y017000D02*
X013369Y017000D01*
X013369Y016000D02*
X013849Y016000D01*
X013849Y015000D02*
X013369Y015000D01*
X013369Y014000D02*
X013849Y014000D01*
X013849Y013000D02*
X013369Y013000D01*
X013369Y012000D02*
X013849Y012000D01*
X013849Y011000D02*
X013369Y011000D01*
X017609Y008240D02*
X017609Y007760D01*
X018609Y007760D02*
X018609Y008240D01*
X019609Y008240D02*
X019609Y007760D01*
X020609Y007760D02*
X020609Y008240D01*
X021609Y008240D02*
X021609Y007760D01*
X022609Y007760D02*
X022609Y008240D01*
X023609Y008240D02*
X023609Y007760D01*
X024609Y007760D02*
X024609Y008240D01*
X024609Y005240D02*
X024609Y004760D01*
X023609Y004760D02*
X023609Y005240D01*
X022609Y005240D02*
X022609Y004760D01*
X021609Y004760D02*
X021609Y005240D01*
X020609Y005240D02*
X020609Y004760D01*
X019609Y004760D02*
X019609Y005240D01*
X018609Y005240D02*
X018609Y004760D01*
X017609Y004760D02*
X017609Y005240D01*
D11*
X016278Y015457D03*
X016278Y016244D03*
X016278Y017031D03*
X016278Y017819D03*
X016278Y018606D03*
X016278Y019394D03*
X016278Y020181D03*
X016278Y020969D03*
X016278Y021756D03*
X016278Y022543D03*
X024939Y022543D03*
X024939Y021756D03*
X024939Y020969D03*
X024939Y020181D03*
X024939Y019394D03*
X024939Y018606D03*
X024939Y017819D03*
X024939Y017031D03*
X024939Y016244D03*
X024939Y015457D03*
D12*
X023609Y013000D03*
X023609Y012000D03*
X023609Y011000D03*
X023609Y010000D03*
X019609Y010000D03*
X019609Y011000D03*
X019609Y012000D03*
X019609Y013000D03*
X015609Y006500D03*
X014609Y006500D03*
X013609Y006500D03*
X012609Y006500D03*
X011109Y008000D03*
X010109Y008000D03*
X010109Y004000D03*
X011109Y004000D03*
X012609Y002500D03*
X013609Y002500D03*
X014609Y002500D03*
X015609Y002500D03*
X008609Y015500D03*
X008609Y019500D03*
X007859Y025860D03*
X008359Y026610D03*
X007359Y026610D03*
X009609Y026000D03*
X011109Y026000D03*
X013609Y026000D03*
X016109Y026000D03*
X018609Y026000D03*
X021109Y026000D03*
X023609Y026000D03*
X024809Y025990D03*
X024809Y029990D03*
X023609Y030000D03*
X021109Y030000D03*
X018609Y030000D03*
X016109Y030000D03*
X013609Y030000D03*
X011109Y030000D03*
X009609Y030000D03*
X006609Y030000D03*
X002609Y030000D03*
D13*
X002609Y019000D03*
X002609Y018000D03*
X002609Y017000D03*
X002609Y016000D03*
X002609Y015000D03*
X002609Y014000D03*
X004829Y016610D03*
X004829Y018390D03*
X007389Y018390D03*
X007389Y016610D03*
X008709Y008500D03*
X008509Y007500D03*
X008709Y006500D03*
X008509Y005500D03*
X008709Y004500D03*
X008509Y003500D03*
D14*
X012609Y007500D03*
X012609Y008500D03*
X013609Y008500D03*
X013609Y007500D03*
X014609Y007500D03*
X015609Y007500D03*
X015609Y008500D03*
X014609Y008500D03*
X008699Y012820D03*
X007699Y012820D03*
X007679Y014090D03*
X008679Y014090D03*
X005609Y014000D03*
X004609Y014000D03*
X024609Y013000D03*
X024609Y012000D03*
X024609Y011000D03*
X024609Y010000D03*
X025609Y010000D03*
X025609Y011000D03*
X025609Y012000D03*
X025609Y013000D03*
D15*
X008369Y011330D02*
X008369Y010930D01*
X006369Y010930D02*
X006369Y011330D01*
D16*
X017715Y002660D03*
X018502Y002660D03*
X020215Y002660D03*
X021002Y002660D03*
X022715Y002660D03*
X023502Y002660D03*
X025215Y002660D03*
X026002Y002660D03*
X004149Y026346D03*
X004149Y027134D03*
X005215Y031500D03*
X006002Y031500D03*
X007715Y031500D03*
X008502Y031500D03*
X010215Y031500D03*
X011002Y031500D03*
X012715Y031500D03*
X013502Y031500D03*
X015215Y031500D03*
X016002Y031500D03*
X017715Y031500D03*
X018502Y031500D03*
X020215Y031500D03*
X021002Y031500D03*
X022715Y031500D03*
X023502Y031500D03*
X025215Y031500D03*
X026002Y031500D03*
D17*
X016349Y011630D03*
X006249Y027750D03*
D18*
X006249Y028750D03*
X016349Y012630D03*
D19*
X005779Y020460D03*
X005779Y025200D03*
D20*
X006845Y023322D03*
X007633Y023322D03*
X007633Y022338D03*
X006845Y022338D03*
D21*
X008409Y019450D02*
X008609Y019500D01*
X008859Y019450D01*
X011559Y019450D01*
X011559Y023050D01*
X010609Y024000D01*
X010609Y023000D02*
X010209Y023050D01*
X006609Y019450D01*
X004809Y019450D01*
X003509Y017650D01*
X003509Y016300D01*
X002609Y016300D01*
X002609Y016000D01*
X003059Y015400D02*
X002609Y014950D01*
X002609Y015000D01*
X003059Y015400D02*
X006609Y015400D01*
X006609Y018550D01*
X007959Y019000D02*
X008409Y019450D01*
X007959Y019000D02*
X005259Y019000D01*
X004809Y018550D01*
X004829Y018390D01*
X005259Y014500D02*
X003509Y014500D01*
X003059Y014050D01*
X002609Y014050D01*
X002609Y014000D01*
X005259Y014500D02*
X005709Y014050D01*
X005609Y014000D01*
X006369Y012880D02*
X006919Y013430D01*
X008019Y013430D01*
X008679Y014090D01*
X008679Y014100D01*
X009149Y014570D01*
X009149Y015590D01*
X009589Y016030D01*
X010579Y016030D01*
X010609Y016000D01*
X010609Y015000D02*
X010519Y014910D01*
X009789Y014910D01*
X009409Y014530D01*
X009409Y013510D01*
X008719Y012820D01*
X008699Y012820D01*
X008369Y012490D01*
X008369Y011130D01*
X009309Y010000D02*
X007959Y008650D01*
X007959Y006850D01*
X008859Y006850D01*
X008709Y006500D01*
X008859Y006400D01*
X010209Y006400D01*
X010209Y004150D01*
X010109Y004000D01*
X011109Y004000D02*
X011109Y007300D01*
X008409Y007300D01*
X008509Y007500D01*
X008409Y007750D01*
X008859Y007750D01*
X010659Y009550D01*
X017409Y009550D01*
X018759Y008200D01*
X018609Y008000D01*
X019609Y008000D02*
X019659Y008200D01*
X017859Y010000D01*
X017859Y015560D01*
X017859Y015570D01*
X017869Y015580D01*
X017859Y015560D02*
X017849Y015570D01*
X016509Y015850D02*
X014709Y015850D01*
X014259Y015400D01*
X009759Y015400D01*
X011559Y019450D02*
X016059Y019450D01*
X016278Y019394D01*
X016509Y019000D02*
X014709Y019000D01*
X014259Y018550D01*
X012909Y018550D01*
X013309Y019900D02*
X013609Y020000D01*
X013309Y019900D02*
X011959Y021250D01*
X011959Y029350D01*
X007009Y029350D01*
X006559Y029800D01*
X006609Y030000D01*
X006559Y030250D01*
X005209Y031600D01*
X005215Y031500D01*
X010209Y031600D02*
X010209Y031150D01*
X011109Y030250D01*
X011109Y030000D01*
X011559Y031150D02*
X011109Y031600D01*
X011002Y031500D01*
X010215Y031500D02*
X010209Y031600D01*
X011559Y031150D02*
X012459Y031150D01*
X012459Y023050D01*
X013359Y022150D01*
X013609Y022000D01*
X014259Y021700D02*
X013809Y021250D01*
X013609Y021000D01*
X014259Y021700D02*
X014259Y031600D01*
X013359Y031600D01*
X013502Y031500D01*
X012715Y031500D02*
X013609Y030606D01*
X013609Y030000D01*
X015215Y031500D02*
X015159Y031600D01*
X015159Y026200D01*
X016059Y026200D01*
X016109Y026000D01*
X016059Y025750D01*
X016959Y024850D01*
X022809Y024850D01*
X025059Y022600D01*
X024939Y022543D01*
X024939Y021756D02*
X025059Y021700D01*
X024609Y021250D01*
X018759Y021250D01*
X016509Y019000D01*
X017799Y021730D02*
X017799Y024100D01*
X018609Y026000D02*
X018759Y026200D01*
X017859Y026200D01*
X017859Y031600D01*
X017715Y031500D01*
X020109Y031600D02*
X020215Y031500D01*
X020109Y031600D02*
X020109Y026200D01*
X021009Y026200D01*
X021109Y026000D01*
X021009Y025750D01*
X022809Y025750D01*
X023709Y024850D01*
X025959Y024850D01*
X025959Y019450D01*
X025059Y018550D01*
X024939Y018606D01*
X024939Y019394D02*
X025059Y019450D01*
X025509Y019900D01*
X025509Y024400D01*
X023709Y024400D01*
X022809Y025300D01*
X019659Y025300D01*
X018759Y026200D01*
X022809Y026200D02*
X023709Y026200D01*
X023609Y026000D01*
X023709Y025750D01*
X024159Y025300D01*
X026409Y025300D01*
X026409Y016750D01*
X025059Y015400D01*
X024939Y015457D01*
X025059Y013600D02*
X020109Y013600D01*
X019659Y013150D01*
X019609Y013000D01*
X019659Y013150D02*
X018759Y013150D01*
X018759Y009550D01*
X019659Y008650D01*
X021009Y008650D01*
X021459Y008200D01*
X021609Y008000D01*
X021909Y008650D02*
X026409Y008650D01*
X026409Y010900D01*
X025509Y011800D01*
X025609Y012000D01*
X025609Y013000D02*
X025509Y013150D01*
X025059Y013600D01*
X025509Y010000D02*
X025609Y010000D01*
X025509Y010000D02*
X024609Y009100D01*
X024159Y009550D01*
X020109Y009550D01*
X019659Y010000D01*
X019609Y010000D01*
X019659Y009550D02*
X019209Y009550D01*
X019209Y011350D01*
X019659Y011800D01*
X019609Y012000D01*
X017859Y010000D02*
X009309Y010000D01*
X011559Y008200D02*
X011559Y005950D01*
X014259Y005950D01*
X013809Y006400D01*
X013609Y006500D01*
X014259Y005950D02*
X016949Y003410D01*
X016959Y002110D01*
X019659Y002110D01*
X020109Y002560D01*
X020215Y002660D01*
X020109Y002560D02*
X022809Y004600D01*
X022609Y005000D01*
X023609Y005000D02*
X023709Y004600D01*
X021009Y002560D01*
X021002Y002660D01*
X022715Y002660D02*
X022809Y002560D01*
X023259Y002110D01*
X026859Y002110D01*
X026859Y004150D01*
X024609Y006400D01*
X024609Y008000D01*
X022809Y007750D02*
X025059Y005500D01*
X025059Y002560D01*
X025215Y002660D01*
X021459Y004600D02*
X021609Y005000D01*
X021459Y005050D01*
X020559Y005950D01*
X016959Y005950D01*
X016959Y008200D01*
X016059Y009100D01*
X015159Y009100D01*
X014709Y008650D01*
X014609Y008500D01*
X015609Y008500D02*
X015609Y008200D01*
X016509Y008200D01*
X016509Y007300D01*
X015609Y006400D01*
X015609Y006500D01*
X015159Y005950D02*
X016959Y005950D01*
X015159Y005950D02*
X014609Y006500D01*
X013609Y008500D02*
X013359Y008650D01*
X012909Y009100D01*
X012459Y009100D01*
X011559Y008200D01*
X012009Y008200D02*
X012459Y008200D01*
X012609Y008500D01*
X012009Y008200D02*
X012009Y007300D01*
X012459Y006850D01*
X012459Y006400D01*
X012609Y006500D01*
X012609Y002500D02*
X012409Y002350D01*
X013759Y002350D01*
X013609Y002500D01*
X017715Y002660D02*
X017859Y002560D01*
X017859Y003010D01*
X018309Y003460D01*
X018759Y003460D01*
X020559Y004600D01*
X020609Y005000D01*
X021459Y004600D02*
X018759Y002560D01*
X018502Y002660D01*
X022809Y007750D02*
X022609Y008000D01*
X022359Y008200D01*
X021909Y008650D01*
X021459Y009100D01*
X020109Y009100D01*
X019659Y009550D01*
X016509Y015850D02*
X021459Y020800D01*
X025059Y020800D01*
X024939Y020969D01*
X024809Y025990D02*
X024809Y028890D01*
X025389Y029470D01*
X025389Y031326D01*
X025215Y031500D01*
X025059Y031600D01*
X022809Y031600D02*
X022715Y031500D01*
X022809Y031600D02*
X022809Y026200D01*
X006369Y012880D02*
X006369Y011130D01*
D22*
X009759Y015400D03*
X012909Y018550D03*
X017869Y015580D03*
X017799Y021730D03*
X017799Y024100D03*
X006609Y018550D03*
D23*
X001589Y033750D02*
X001589Y000430D01*
X027139Y000430D01*
X027139Y033750D01*
X001589Y033750D01*
X001589Y033624D02*
X027139Y033624D01*
X027139Y033465D02*
X001589Y033465D01*
X001589Y033307D02*
X027139Y033307D01*
X027139Y033148D02*
X001589Y033148D01*
X001589Y032990D02*
X027139Y032990D01*
X027139Y032831D02*
X001589Y032831D01*
X001589Y032673D02*
X027139Y032673D01*
X027139Y032514D02*
X001589Y032514D01*
X001589Y032356D02*
X002582Y032356D01*
X002508Y032325D02*
X002274Y032091D01*
X002147Y031785D01*
X002147Y031455D01*
X002274Y031149D01*
X002508Y030915D01*
X002813Y030789D01*
X003144Y030789D01*
X003449Y030915D01*
X003683Y031149D01*
X003810Y031455D01*
X003810Y031785D01*
X003683Y032091D01*
X003449Y032325D01*
X003144Y032451D01*
X002813Y032451D01*
X002508Y032325D01*
X002380Y032197D02*
X001589Y032197D01*
X001589Y032039D02*
X002252Y032039D01*
X002187Y031880D02*
X001589Y031880D01*
X001589Y031722D02*
X002147Y031722D01*
X002147Y031563D02*
X001589Y031563D01*
X001589Y031405D02*
X002168Y031405D01*
X002234Y031246D02*
X001589Y031246D01*
X001589Y031088D02*
X002336Y031088D01*
X002494Y030929D02*
X001589Y030929D01*
X001589Y030771D02*
X005769Y030771D01*
X005611Y030929D02*
X003463Y030929D01*
X003622Y031088D02*
X005100Y031088D01*
X005130Y031075D02*
X005299Y031075D01*
X005416Y031123D01*
X006306Y030234D01*
X006229Y030157D01*
X006229Y029843D01*
X006436Y029635D01*
X006436Y029635D01*
X006436Y029635D01*
X006451Y029620D01*
X006470Y029620D01*
X006930Y029160D01*
X011769Y029160D01*
X011769Y021171D01*
X011880Y021060D01*
X012989Y019951D01*
X012989Y019924D01*
X013046Y019785D01*
X013153Y019678D01*
X013245Y019640D01*
X011749Y019640D01*
X011749Y023129D01*
X011637Y023240D01*
X011132Y023746D01*
X011171Y023785D01*
X011229Y023924D01*
X011229Y024076D01*
X011171Y024215D01*
X011064Y024322D01*
X010924Y024380D01*
X010293Y024380D01*
X010153Y024322D01*
X010046Y024215D01*
X009989Y024076D01*
X009989Y023924D01*
X010046Y023785D01*
X010153Y023678D01*
X010293Y023620D01*
X010720Y023620D01*
X010985Y023355D01*
X010924Y023380D01*
X010293Y023380D01*
X010153Y023322D01*
X010046Y023215D01*
X010005Y023115D01*
X006530Y019640D01*
X004870Y019640D01*
X004856Y019650D01*
X004793Y019640D01*
X004730Y019640D01*
X004718Y019628D01*
X004701Y019625D01*
X004663Y019574D01*
X004619Y019529D01*
X004619Y019511D01*
X003363Y017774D01*
X003319Y017729D01*
X003319Y017711D01*
X003308Y017697D01*
X003319Y017635D01*
X003319Y016490D01*
X002758Y016490D01*
X002734Y016500D01*
X002897Y016568D01*
X003041Y016711D01*
X003119Y016899D01*
X003119Y017101D01*
X003041Y017289D01*
X002897Y017432D01*
X002734Y017500D01*
X002897Y017568D01*
X003041Y017711D01*
X003119Y017899D01*
X003119Y018101D01*
X003041Y018289D01*
X002897Y018432D01*
X002785Y018479D01*
X002820Y018490D01*
X002897Y018530D01*
X002967Y018580D01*
X003028Y018642D01*
X003079Y018712D01*
X003118Y018789D01*
X003145Y018871D01*
X003159Y018957D01*
X003159Y018980D01*
X002629Y018980D01*
X002629Y019020D01*
X003159Y019020D01*
X003159Y019043D01*
X003145Y019129D01*
X003118Y019211D01*
X003079Y019288D01*
X003028Y019358D01*
X002967Y019420D01*
X002897Y019470D01*
X002820Y019510D01*
X002737Y019536D01*
X002652Y019550D01*
X002629Y019550D01*
X002629Y019020D01*
X002589Y019020D01*
X002589Y019550D01*
X002565Y019550D01*
X002480Y019536D01*
X002397Y019510D01*
X002320Y019470D01*
X002250Y019420D01*
X002189Y019358D01*
X002138Y019288D01*
X002099Y019211D01*
X002072Y019129D01*
X002059Y019043D01*
X002059Y019020D01*
X002589Y019020D01*
X002589Y018980D01*
X002059Y018980D01*
X002059Y018957D01*
X002072Y018871D01*
X002099Y018789D01*
X002138Y018712D01*
X002189Y018642D01*
X002250Y018580D01*
X002320Y018530D01*
X002397Y018490D01*
X002432Y018479D01*
X002320Y018432D01*
X002176Y018289D01*
X002099Y018101D01*
X002099Y017899D01*
X002176Y017711D01*
X002320Y017568D01*
X002483Y017500D01*
X002320Y017432D01*
X002176Y017289D01*
X002099Y017101D01*
X002099Y016899D01*
X002176Y016711D01*
X002320Y016568D01*
X002483Y016500D01*
X002320Y016432D01*
X002176Y016289D01*
X002099Y016101D01*
X002099Y015899D01*
X002176Y015711D01*
X002320Y015568D01*
X002483Y015500D01*
X002320Y015432D01*
X002176Y015289D01*
X002099Y015101D01*
X002099Y014899D01*
X002176Y014711D01*
X002320Y014568D01*
X002483Y014500D01*
X002320Y014432D01*
X002176Y014289D01*
X002099Y014101D01*
X002099Y013899D01*
X002176Y013711D01*
X002320Y013568D01*
X002507Y013490D01*
X002710Y013490D01*
X002897Y013568D01*
X003041Y013711D01*
X003103Y013860D01*
X003137Y013860D01*
X003587Y014310D01*
X004261Y014310D01*
X004214Y014263D01*
X004144Y014092D01*
X004144Y013908D01*
X004214Y013737D01*
X004345Y013606D01*
X004516Y013535D01*
X004701Y013535D01*
X004872Y013606D01*
X005003Y013737D01*
X005074Y013908D01*
X005074Y014092D01*
X005003Y014263D01*
X004956Y014310D01*
X005180Y014310D01*
X005220Y014269D01*
X005214Y014263D01*
X005144Y014092D01*
X005144Y013908D01*
X005214Y013737D01*
X005345Y013606D01*
X005516Y013535D01*
X005701Y013535D01*
X005872Y013606D01*
X006003Y013737D01*
X006074Y013908D01*
X006074Y014092D01*
X006003Y014263D01*
X005872Y014394D01*
X005701Y014465D01*
X005562Y014465D01*
X005449Y014579D01*
X005337Y014690D01*
X003430Y014690D01*
X003035Y014295D01*
X002897Y014432D01*
X002734Y014500D01*
X002897Y014568D01*
X003041Y014711D01*
X003119Y014899D01*
X003119Y015101D01*
X003092Y015165D01*
X003137Y015210D01*
X006687Y015210D01*
X006799Y015321D01*
X006799Y018239D01*
X006812Y018245D01*
X006879Y018311D01*
X006879Y018289D01*
X006956Y018101D01*
X007100Y017958D01*
X007287Y017880D01*
X007490Y017880D01*
X007677Y017958D01*
X007821Y018101D01*
X007899Y018289D01*
X007899Y018491D01*
X007821Y018679D01*
X007690Y018810D01*
X008037Y018810D01*
X008399Y019172D01*
X008451Y019120D01*
X008766Y019120D01*
X008895Y019249D01*
X008898Y019248D01*
X008916Y019260D01*
X010091Y019260D01*
X010046Y019215D01*
X009989Y019076D01*
X009989Y018924D01*
X010046Y018785D01*
X010153Y018678D01*
X010293Y018620D01*
X010924Y018620D01*
X011064Y018678D01*
X011171Y018785D01*
X011229Y018924D01*
X011229Y019076D01*
X011171Y019215D01*
X011126Y019260D01*
X013091Y019260D01*
X013046Y019215D01*
X012989Y019076D01*
X012989Y018924D01*
X012998Y018903D01*
X012980Y018910D01*
X012837Y018910D01*
X012705Y018855D01*
X012603Y018754D01*
X012549Y018622D01*
X012549Y018478D01*
X012603Y018346D01*
X012705Y018245D01*
X012837Y018190D01*
X012980Y018190D01*
X012998Y018197D01*
X012979Y018161D01*
X012959Y018098D01*
X012949Y018033D01*
X012949Y018000D01*
X012949Y017967D01*
X012959Y017902D01*
X012979Y017839D01*
X013009Y017780D01*
X013048Y017726D01*
X013095Y017680D01*
X013148Y017641D01*
X013207Y017611D01*
X013270Y017590D01*
X013336Y017580D01*
X013609Y017580D01*
X013882Y017580D01*
X013947Y017590D01*
X014010Y017611D01*
X014069Y017641D01*
X014122Y017680D01*
X014169Y017726D01*
X014208Y017780D01*
X014238Y017839D01*
X014258Y017902D01*
X014269Y017967D01*
X014269Y018000D01*
X014269Y018033D01*
X014258Y018098D01*
X014238Y018161D01*
X014208Y018220D01*
X014169Y018274D01*
X014122Y018320D01*
X014069Y018359D01*
X014067Y018360D01*
X014337Y018360D01*
X014449Y018471D01*
X014787Y018810D01*
X015940Y018810D01*
X015888Y018684D01*
X015888Y018529D01*
X015947Y018385D01*
X016057Y018276D01*
X016200Y018216D01*
X016355Y018216D01*
X016499Y018276D01*
X016608Y018385D01*
X016668Y018529D01*
X016668Y018684D01*
X016608Y018827D01*
X016606Y018829D01*
X016699Y018921D01*
X018837Y021060D01*
X024555Y021060D01*
X024549Y021046D01*
X024549Y020990D01*
X021380Y020990D01*
X016668Y016278D01*
X016668Y016322D01*
X016608Y016465D01*
X016499Y016575D01*
X016355Y016634D01*
X016200Y016634D01*
X016057Y016575D01*
X015947Y016465D01*
X015888Y016322D01*
X015888Y016167D01*
X015940Y016040D01*
X014630Y016040D01*
X014180Y015590D01*
X010070Y015590D01*
X010064Y015604D01*
X009962Y015705D01*
X009830Y015760D01*
X009687Y015760D01*
X009555Y015705D01*
X009453Y015604D01*
X009399Y015472D01*
X009399Y015328D01*
X009453Y015196D01*
X009555Y015095D01*
X009661Y015051D01*
X009599Y014989D01*
X009339Y014729D01*
X009339Y015511D01*
X009667Y015840D01*
X010024Y015840D01*
X010046Y015785D01*
X010153Y015678D01*
X010293Y015620D01*
X010924Y015620D01*
X011064Y015678D01*
X011171Y015785D01*
X011229Y015924D01*
X011229Y016076D01*
X011171Y016215D01*
X011064Y016322D01*
X010924Y016380D01*
X010293Y016380D01*
X010153Y016322D01*
X010051Y016220D01*
X009510Y016220D01*
X009399Y016109D01*
X008968Y015678D01*
X008766Y015880D01*
X008451Y015880D01*
X008229Y015657D01*
X008229Y015343D01*
X008451Y015120D01*
X008766Y015120D01*
X008959Y015313D01*
X008959Y014649D01*
X008837Y014528D01*
X008771Y014555D01*
X008586Y014555D01*
X008415Y014484D01*
X008284Y014353D01*
X008214Y014182D01*
X008214Y013998D01*
X008244Y013924D01*
X007940Y013620D01*
X007866Y013620D01*
X007872Y013622D01*
X007943Y013658D01*
X008008Y013705D01*
X008064Y013761D01*
X008110Y013825D01*
X008147Y013896D01*
X008171Y013972D01*
X008184Y014050D01*
X008184Y014090D01*
X008184Y014130D01*
X008171Y014208D01*
X008147Y014284D01*
X008110Y014355D01*
X008064Y014419D01*
X008008Y014475D01*
X007943Y014522D01*
X007872Y014558D01*
X007797Y014583D01*
X007718Y014595D01*
X007679Y014595D01*
X007679Y014090D01*
X008184Y014090D01*
X007679Y014090D01*
X007679Y014090D01*
X007679Y014090D01*
X007679Y014595D01*
X007639Y014595D01*
X007560Y014583D01*
X007485Y014558D01*
X007414Y014522D01*
X007350Y014475D01*
X007293Y014419D01*
X007247Y014355D01*
X007211Y014284D01*
X007186Y014208D01*
X007174Y014130D01*
X007174Y014090D01*
X007174Y014050D01*
X007186Y013972D01*
X007211Y013896D01*
X007247Y013825D01*
X007293Y013761D01*
X007350Y013705D01*
X007414Y013658D01*
X007485Y013622D01*
X007491Y013620D01*
X006840Y013620D01*
X006729Y013509D01*
X006179Y012959D01*
X006179Y011619D01*
X006176Y011618D01*
X006080Y011523D01*
X006029Y011398D01*
X006029Y010862D01*
X006080Y010737D01*
X006176Y010642D01*
X006301Y010590D01*
X006436Y010590D01*
X006561Y010642D01*
X006657Y010737D01*
X006709Y010862D01*
X006709Y011398D01*
X006657Y011523D01*
X006561Y011618D01*
X006559Y011619D01*
X006559Y012801D01*
X006997Y013240D01*
X007417Y013240D01*
X007370Y013205D01*
X007313Y013149D01*
X007267Y013085D01*
X007231Y013014D01*
X007206Y012938D01*
X007194Y012860D01*
X006617Y012860D01*
X006559Y012702D02*
X007206Y012702D01*
X007231Y012626D01*
X007267Y012555D01*
X007313Y012491D01*
X007370Y012435D01*
X007434Y012388D01*
X007505Y012352D01*
X007580Y012327D01*
X007659Y012315D01*
X007699Y012315D01*
X007738Y012315D01*
X007817Y012327D01*
X007892Y012352D01*
X007963Y012388D01*
X008028Y012435D01*
X008084Y012491D01*
X008130Y012555D01*
X008167Y012626D01*
X008191Y012702D01*
X008204Y012780D01*
X008204Y012820D01*
X008204Y012860D01*
X008234Y012860D01*
X008204Y012860D02*
X008191Y012938D01*
X008167Y013014D01*
X008130Y013085D01*
X008084Y013149D01*
X008028Y013205D01*
X007980Y013240D01*
X008097Y013240D01*
X008513Y013655D01*
X008586Y013625D01*
X008771Y013625D01*
X008942Y013696D01*
X009073Y013827D01*
X009144Y013998D01*
X009144Y014182D01*
X009110Y014263D01*
X009219Y014371D01*
X009219Y013589D01*
X008879Y013249D01*
X008791Y013285D01*
X008606Y013285D01*
X008435Y013214D01*
X008304Y013083D01*
X008234Y012912D01*
X008234Y012728D01*
X008264Y012654D01*
X008179Y012569D01*
X008179Y011619D01*
X008176Y011618D01*
X008080Y011523D01*
X008029Y011398D01*
X008029Y010862D01*
X008080Y010737D01*
X008176Y010642D01*
X008301Y010590D01*
X008436Y010590D01*
X008561Y010642D01*
X008657Y010737D01*
X008709Y010862D01*
X008709Y011398D01*
X008657Y011523D01*
X008561Y011618D01*
X008559Y011619D01*
X008559Y012375D01*
X008606Y012355D01*
X008791Y012355D01*
X008962Y012426D01*
X009093Y012557D01*
X009164Y012728D01*
X009164Y012912D01*
X009139Y012972D01*
X009487Y013320D01*
X009599Y013431D01*
X009599Y014451D01*
X009867Y014720D01*
X010111Y014720D01*
X010153Y014678D01*
X010293Y014620D01*
X010924Y014620D01*
X011064Y014678D01*
X011171Y014785D01*
X011229Y014924D01*
X011229Y015076D01*
X011173Y015210D01*
X013044Y015210D01*
X012989Y015076D01*
X012989Y014924D01*
X013046Y014785D01*
X013153Y014678D01*
X013293Y014620D01*
X013924Y014620D01*
X014064Y014678D01*
X014171Y014785D01*
X014229Y014924D01*
X014229Y015076D01*
X014173Y015210D01*
X014337Y015210D01*
X014449Y015321D01*
X014787Y015660D01*
X015899Y015660D01*
X015879Y015622D01*
X015858Y015557D01*
X015848Y015491D01*
X015848Y015457D01*
X016278Y015457D01*
X016708Y015457D01*
X016708Y015491D01*
X016697Y015557D01*
X016676Y015622D01*
X016646Y015682D01*
X016630Y015703D01*
X021537Y020610D01*
X024786Y020610D01*
X024862Y020579D01*
X025017Y020579D01*
X025078Y020604D01*
X025104Y020599D01*
X025119Y020610D01*
X025137Y020610D01*
X025182Y020654D01*
X025233Y020690D01*
X025236Y020708D01*
X025249Y020721D01*
X025249Y020726D01*
X025270Y020748D01*
X025319Y020865D01*
X025319Y020285D01*
X025270Y020402D01*
X025160Y020512D01*
X025017Y020571D01*
X024862Y020571D01*
X024718Y020512D01*
X024609Y020402D01*
X024549Y020259D01*
X024549Y020104D01*
X024609Y019960D01*
X024718Y019850D01*
X024862Y019791D01*
X025017Y019791D01*
X025160Y019850D01*
X025270Y019960D01*
X025319Y020078D01*
X025319Y019979D01*
X025092Y019752D01*
X025017Y019784D01*
X024862Y019784D01*
X024718Y019724D01*
X024609Y019615D01*
X024549Y019471D01*
X024549Y019316D01*
X024609Y019173D01*
X024718Y019063D01*
X024862Y019004D01*
X025017Y019004D01*
X025160Y019063D01*
X025270Y019173D01*
X025329Y019316D01*
X025329Y019452D01*
X025587Y019710D01*
X025699Y019821D01*
X025699Y024479D01*
X025587Y024590D01*
X023787Y024590D01*
X023717Y024660D01*
X025769Y024660D01*
X025769Y019529D01*
X025168Y018929D01*
X025160Y018937D01*
X025017Y018996D01*
X024862Y018996D01*
X024718Y018937D01*
X024609Y018827D01*
X024549Y018684D01*
X024549Y018529D01*
X024609Y018385D01*
X024718Y018276D01*
X024862Y018216D01*
X025017Y018216D01*
X025160Y018276D01*
X025270Y018385D01*
X025329Y018529D01*
X025329Y018552D01*
X026037Y019260D01*
X026149Y019371D01*
X026149Y024929D01*
X026037Y025040D01*
X023787Y025040D01*
X022999Y025829D01*
X022887Y025940D01*
X021489Y025940D01*
X021489Y026157D01*
X021266Y026380D01*
X021097Y026380D01*
X021087Y026390D01*
X021039Y026390D01*
X020994Y026405D01*
X020964Y026390D01*
X020299Y026390D01*
X020299Y031075D01*
X020456Y031140D01*
X020575Y031259D01*
X020609Y031340D01*
X020642Y031259D01*
X020762Y031140D01*
X020918Y031075D01*
X021087Y031075D01*
X021243Y031140D01*
X021363Y031259D01*
X021427Y031415D01*
X021427Y031585D01*
X021363Y031741D01*
X021243Y031860D01*
X021087Y031925D01*
X020918Y031925D01*
X020762Y031860D01*
X020642Y031741D01*
X020609Y031660D01*
X020575Y031741D01*
X020456Y031860D01*
X020299Y031925D01*
X020130Y031925D01*
X019974Y031860D01*
X019855Y031741D01*
X019790Y031585D01*
X019790Y031415D01*
X019855Y031259D01*
X019919Y031195D01*
X019919Y026121D01*
X020030Y026010D01*
X020729Y026010D01*
X020729Y025843D01*
X020809Y025762D01*
X020803Y025747D01*
X020819Y025711D01*
X020819Y025671D01*
X020848Y025642D01*
X020865Y025603D01*
X020902Y025588D01*
X020930Y025560D01*
X020972Y025560D01*
X021011Y025544D01*
X021048Y025560D01*
X022730Y025560D01*
X022800Y025490D01*
X019737Y025490D01*
X018949Y026279D01*
X018938Y026290D01*
X018936Y026305D01*
X018883Y026344D01*
X018837Y026390D01*
X018822Y026390D01*
X018810Y026399D01*
X018745Y026390D01*
X018049Y026390D01*
X018049Y031233D01*
X018075Y031259D01*
X018109Y031340D01*
X018142Y031259D01*
X018262Y031140D01*
X018418Y031075D01*
X018587Y031075D01*
X018743Y031140D01*
X018863Y031259D01*
X018927Y031415D01*
X018927Y031585D01*
X018863Y031741D01*
X018743Y031860D01*
X018587Y031925D01*
X018418Y031925D01*
X018262Y031860D01*
X018142Y031741D01*
X018109Y031660D01*
X018075Y031741D01*
X017956Y031860D01*
X017799Y031925D01*
X017630Y031925D01*
X017474Y031860D01*
X017355Y031741D01*
X017290Y031585D01*
X017290Y031415D01*
X017355Y031259D01*
X017474Y031140D01*
X017630Y031075D01*
X017669Y031075D01*
X017669Y026121D01*
X017780Y026010D01*
X018229Y026010D01*
X018229Y025843D01*
X018451Y025620D01*
X018766Y025620D01*
X018918Y025772D01*
X019580Y025110D01*
X022730Y025110D01*
X022800Y025040D01*
X017037Y025040D01*
X016362Y025716D01*
X016489Y025843D01*
X016489Y026157D01*
X016266Y026380D01*
X016147Y026380D01*
X016137Y026390D01*
X016111Y026390D01*
X016089Y026403D01*
X016035Y026390D01*
X015349Y026390D01*
X015349Y031095D01*
X015456Y031140D01*
X015575Y031259D01*
X015609Y031340D01*
X015642Y031259D01*
X015762Y031140D01*
X015918Y031075D01*
X016087Y031075D01*
X016243Y031140D01*
X016363Y031259D01*
X016427Y031415D01*
X016427Y031585D01*
X016363Y031741D01*
X016243Y031860D01*
X016087Y031925D01*
X015918Y031925D01*
X015762Y031860D01*
X015642Y031741D01*
X015609Y031660D01*
X015575Y031741D01*
X015456Y031860D01*
X015299Y031925D01*
X015130Y031925D01*
X014974Y031860D01*
X014855Y031741D01*
X014790Y031585D01*
X014790Y031415D01*
X014855Y031259D01*
X014969Y031145D01*
X014969Y026121D01*
X015080Y026010D01*
X015729Y026010D01*
X015729Y025843D01*
X015858Y025714D01*
X015857Y025710D01*
X015869Y025692D01*
X015869Y025671D01*
X015911Y025629D01*
X015944Y025579D01*
X015965Y025575D01*
X016880Y024660D01*
X022730Y024660D01*
X024617Y022773D01*
X024609Y022764D01*
X024549Y022621D01*
X024549Y022466D01*
X024609Y022322D01*
X024718Y022213D01*
X024862Y022153D01*
X025017Y022153D01*
X025160Y022213D01*
X025270Y022322D01*
X025319Y022440D01*
X025319Y021859D01*
X025270Y021977D01*
X025160Y022087D01*
X025017Y022146D01*
X024862Y022146D01*
X024718Y022087D01*
X024609Y021977D01*
X024549Y021833D01*
X024549Y021678D01*
X024609Y021535D01*
X024617Y021527D01*
X024530Y021440D01*
X018680Y021440D01*
X016668Y019428D01*
X016668Y019471D01*
X016608Y019615D01*
X016499Y019724D01*
X016355Y019784D01*
X016200Y019784D01*
X016057Y019724D01*
X015973Y019640D01*
X013972Y019640D01*
X014064Y019678D01*
X014171Y019785D01*
X014229Y019924D01*
X014229Y020076D01*
X014171Y020215D01*
X014064Y020322D01*
X013924Y020380D01*
X013293Y020380D01*
X013155Y020323D01*
X012149Y021329D01*
X012149Y029429D01*
X012037Y029540D01*
X007087Y029540D01*
X006887Y029741D01*
X006989Y029843D01*
X006989Y030157D01*
X006766Y030380D01*
X006706Y030380D01*
X006680Y030398D01*
X006042Y031035D01*
X006111Y031046D01*
X006181Y031069D01*
X006246Y031102D01*
X006305Y031145D01*
X006357Y031197D01*
X006400Y031256D01*
X006433Y031322D01*
X006456Y031391D01*
X006467Y031463D01*
X006467Y031500D01*
X006467Y031537D01*
X006456Y031609D01*
X006433Y031678D01*
X006400Y031744D01*
X006357Y031803D01*
X006305Y031855D01*
X006246Y031898D01*
X006181Y031931D01*
X006111Y031954D01*
X006039Y031965D01*
X006002Y031965D01*
X005966Y031965D01*
X005893Y031954D01*
X005824Y031931D01*
X005759Y031898D01*
X005699Y031855D01*
X005648Y031803D01*
X005605Y031744D01*
X005588Y031711D01*
X005575Y031741D01*
X005456Y031860D01*
X005299Y031925D01*
X005130Y031925D01*
X004974Y031860D01*
X004855Y031741D01*
X004790Y031585D01*
X004790Y031415D01*
X004855Y031259D01*
X004974Y031140D01*
X005130Y031075D01*
X005330Y031088D02*
X005452Y031088D01*
X005583Y031722D02*
X005593Y031722D01*
X005734Y031880D02*
X005408Y031880D01*
X005022Y031880D02*
X003771Y031880D01*
X003810Y031722D02*
X004847Y031722D01*
X004790Y031563D02*
X003810Y031563D01*
X003789Y031405D02*
X004794Y031405D01*
X004868Y031246D02*
X003723Y031246D01*
X003705Y032039D02*
X027139Y032039D01*
X027139Y032197D02*
X003577Y032197D01*
X003375Y032356D02*
X027139Y032356D01*
X027139Y031880D02*
X026195Y031880D01*
X026243Y031860D02*
X026087Y031925D01*
X025918Y031925D01*
X025762Y031860D01*
X025642Y031741D01*
X025609Y031660D01*
X025575Y031741D01*
X025456Y031860D01*
X025299Y031925D01*
X025130Y031925D01*
X024974Y031860D01*
X024855Y031741D01*
X024790Y031585D01*
X024790Y031415D01*
X024855Y031259D01*
X024974Y031140D01*
X025130Y031075D01*
X025199Y031075D01*
X025199Y030194D01*
X024983Y030410D01*
X024809Y030410D01*
X024809Y029990D01*
X024809Y029990D01*
X024809Y029570D01*
X024983Y029570D01*
X025199Y029786D01*
X025199Y029549D01*
X024619Y028969D01*
X024619Y026337D01*
X024429Y026147D01*
X024429Y025833D01*
X024651Y025610D01*
X024966Y025610D01*
X025189Y025833D01*
X025189Y026147D01*
X024999Y026337D01*
X024999Y028811D01*
X025467Y029280D01*
X025579Y029391D01*
X025579Y031267D01*
X025609Y031340D01*
X025642Y031259D01*
X025762Y031140D01*
X025918Y031075D01*
X026087Y031075D01*
X026243Y031140D01*
X026363Y031259D01*
X026427Y031415D01*
X026427Y031585D01*
X026363Y031741D01*
X026243Y031860D01*
X026371Y031722D02*
X027139Y031722D01*
X027139Y031563D02*
X026427Y031563D01*
X026423Y031405D02*
X027139Y031405D01*
X027139Y031246D02*
X026349Y031246D01*
X026117Y031088D02*
X027139Y031088D01*
X027139Y030929D02*
X025579Y030929D01*
X025579Y030771D02*
X027139Y030771D01*
X027139Y030612D02*
X025579Y030612D01*
X025579Y030454D02*
X027139Y030454D01*
X027139Y030295D02*
X025579Y030295D01*
X025579Y030137D02*
X027139Y030137D01*
X027139Y029978D02*
X025579Y029978D01*
X025579Y029820D02*
X027139Y029820D01*
X027139Y029661D02*
X025579Y029661D01*
X025579Y029503D02*
X027139Y029503D01*
X027139Y029344D02*
X025531Y029344D01*
X025373Y029186D02*
X027139Y029186D01*
X027139Y029027D02*
X025214Y029027D01*
X025056Y028869D02*
X027139Y028869D01*
X027139Y028710D02*
X026532Y028710D01*
X026569Y028695D02*
X026264Y028821D01*
X025933Y028821D01*
X025628Y028695D01*
X025394Y028461D01*
X025267Y028155D01*
X025267Y027825D01*
X025394Y027519D01*
X025628Y027285D01*
X025933Y027159D01*
X026264Y027159D01*
X026569Y027285D01*
X026803Y027519D01*
X026930Y027825D01*
X026930Y028155D01*
X026803Y028461D01*
X026569Y028695D01*
X026712Y028552D02*
X027139Y028552D01*
X027139Y028393D02*
X026831Y028393D01*
X026897Y028235D02*
X027139Y028235D01*
X027139Y028076D02*
X026930Y028076D01*
X026930Y027918D02*
X027139Y027918D01*
X027139Y027759D02*
X026903Y027759D01*
X026837Y027601D02*
X027139Y027601D01*
X027139Y027442D02*
X026726Y027442D01*
X026565Y027284D02*
X027139Y027284D01*
X027139Y027125D02*
X024999Y027125D01*
X024999Y026967D02*
X027139Y026967D01*
X027139Y026808D02*
X024999Y026808D01*
X024999Y026650D02*
X027139Y026650D01*
X027139Y026491D02*
X024999Y026491D01*
X025003Y026333D02*
X027139Y026333D01*
X027139Y026174D02*
X025162Y026174D01*
X025189Y026016D02*
X027139Y026016D01*
X027139Y025857D02*
X025189Y025857D01*
X025055Y025699D02*
X027139Y025699D01*
X027139Y025540D02*
X024187Y025540D01*
X024237Y025490D02*
X023937Y025791D01*
X023989Y025843D01*
X023989Y026157D01*
X023899Y026247D01*
X023899Y026279D01*
X023875Y026303D01*
X023864Y026335D01*
X023821Y026356D01*
X023787Y026390D01*
X023753Y026390D01*
X023723Y026405D01*
X023678Y026390D01*
X022999Y026390D01*
X022999Y031183D01*
X023075Y031259D01*
X023109Y031340D01*
X023142Y031259D01*
X023262Y031140D01*
X023418Y031075D01*
X023587Y031075D01*
X023743Y031140D01*
X023863Y031259D01*
X023927Y031415D01*
X023927Y031585D01*
X023863Y031741D01*
X023743Y031860D01*
X023587Y031925D01*
X023418Y031925D01*
X023262Y031860D01*
X023142Y031741D01*
X023109Y031660D01*
X023075Y031741D01*
X022956Y031860D01*
X022799Y031925D01*
X022630Y031925D01*
X022474Y031860D01*
X022355Y031741D01*
X022290Y031585D01*
X022290Y031415D01*
X022355Y031259D01*
X022474Y031140D01*
X022619Y031080D01*
X022619Y026121D01*
X022730Y026010D01*
X023229Y026010D01*
X023229Y025843D01*
X023451Y025620D01*
X023556Y025620D01*
X023561Y025606D01*
X023600Y025590D01*
X024080Y025110D01*
X026219Y025110D01*
X026219Y016829D01*
X025169Y015779D01*
X025160Y015787D01*
X025017Y015847D01*
X024862Y015847D01*
X024718Y015787D01*
X024609Y015678D01*
X024549Y015534D01*
X024549Y015379D01*
X024609Y015236D01*
X024718Y015126D01*
X024862Y015067D01*
X025017Y015067D01*
X025160Y015126D01*
X025270Y015236D01*
X025329Y015379D01*
X025329Y015402D01*
X026487Y016560D01*
X026599Y016671D01*
X026599Y025379D01*
X026487Y025490D01*
X024237Y025490D01*
X024029Y025699D02*
X024563Y025699D01*
X024429Y025857D02*
X023989Y025857D01*
X023989Y026016D02*
X024429Y026016D01*
X024455Y026174D02*
X023972Y026174D01*
X023865Y026333D02*
X024614Y026333D01*
X024619Y026491D02*
X022999Y026491D01*
X022999Y026650D02*
X024619Y026650D01*
X024619Y026808D02*
X022999Y026808D01*
X022999Y026967D02*
X024619Y026967D01*
X024619Y027125D02*
X022999Y027125D01*
X022999Y027284D02*
X024619Y027284D01*
X024619Y027442D02*
X022999Y027442D01*
X022999Y027601D02*
X024619Y027601D01*
X024619Y027759D02*
X022999Y027759D01*
X022999Y027918D02*
X024619Y027918D01*
X024619Y028076D02*
X022999Y028076D01*
X022999Y028235D02*
X024619Y028235D01*
X024619Y028393D02*
X022999Y028393D01*
X022999Y028552D02*
X024619Y028552D01*
X024619Y028710D02*
X022999Y028710D01*
X022999Y028869D02*
X024619Y028869D01*
X024677Y029027D02*
X022999Y029027D01*
X022999Y029186D02*
X024835Y029186D01*
X024994Y029344D02*
X022999Y029344D01*
X022999Y029503D02*
X025152Y029503D01*
X025199Y029661D02*
X025074Y029661D01*
X024809Y029661D02*
X024809Y029661D01*
X024809Y029570D02*
X024809Y029990D01*
X024809Y029990D01*
X024809Y030410D01*
X024635Y030410D01*
X024389Y030164D01*
X024389Y029990D01*
X024389Y029816D01*
X024635Y029570D01*
X024809Y029570D01*
X024809Y029820D02*
X024809Y029820D01*
X024809Y029978D02*
X024809Y029978D01*
X024809Y029990D02*
X024389Y029990D01*
X024809Y029990D01*
X024809Y029990D01*
X024809Y030137D02*
X024809Y030137D01*
X024809Y030295D02*
X024809Y030295D01*
X025097Y030295D02*
X025199Y030295D01*
X025199Y030454D02*
X022999Y030454D01*
X022999Y030612D02*
X025199Y030612D01*
X025199Y030771D02*
X022999Y030771D01*
X022999Y030929D02*
X025199Y030929D01*
X025100Y031088D02*
X023617Y031088D01*
X023387Y031088D02*
X022999Y031088D01*
X023062Y031246D02*
X023155Y031246D01*
X023134Y031722D02*
X023083Y031722D01*
X022908Y031880D02*
X023309Y031880D01*
X023695Y031880D02*
X025022Y031880D01*
X024847Y031722D02*
X023871Y031722D01*
X023927Y031563D02*
X024790Y031563D01*
X024794Y031405D02*
X023923Y031405D01*
X023849Y031246D02*
X024868Y031246D01*
X025579Y031246D02*
X025655Y031246D01*
X025579Y031088D02*
X025887Y031088D01*
X025634Y031722D02*
X025583Y031722D01*
X025408Y031880D02*
X025809Y031880D01*
X024520Y030295D02*
X023907Y030295D01*
X024029Y030174D02*
X023783Y030420D01*
X023609Y030420D01*
X023609Y030000D01*
X024029Y030000D01*
X024029Y030174D01*
X024029Y030137D02*
X024389Y030137D01*
X024389Y029978D02*
X024029Y029978D01*
X024029Y030000D02*
X023609Y030000D01*
X023609Y030000D01*
X023609Y030000D01*
X023609Y029580D01*
X023783Y029580D01*
X024029Y029826D01*
X024029Y030000D01*
X024022Y029820D02*
X024389Y029820D01*
X024544Y029661D02*
X023864Y029661D01*
X023609Y029661D02*
X023609Y029661D01*
X023609Y029580D02*
X023609Y030000D01*
X023609Y030000D01*
X023609Y030420D01*
X023435Y030420D01*
X023189Y030174D01*
X023189Y030000D01*
X023189Y029826D01*
X023435Y029580D01*
X023609Y029580D01*
X023609Y029820D02*
X023609Y029820D01*
X023609Y029978D02*
X023609Y029978D01*
X023609Y030000D02*
X023189Y030000D01*
X023609Y030000D01*
X023609Y030000D01*
X023609Y030137D02*
X023609Y030137D01*
X023609Y030295D02*
X023609Y030295D01*
X023310Y030295D02*
X022999Y030295D01*
X022999Y030137D02*
X023189Y030137D01*
X023189Y029978D02*
X022999Y029978D01*
X022999Y029820D02*
X023195Y029820D01*
X023354Y029661D02*
X022999Y029661D01*
X022619Y029661D02*
X021364Y029661D01*
X021283Y029580D02*
X021529Y029826D01*
X021529Y030000D01*
X021529Y030174D01*
X021283Y030420D01*
X021109Y030420D01*
X021109Y030000D01*
X021529Y030000D01*
X021109Y030000D01*
X021109Y030000D01*
X021109Y030000D01*
X021109Y029580D01*
X021283Y029580D01*
X021109Y029580D02*
X021109Y030000D01*
X021109Y030000D01*
X021109Y030420D01*
X020935Y030420D01*
X020689Y030174D01*
X020689Y030000D01*
X020689Y029826D01*
X020935Y029580D01*
X021109Y029580D01*
X021109Y029661D02*
X021109Y029661D01*
X021109Y029820D02*
X021109Y029820D01*
X021109Y029978D02*
X021109Y029978D01*
X021109Y030000D02*
X020689Y030000D01*
X021109Y030000D01*
X021109Y030000D01*
X021109Y030137D02*
X021109Y030137D01*
X021109Y030295D02*
X021109Y030295D01*
X021407Y030295D02*
X022619Y030295D01*
X022619Y030137D02*
X021529Y030137D01*
X021529Y029978D02*
X022619Y029978D01*
X022619Y029820D02*
X021522Y029820D01*
X020854Y029661D02*
X020299Y029661D01*
X020299Y029503D02*
X022619Y029503D01*
X022619Y029344D02*
X020299Y029344D01*
X020299Y029186D02*
X022619Y029186D01*
X022619Y029027D02*
X020299Y029027D01*
X020299Y028869D02*
X022619Y028869D01*
X022619Y028710D02*
X020299Y028710D01*
X020299Y028552D02*
X022619Y028552D01*
X022619Y028393D02*
X020299Y028393D01*
X020299Y028235D02*
X022619Y028235D01*
X022619Y028076D02*
X020299Y028076D01*
X020299Y027918D02*
X022619Y027918D01*
X022619Y027759D02*
X020299Y027759D01*
X020299Y027601D02*
X022619Y027601D01*
X022619Y027442D02*
X020299Y027442D01*
X020299Y027284D02*
X022619Y027284D01*
X022619Y027125D02*
X020299Y027125D01*
X020299Y026967D02*
X022619Y026967D01*
X022619Y026808D02*
X020299Y026808D01*
X020299Y026650D02*
X022619Y026650D01*
X022619Y026491D02*
X020299Y026491D01*
X019919Y026491D02*
X018049Y026491D01*
X018049Y026650D02*
X019919Y026650D01*
X019919Y026808D02*
X018049Y026808D01*
X018049Y026967D02*
X019919Y026967D01*
X019919Y027125D02*
X018049Y027125D01*
X018049Y027284D02*
X019919Y027284D01*
X019919Y027442D02*
X018049Y027442D01*
X018049Y027601D02*
X019919Y027601D01*
X019919Y027759D02*
X018049Y027759D01*
X018049Y027918D02*
X019919Y027918D01*
X019919Y028076D02*
X018049Y028076D01*
X018049Y028235D02*
X019919Y028235D01*
X019919Y028393D02*
X018049Y028393D01*
X018049Y028552D02*
X019919Y028552D01*
X019919Y028710D02*
X018049Y028710D01*
X018049Y028869D02*
X019919Y028869D01*
X019919Y029027D02*
X018049Y029027D01*
X018049Y029186D02*
X019919Y029186D01*
X019919Y029344D02*
X018049Y029344D01*
X018049Y029503D02*
X019919Y029503D01*
X019919Y029661D02*
X018864Y029661D01*
X018783Y029580D02*
X019029Y029826D01*
X019029Y030000D01*
X019029Y030174D01*
X018783Y030420D01*
X018609Y030420D01*
X018609Y030000D01*
X019029Y030000D01*
X018609Y030000D01*
X018609Y030000D01*
X018609Y030000D01*
X018609Y029580D01*
X018783Y029580D01*
X018609Y029580D02*
X018609Y030000D01*
X018609Y030000D01*
X018609Y030420D01*
X018435Y030420D01*
X018189Y030174D01*
X018189Y030000D01*
X018189Y029826D01*
X018435Y029580D01*
X018609Y029580D01*
X018609Y029661D02*
X018609Y029661D01*
X018609Y029820D02*
X018609Y029820D01*
X018609Y029978D02*
X018609Y029978D01*
X018609Y030000D02*
X018189Y030000D01*
X018609Y030000D01*
X018609Y030000D01*
X018609Y030137D02*
X018609Y030137D01*
X018609Y030295D02*
X018609Y030295D01*
X018907Y030295D02*
X019919Y030295D01*
X019919Y030137D02*
X019029Y030137D01*
X019029Y029978D02*
X019919Y029978D01*
X019919Y029820D02*
X019022Y029820D01*
X018354Y029661D02*
X018049Y029661D01*
X018049Y029820D02*
X018195Y029820D01*
X018189Y029978D02*
X018049Y029978D01*
X018049Y030137D02*
X018189Y030137D01*
X018310Y030295D02*
X018049Y030295D01*
X018049Y030454D02*
X019919Y030454D01*
X019919Y030612D02*
X018049Y030612D01*
X018049Y030771D02*
X019919Y030771D01*
X019919Y030929D02*
X018049Y030929D01*
X018049Y031088D02*
X018387Y031088D01*
X018617Y031088D02*
X019919Y031088D01*
X019868Y031246D02*
X018849Y031246D01*
X018923Y031405D02*
X019794Y031405D01*
X019790Y031563D02*
X018927Y031563D01*
X018871Y031722D02*
X019847Y031722D01*
X020022Y031880D02*
X018695Y031880D01*
X018309Y031880D02*
X017908Y031880D01*
X018083Y031722D02*
X018134Y031722D01*
X018155Y031246D02*
X018062Y031246D01*
X017669Y030929D02*
X015349Y030929D01*
X015349Y030771D02*
X017669Y030771D01*
X017669Y030612D02*
X015349Y030612D01*
X015349Y030454D02*
X017669Y030454D01*
X017669Y030295D02*
X016407Y030295D01*
X016529Y030174D02*
X016283Y030420D01*
X016109Y030420D01*
X016109Y030000D01*
X016529Y030000D01*
X016529Y030174D01*
X016529Y030137D02*
X017669Y030137D01*
X017669Y029978D02*
X016529Y029978D01*
X016529Y030000D02*
X016109Y030000D01*
X016109Y030000D01*
X016109Y030000D01*
X016109Y029580D01*
X016283Y029580D01*
X016529Y029826D01*
X016529Y030000D01*
X016522Y029820D02*
X017669Y029820D01*
X017669Y029661D02*
X016364Y029661D01*
X016109Y029661D02*
X016109Y029661D01*
X016109Y029580D02*
X016109Y030000D01*
X016109Y030000D01*
X016109Y030420D01*
X015935Y030420D01*
X015689Y030174D01*
X015689Y030000D01*
X015689Y029826D01*
X015935Y029580D01*
X016109Y029580D01*
X016109Y029820D02*
X016109Y029820D01*
X016109Y029978D02*
X016109Y029978D01*
X016109Y030000D02*
X015689Y030000D01*
X016109Y030000D01*
X016109Y030000D01*
X016109Y030137D02*
X016109Y030137D01*
X016109Y030295D02*
X016109Y030295D01*
X015810Y030295D02*
X015349Y030295D01*
X015349Y030137D02*
X015689Y030137D01*
X015689Y029978D02*
X015349Y029978D01*
X015349Y029820D02*
X015695Y029820D01*
X015854Y029661D02*
X015349Y029661D01*
X015349Y029503D02*
X017669Y029503D01*
X017669Y029344D02*
X015349Y029344D01*
X015349Y029186D02*
X017669Y029186D01*
X017669Y029027D02*
X015349Y029027D01*
X015349Y028869D02*
X017669Y028869D01*
X017669Y028710D02*
X015349Y028710D01*
X015349Y028552D02*
X017669Y028552D01*
X017669Y028393D02*
X015349Y028393D01*
X015349Y028235D02*
X017669Y028235D01*
X017669Y028076D02*
X015349Y028076D01*
X015349Y027918D02*
X017669Y027918D01*
X017669Y027759D02*
X015349Y027759D01*
X015349Y027601D02*
X017669Y027601D01*
X017669Y027442D02*
X015349Y027442D01*
X015349Y027284D02*
X017669Y027284D01*
X017669Y027125D02*
X015349Y027125D01*
X015349Y026967D02*
X017669Y026967D01*
X017669Y026808D02*
X015349Y026808D01*
X015349Y026650D02*
X017669Y026650D01*
X017669Y026491D02*
X015349Y026491D01*
X014969Y026491D02*
X014449Y026491D01*
X014449Y026333D02*
X014969Y026333D01*
X014969Y026174D02*
X014449Y026174D01*
X014449Y026016D02*
X015074Y026016D01*
X014969Y026650D02*
X014449Y026650D01*
X014449Y026808D02*
X014969Y026808D01*
X014969Y026967D02*
X014449Y026967D01*
X014449Y027125D02*
X014969Y027125D01*
X014969Y027284D02*
X014449Y027284D01*
X014449Y027442D02*
X014969Y027442D01*
X014969Y027601D02*
X014449Y027601D01*
X014449Y027759D02*
X014969Y027759D01*
X014969Y027918D02*
X014449Y027918D01*
X014449Y028076D02*
X014969Y028076D01*
X014969Y028235D02*
X014449Y028235D01*
X014449Y028393D02*
X014969Y028393D01*
X014969Y028552D02*
X014449Y028552D01*
X014449Y028710D02*
X014969Y028710D01*
X014969Y028869D02*
X014449Y028869D01*
X014449Y029027D02*
X014969Y029027D01*
X014969Y029186D02*
X014449Y029186D01*
X014449Y029344D02*
X014969Y029344D01*
X014969Y029503D02*
X014449Y029503D01*
X014449Y029661D02*
X014969Y029661D01*
X014969Y029820D02*
X014449Y029820D01*
X014449Y029978D02*
X014969Y029978D01*
X014969Y030137D02*
X014449Y030137D01*
X014449Y030295D02*
X014969Y030295D01*
X014969Y030454D02*
X014449Y030454D01*
X014449Y030612D02*
X014969Y030612D01*
X014969Y030771D02*
X014449Y030771D01*
X014449Y030929D02*
X014969Y030929D01*
X014969Y031088D02*
X014449Y031088D01*
X014449Y031246D02*
X014868Y031246D01*
X014794Y031405D02*
X014449Y031405D01*
X014449Y031563D02*
X014790Y031563D01*
X014847Y031722D02*
X014406Y031722D01*
X014449Y031679D02*
X014337Y031790D01*
X013813Y031790D01*
X013743Y031860D01*
X013587Y031925D01*
X013418Y031925D01*
X013262Y031860D01*
X013142Y031741D01*
X013109Y031660D01*
X013075Y031741D01*
X012956Y031860D01*
X012799Y031925D01*
X012630Y031925D01*
X012474Y031860D01*
X012355Y031741D01*
X012290Y031585D01*
X012290Y031415D01*
X012321Y031340D01*
X011637Y031340D01*
X011427Y031550D01*
X011427Y031585D01*
X011363Y031741D01*
X011243Y031860D01*
X011087Y031925D01*
X010918Y031925D01*
X010762Y031860D01*
X010642Y031741D01*
X010609Y031660D01*
X010575Y031741D01*
X010456Y031860D01*
X010299Y031925D01*
X010130Y031925D01*
X009974Y031860D01*
X009855Y031741D01*
X009790Y031585D01*
X009790Y031415D01*
X009855Y031259D01*
X009974Y031140D01*
X010019Y031121D01*
X010019Y031071D01*
X010130Y030960D01*
X010831Y030259D01*
X010729Y030157D01*
X010729Y029843D01*
X010951Y029620D01*
X011266Y029620D01*
X011489Y029843D01*
X011489Y030157D01*
X011266Y030380D01*
X011247Y030380D01*
X011187Y030440D01*
X010472Y031156D01*
X010575Y031259D01*
X010609Y031340D01*
X010642Y031259D01*
X010762Y031140D01*
X010918Y031075D01*
X011087Y031075D01*
X011243Y031140D01*
X011272Y031168D01*
X011480Y030960D01*
X012269Y030960D01*
X012269Y022971D01*
X012380Y022860D01*
X013040Y022200D01*
X012989Y022076D01*
X012989Y021924D01*
X013046Y021785D01*
X013153Y021678D01*
X013293Y021620D01*
X013910Y021620D01*
X013721Y021431D01*
X013709Y021430D01*
X013669Y021380D01*
X013293Y021380D01*
X013153Y021322D01*
X013046Y021215D01*
X012989Y021076D01*
X012989Y020924D01*
X013046Y020785D01*
X012692Y020785D01*
X012534Y020944D02*
X012989Y020944D01*
X013000Y021102D02*
X012375Y021102D01*
X012217Y021261D02*
X013092Y021261D01*
X013095Y021736D02*
X012149Y021736D01*
X012149Y021578D02*
X013867Y021578D01*
X013700Y021419D02*
X012149Y021419D01*
X011838Y021102D02*
X011749Y021102D01*
X011749Y020944D02*
X011996Y020944D01*
X012155Y020785D02*
X011749Y020785D01*
X011749Y020627D02*
X012313Y020627D01*
X012472Y020468D02*
X011749Y020468D01*
X011749Y020310D02*
X012630Y020310D01*
X012789Y020151D02*
X011749Y020151D01*
X011749Y019993D02*
X012947Y019993D01*
X013026Y019834D02*
X011749Y019834D01*
X011749Y019676D02*
X013159Y019676D01*
X013040Y019200D02*
X011177Y019200D01*
X011229Y019042D02*
X012989Y019042D01*
X012772Y018883D02*
X011211Y018883D01*
X011110Y018725D02*
X012591Y018725D01*
X012549Y018566D02*
X007868Y018566D01*
X007899Y018408D02*
X012578Y018408D01*
X012700Y018249D02*
X011137Y018249D01*
X011171Y018215D02*
X011064Y018322D01*
X010924Y018380D01*
X010293Y018380D01*
X010153Y018322D01*
X010046Y018215D01*
X009989Y018076D01*
X009989Y017924D01*
X010046Y017785D01*
X010153Y017678D01*
X010293Y017620D01*
X010924Y017620D01*
X011064Y017678D01*
X011171Y017785D01*
X011229Y017924D01*
X011229Y018076D01*
X011171Y018215D01*
X011222Y018091D02*
X012958Y018091D01*
X012949Y018000D02*
X013609Y018000D01*
X014269Y018000D01*
X013609Y018000D01*
X013609Y018000D01*
X013609Y017580D01*
X013609Y018000D01*
X013609Y018000D01*
X012949Y018000D01*
X012954Y017932D02*
X011229Y017932D01*
X011159Y017774D02*
X013014Y017774D01*
X013199Y017615D02*
X006799Y017615D01*
X006799Y017457D02*
X016134Y017457D01*
X016200Y017429D02*
X016355Y017429D01*
X016499Y017488D01*
X016608Y017598D01*
X016668Y017741D01*
X016668Y017896D01*
X016608Y018040D01*
X016499Y018150D01*
X016355Y018209D01*
X016200Y018209D01*
X016057Y018150D01*
X015947Y018040D01*
X015888Y017896D01*
X015888Y017741D01*
X015947Y017598D01*
X016057Y017488D01*
X016200Y017429D01*
X016200Y017421D02*
X016057Y017362D01*
X015947Y017252D01*
X015888Y017109D01*
X015888Y016954D01*
X015947Y016811D01*
X016057Y016701D01*
X016200Y016641D01*
X016355Y016641D01*
X016499Y016701D01*
X016608Y016811D01*
X016668Y016954D01*
X016668Y017109D01*
X016608Y017252D01*
X016499Y017362D01*
X016355Y017421D01*
X016200Y017421D01*
X016422Y017457D02*
X017846Y017457D01*
X018005Y017615D02*
X016616Y017615D01*
X016668Y017774D02*
X018163Y017774D01*
X018322Y017932D02*
X016653Y017932D01*
X016558Y018091D02*
X018480Y018091D01*
X018639Y018249D02*
X016434Y018249D01*
X016618Y018408D02*
X018797Y018408D01*
X018956Y018566D02*
X016668Y018566D01*
X016651Y018725D02*
X019114Y018725D01*
X019273Y018883D02*
X016660Y018883D01*
X016819Y019042D02*
X019431Y019042D01*
X019590Y019200D02*
X016977Y019200D01*
X017136Y019359D02*
X019748Y019359D01*
X019907Y019517D02*
X017294Y019517D01*
X017453Y019676D02*
X020065Y019676D01*
X020224Y019834D02*
X017611Y019834D01*
X017770Y019993D02*
X020382Y019993D01*
X020541Y020151D02*
X017928Y020151D01*
X018087Y020310D02*
X020699Y020310D01*
X020858Y020468D02*
X018245Y020468D01*
X018404Y020627D02*
X021016Y020627D01*
X021175Y020785D02*
X018562Y020785D01*
X018721Y020944D02*
X021333Y020944D01*
X021395Y020468D02*
X024675Y020468D01*
X024570Y020310D02*
X021237Y020310D01*
X021078Y020151D02*
X024549Y020151D01*
X024595Y019993D02*
X020920Y019993D01*
X020761Y019834D02*
X024758Y019834D01*
X024670Y019676D02*
X020603Y019676D01*
X020444Y019517D02*
X024568Y019517D01*
X024549Y019359D02*
X020286Y019359D01*
X020127Y019200D02*
X024597Y019200D01*
X024770Y019042D02*
X019969Y019042D01*
X019810Y018883D02*
X024664Y018883D01*
X024566Y018725D02*
X019652Y018725D01*
X019493Y018566D02*
X024549Y018566D01*
X024599Y018408D02*
X019335Y018408D01*
X019176Y018249D02*
X024783Y018249D01*
X024862Y018209D02*
X024718Y018150D01*
X024609Y018040D01*
X024549Y017896D01*
X024549Y017741D01*
X024609Y017598D01*
X024718Y017488D01*
X024862Y017429D01*
X025017Y017429D01*
X025160Y017488D01*
X025270Y017598D01*
X025329Y017741D01*
X025329Y017896D01*
X025270Y018040D01*
X025160Y018150D01*
X025017Y018209D01*
X024862Y018209D01*
X024659Y018091D02*
X019018Y018091D01*
X018859Y017932D02*
X024564Y017932D01*
X024549Y017774D02*
X018701Y017774D01*
X018542Y017615D02*
X024602Y017615D01*
X024795Y017457D02*
X018384Y017457D01*
X018225Y017298D02*
X024654Y017298D01*
X024609Y017252D02*
X024549Y017109D01*
X024549Y016954D01*
X024609Y016811D01*
X024718Y016701D01*
X024862Y016641D01*
X025017Y016641D01*
X025160Y016701D01*
X025270Y016811D01*
X025329Y016954D01*
X025329Y017109D01*
X025270Y017252D01*
X025160Y017362D01*
X025017Y017421D01*
X024862Y017421D01*
X024718Y017362D01*
X024609Y017252D01*
X024562Y017140D02*
X018067Y017140D01*
X017908Y016981D02*
X024549Y016981D01*
X024604Y016823D02*
X017750Y016823D01*
X017591Y016664D02*
X024807Y016664D01*
X024862Y016634D02*
X024718Y016575D01*
X024609Y016465D01*
X024549Y016322D01*
X024549Y016167D01*
X024609Y016023D01*
X024718Y015913D01*
X024862Y015854D01*
X025017Y015854D01*
X025160Y015913D01*
X025270Y016023D01*
X025329Y016167D01*
X025329Y016322D01*
X025270Y016465D01*
X025160Y016575D01*
X025017Y016634D01*
X024862Y016634D01*
X025071Y016664D02*
X026054Y016664D01*
X026212Y016823D02*
X025275Y016823D01*
X025329Y016981D02*
X026219Y016981D01*
X026219Y017140D02*
X025317Y017140D01*
X025224Y017298D02*
X026219Y017298D01*
X026219Y017457D02*
X025084Y017457D01*
X025277Y017615D02*
X026219Y017615D01*
X026219Y017774D02*
X025329Y017774D01*
X025315Y017932D02*
X026219Y017932D01*
X026219Y018091D02*
X025219Y018091D01*
X025096Y018249D02*
X026219Y018249D01*
X026219Y018408D02*
X025279Y018408D01*
X025343Y018566D02*
X026219Y018566D01*
X026219Y018725D02*
X025502Y018725D01*
X025660Y018883D02*
X026219Y018883D01*
X026219Y019042D02*
X025819Y019042D01*
X025977Y019200D02*
X026219Y019200D01*
X026219Y019359D02*
X026136Y019359D01*
X026149Y019517D02*
X026219Y019517D01*
X026219Y019676D02*
X026149Y019676D01*
X026149Y019834D02*
X026219Y019834D01*
X026219Y019993D02*
X026149Y019993D01*
X026149Y020151D02*
X026219Y020151D01*
X026219Y020310D02*
X026149Y020310D01*
X026149Y020468D02*
X026219Y020468D01*
X026219Y020627D02*
X026149Y020627D01*
X026149Y020785D02*
X026219Y020785D01*
X026219Y020944D02*
X026149Y020944D01*
X026149Y021102D02*
X026219Y021102D01*
X026219Y021261D02*
X026149Y021261D01*
X026149Y021419D02*
X026219Y021419D01*
X026219Y021578D02*
X026149Y021578D01*
X026149Y021736D02*
X026219Y021736D01*
X026219Y021895D02*
X026149Y021895D01*
X026149Y022053D02*
X026219Y022053D01*
X026219Y022212D02*
X026149Y022212D01*
X026149Y022370D02*
X026219Y022370D01*
X026219Y022529D02*
X026149Y022529D01*
X026149Y022687D02*
X026219Y022687D01*
X026219Y022846D02*
X026149Y022846D01*
X026149Y023004D02*
X026219Y023004D01*
X026219Y023163D02*
X026149Y023163D01*
X026149Y023321D02*
X026219Y023321D01*
X026219Y023480D02*
X026149Y023480D01*
X026149Y023638D02*
X026219Y023638D01*
X026219Y023797D02*
X026149Y023797D01*
X026149Y023955D02*
X026219Y023955D01*
X026219Y024114D02*
X026149Y024114D01*
X026149Y024272D02*
X026219Y024272D01*
X026219Y024431D02*
X026149Y024431D01*
X026149Y024589D02*
X026219Y024589D01*
X026219Y024748D02*
X026149Y024748D01*
X026149Y024906D02*
X026219Y024906D01*
X026219Y025065D02*
X023763Y025065D01*
X023604Y025223D02*
X023967Y025223D01*
X023808Y025382D02*
X023446Y025382D01*
X023287Y025540D02*
X023650Y025540D01*
X023373Y025699D02*
X023129Y025699D01*
X023229Y025857D02*
X022970Y025857D01*
X022724Y026016D02*
X021489Y026016D01*
X021472Y026174D02*
X022619Y026174D01*
X022619Y026333D02*
X021313Y026333D01*
X020729Y025857D02*
X019370Y025857D01*
X019212Y026016D02*
X020024Y026016D01*
X019919Y026174D02*
X019053Y026174D01*
X018899Y026333D02*
X019919Y026333D01*
X019529Y025699D02*
X020819Y025699D01*
X019687Y025540D02*
X022750Y025540D01*
X022775Y025065D02*
X017013Y025065D01*
X016854Y025223D02*
X019467Y025223D01*
X019308Y025382D02*
X016696Y025382D01*
X016537Y025540D02*
X019150Y025540D01*
X018991Y025699D02*
X018845Y025699D01*
X018373Y025699D02*
X016379Y025699D01*
X016489Y025857D02*
X018229Y025857D01*
X017774Y026016D02*
X016489Y026016D01*
X016472Y026174D02*
X017669Y026174D01*
X017669Y026333D02*
X016313Y026333D01*
X015729Y025857D02*
X014449Y025857D01*
X014449Y025699D02*
X015865Y025699D01*
X016000Y025540D02*
X014449Y025540D01*
X014449Y025382D02*
X016158Y025382D01*
X016317Y025223D02*
X014449Y025223D01*
X014449Y025065D02*
X016475Y025065D01*
X016634Y024906D02*
X014449Y024906D01*
X014449Y024748D02*
X016792Y024748D01*
X017493Y024304D02*
X017439Y024172D01*
X017439Y024028D01*
X017493Y023896D01*
X017595Y023795D01*
X017609Y023789D01*
X017609Y022041D01*
X017595Y022035D01*
X017493Y021934D01*
X017439Y021802D01*
X017439Y021658D01*
X017493Y021526D01*
X017595Y021425D01*
X017727Y021370D01*
X017870Y021370D01*
X018002Y021425D01*
X018104Y021526D01*
X018159Y021658D01*
X018159Y021802D01*
X018104Y021934D01*
X018002Y022035D01*
X017989Y022041D01*
X017989Y023789D01*
X018002Y023795D01*
X018104Y023896D01*
X018159Y024028D01*
X018159Y024172D01*
X018104Y024304D01*
X018002Y024405D01*
X017870Y024460D01*
X017727Y024460D01*
X017595Y024405D01*
X017493Y024304D01*
X017480Y024272D02*
X014449Y024272D01*
X014449Y024114D02*
X017439Y024114D01*
X017469Y023955D02*
X014449Y023955D01*
X014449Y023797D02*
X017593Y023797D01*
X017609Y023638D02*
X014449Y023638D01*
X014449Y023480D02*
X017609Y023480D01*
X017609Y023321D02*
X014449Y023321D01*
X014449Y023163D02*
X017609Y023163D01*
X017609Y023004D02*
X014449Y023004D01*
X014449Y022846D02*
X016029Y022846D01*
X016057Y022874D02*
X015947Y022764D01*
X015888Y022621D01*
X015888Y022466D01*
X015947Y022322D01*
X016057Y022213D01*
X016200Y022153D01*
X016355Y022153D01*
X016499Y022213D01*
X016608Y022322D01*
X016668Y022466D01*
X016668Y022621D01*
X016608Y022764D01*
X016499Y022874D01*
X016355Y022933D01*
X016200Y022933D01*
X016057Y022874D01*
X015915Y022687D02*
X014449Y022687D01*
X014449Y022529D02*
X015888Y022529D01*
X015927Y022370D02*
X014449Y022370D01*
X014449Y022212D02*
X016060Y022212D01*
X016057Y022087D02*
X015947Y021977D01*
X015888Y021833D01*
X015888Y021678D01*
X015947Y021535D01*
X016057Y021425D01*
X016200Y021366D01*
X016355Y021366D01*
X016499Y021425D01*
X016608Y021535D01*
X016668Y021678D01*
X016668Y021833D01*
X016608Y021977D01*
X016499Y022087D01*
X016355Y022146D01*
X016200Y022146D01*
X016057Y022087D01*
X016023Y022053D02*
X014449Y022053D01*
X014449Y021895D02*
X015913Y021895D01*
X015888Y021736D02*
X014449Y021736D01*
X014449Y021621D02*
X014449Y031679D01*
X015022Y031880D02*
X013695Y031880D01*
X013309Y031880D02*
X012908Y031880D01*
X013083Y031722D02*
X013134Y031722D01*
X012522Y031880D02*
X011195Y031880D01*
X011371Y031722D02*
X012347Y031722D01*
X012290Y031563D02*
X011427Y031563D01*
X011573Y031405D02*
X012294Y031405D01*
X012269Y030929D02*
X010698Y030929D01*
X010540Y031088D02*
X010887Y031088D01*
X011117Y031088D02*
X011352Y031088D01*
X011015Y030612D02*
X012269Y030612D01*
X012269Y030454D02*
X011174Y030454D01*
X011351Y030295D02*
X012269Y030295D01*
X012269Y030137D02*
X011489Y030137D01*
X011489Y029978D02*
X012269Y029978D01*
X012269Y029820D02*
X011466Y029820D01*
X011307Y029661D02*
X012269Y029661D01*
X012269Y029503D02*
X012075Y029503D01*
X012149Y029344D02*
X012269Y029344D01*
X012269Y029186D02*
X012149Y029186D01*
X012149Y029027D02*
X012269Y029027D01*
X012269Y028869D02*
X012149Y028869D01*
X012149Y028710D02*
X012269Y028710D01*
X012269Y028552D02*
X012149Y028552D01*
X012149Y028393D02*
X012269Y028393D01*
X012269Y028235D02*
X012149Y028235D01*
X012149Y028076D02*
X012269Y028076D01*
X012269Y027918D02*
X012149Y027918D01*
X012149Y027759D02*
X012269Y027759D01*
X012269Y027601D02*
X012149Y027601D01*
X012149Y027442D02*
X012269Y027442D01*
X012269Y027284D02*
X012149Y027284D01*
X012149Y027125D02*
X012269Y027125D01*
X012269Y026967D02*
X012149Y026967D01*
X012149Y026808D02*
X012269Y026808D01*
X012269Y026650D02*
X012149Y026650D01*
X012149Y026491D02*
X012269Y026491D01*
X012269Y026333D02*
X012149Y026333D01*
X012149Y026174D02*
X012269Y026174D01*
X012269Y026016D02*
X012149Y026016D01*
X012149Y025857D02*
X012269Y025857D01*
X012269Y025699D02*
X012149Y025699D01*
X012149Y025540D02*
X012269Y025540D01*
X012269Y025382D02*
X012149Y025382D01*
X012149Y025223D02*
X012269Y025223D01*
X012269Y025065D02*
X012149Y025065D01*
X012149Y024906D02*
X012269Y024906D01*
X012269Y024748D02*
X012149Y024748D01*
X012149Y024589D02*
X012269Y024589D01*
X012269Y024431D02*
X012149Y024431D01*
X012149Y024272D02*
X012269Y024272D01*
X012269Y024114D02*
X012149Y024114D01*
X012149Y023955D02*
X012269Y023955D01*
X012269Y023797D02*
X012149Y023797D01*
X012149Y023638D02*
X012269Y023638D01*
X012269Y023480D02*
X012149Y023480D01*
X012149Y023321D02*
X012269Y023321D01*
X012269Y023163D02*
X012149Y023163D01*
X012149Y023004D02*
X012269Y023004D01*
X012149Y022846D02*
X012394Y022846D01*
X012553Y022687D02*
X012149Y022687D01*
X012149Y022529D02*
X012711Y022529D01*
X012870Y022370D02*
X012149Y022370D01*
X012149Y022212D02*
X013028Y022212D01*
X012989Y022053D02*
X012149Y022053D01*
X012149Y021895D02*
X013001Y021895D01*
X013046Y020785D02*
X013153Y020678D01*
X013293Y020620D01*
X013924Y020620D01*
X014064Y020678D01*
X014171Y020785D01*
X015932Y020785D01*
X015947Y020748D02*
X016057Y020638D01*
X016200Y020579D01*
X016355Y020579D01*
X016499Y020638D01*
X016608Y020748D01*
X016668Y020891D01*
X016668Y021046D01*
X016608Y021189D01*
X016499Y021299D01*
X016355Y021359D01*
X016200Y021359D01*
X016057Y021299D01*
X015947Y021189D01*
X015888Y021046D01*
X015888Y020891D01*
X015947Y020748D01*
X016084Y020627D02*
X013940Y020627D01*
X014171Y020785D02*
X014229Y020924D01*
X014229Y021076D01*
X014171Y021215D01*
X014107Y021279D01*
X014337Y021510D01*
X014449Y021621D01*
X014405Y021578D02*
X015930Y021578D01*
X016072Y021419D02*
X014246Y021419D01*
X014125Y021261D02*
X016018Y021261D01*
X015911Y021102D02*
X014218Y021102D01*
X014229Y020944D02*
X015888Y020944D01*
X016057Y020512D02*
X015947Y020402D01*
X015888Y020259D01*
X015888Y020104D01*
X015947Y019960D01*
X016057Y019850D01*
X016200Y019791D01*
X016355Y019791D01*
X016499Y019850D01*
X016608Y019960D01*
X016668Y020104D01*
X016668Y020259D01*
X016608Y020402D01*
X016499Y020512D01*
X016355Y020571D01*
X016200Y020571D01*
X016057Y020512D01*
X016013Y020468D02*
X013009Y020468D01*
X012851Y020627D02*
X013277Y020627D01*
X014076Y020310D02*
X015909Y020310D01*
X015888Y020151D02*
X014197Y020151D01*
X014229Y019993D02*
X015934Y019993D01*
X016097Y019834D02*
X014191Y019834D01*
X014058Y019676D02*
X016008Y019676D01*
X016459Y019834D02*
X017074Y019834D01*
X017232Y019993D02*
X016622Y019993D01*
X016668Y020151D02*
X017391Y020151D01*
X017549Y020310D02*
X016647Y020310D01*
X016542Y020468D02*
X017708Y020468D01*
X017866Y020627D02*
X016471Y020627D01*
X016624Y020785D02*
X018025Y020785D01*
X018183Y020944D02*
X016668Y020944D01*
X016645Y021102D02*
X018342Y021102D01*
X018500Y021261D02*
X016537Y021261D01*
X016484Y021419D02*
X017609Y021419D01*
X017472Y021578D02*
X016626Y021578D01*
X016668Y021736D02*
X017439Y021736D01*
X017477Y021895D02*
X016643Y021895D01*
X016532Y022053D02*
X017609Y022053D01*
X017609Y022212D02*
X016496Y022212D01*
X016628Y022370D02*
X017609Y022370D01*
X017609Y022529D02*
X016668Y022529D01*
X016640Y022687D02*
X017609Y022687D01*
X017609Y022846D02*
X016527Y022846D01*
X017989Y022846D02*
X024544Y022846D01*
X024577Y022687D02*
X017989Y022687D01*
X017989Y022529D02*
X024549Y022529D01*
X024589Y022370D02*
X017989Y022370D01*
X017989Y022212D02*
X024721Y022212D01*
X024685Y022053D02*
X017989Y022053D01*
X018120Y021895D02*
X024575Y021895D01*
X024549Y021736D02*
X018159Y021736D01*
X018125Y021578D02*
X024591Y021578D01*
X025194Y022053D02*
X025319Y022053D01*
X025304Y021895D02*
X025319Y021895D01*
X025319Y022212D02*
X025157Y022212D01*
X025290Y022370D02*
X025319Y022370D01*
X025699Y022370D02*
X025769Y022370D01*
X025769Y022212D02*
X025699Y022212D01*
X025699Y022053D02*
X025769Y022053D01*
X025769Y021895D02*
X025699Y021895D01*
X025699Y021736D02*
X025769Y021736D01*
X025769Y021578D02*
X025699Y021578D01*
X025699Y021419D02*
X025769Y021419D01*
X025769Y021261D02*
X025699Y021261D01*
X025699Y021102D02*
X025769Y021102D01*
X025769Y020944D02*
X025699Y020944D01*
X025699Y020785D02*
X025769Y020785D01*
X025769Y020627D02*
X025699Y020627D01*
X025699Y020468D02*
X025769Y020468D01*
X025769Y020310D02*
X025699Y020310D01*
X025699Y020151D02*
X025769Y020151D01*
X025769Y019993D02*
X025699Y019993D01*
X025699Y019834D02*
X025769Y019834D01*
X025769Y019676D02*
X025553Y019676D01*
X025394Y019517D02*
X025757Y019517D01*
X025598Y019359D02*
X025329Y019359D01*
X025281Y019200D02*
X025440Y019200D01*
X025281Y019042D02*
X025108Y019042D01*
X025120Y019834D02*
X025174Y019834D01*
X025283Y019993D02*
X025319Y019993D01*
X025308Y020310D02*
X025319Y020310D01*
X025319Y020468D02*
X025204Y020468D01*
X025154Y020627D02*
X025319Y020627D01*
X025319Y020785D02*
X025285Y020785D01*
X026599Y020785D02*
X027139Y020785D01*
X027139Y020627D02*
X026599Y020627D01*
X026599Y020468D02*
X027139Y020468D01*
X027139Y020310D02*
X026599Y020310D01*
X026599Y020151D02*
X027139Y020151D01*
X027139Y019993D02*
X026599Y019993D01*
X026599Y019834D02*
X027139Y019834D01*
X027139Y019676D02*
X026599Y019676D01*
X026599Y019517D02*
X027139Y019517D01*
X027139Y019359D02*
X026599Y019359D01*
X026599Y019200D02*
X027139Y019200D01*
X027139Y019042D02*
X026599Y019042D01*
X026599Y018883D02*
X027139Y018883D01*
X027139Y018725D02*
X026599Y018725D01*
X026599Y018566D02*
X027139Y018566D01*
X027139Y018408D02*
X026599Y018408D01*
X026599Y018249D02*
X027139Y018249D01*
X027139Y018091D02*
X026599Y018091D01*
X026599Y017932D02*
X027139Y017932D01*
X027139Y017774D02*
X026599Y017774D01*
X026599Y017615D02*
X027139Y017615D01*
X027139Y017457D02*
X026599Y017457D01*
X026599Y017298D02*
X027139Y017298D01*
X027139Y017140D02*
X026599Y017140D01*
X026599Y016981D02*
X027139Y016981D01*
X027139Y016823D02*
X026599Y016823D01*
X026591Y016664D02*
X027139Y016664D01*
X027139Y016506D02*
X026433Y016506D01*
X026274Y016347D02*
X027139Y016347D01*
X027139Y016189D02*
X026116Y016189D01*
X025957Y016030D02*
X027139Y016030D01*
X027139Y015872D02*
X025799Y015872D01*
X025640Y015713D02*
X027139Y015713D01*
X027139Y015555D02*
X025482Y015555D01*
X025329Y015396D02*
X027139Y015396D01*
X027139Y015238D02*
X025271Y015238D01*
X025047Y015079D02*
X027139Y015079D01*
X027139Y014921D02*
X018049Y014921D01*
X018049Y015079D02*
X024832Y015079D01*
X024608Y015238D02*
X018049Y015238D01*
X018049Y015265D02*
X018072Y015275D01*
X018174Y015376D01*
X018229Y015508D01*
X018229Y015652D01*
X018174Y015784D01*
X018072Y015885D01*
X017940Y015940D01*
X017797Y015940D01*
X017665Y015885D01*
X017563Y015784D01*
X017509Y015652D01*
X017509Y015508D01*
X017563Y015376D01*
X017665Y015275D01*
X017669Y015273D01*
X017669Y010190D01*
X009230Y010190D01*
X007880Y008840D01*
X007769Y008729D01*
X007769Y006771D01*
X007880Y006660D01*
X008223Y006660D01*
X008199Y006601D01*
X008199Y006399D01*
X008276Y006211D01*
X008420Y006068D01*
X008559Y006010D01*
X008407Y006010D01*
X008220Y005932D01*
X008076Y005789D01*
X007999Y005601D01*
X007999Y005399D01*
X008076Y005211D01*
X008220Y005068D01*
X008407Y004990D01*
X008559Y004990D01*
X008420Y004932D01*
X008276Y004789D01*
X008199Y004601D01*
X008199Y004399D01*
X008276Y004211D01*
X008420Y004068D01*
X008463Y004050D01*
X008380Y004036D01*
X008297Y004010D01*
X008220Y003970D01*
X008150Y003920D01*
X008089Y003858D01*
X008038Y003788D01*
X007999Y003711D01*
X007972Y003629D01*
X007959Y003543D01*
X007959Y003520D01*
X008489Y003520D01*
X008489Y003480D01*
X008529Y003480D01*
X008529Y003520D01*
X009059Y003520D01*
X009059Y003543D01*
X009045Y003629D01*
X009018Y003711D01*
X008979Y003788D01*
X008928Y003858D01*
X008867Y003920D01*
X008797Y003970D01*
X008758Y003990D01*
X008810Y003990D01*
X008997Y004068D01*
X009141Y004211D01*
X009219Y004399D01*
X009219Y004601D01*
X009141Y004789D01*
X008997Y004932D01*
X008810Y005010D01*
X008658Y005010D01*
X008797Y005068D01*
X008941Y005211D01*
X009019Y005399D01*
X009019Y005601D01*
X008941Y005789D01*
X008797Y005932D01*
X008658Y005990D01*
X008810Y005990D01*
X008997Y006068D01*
X009140Y006210D01*
X010019Y006210D01*
X010019Y004380D01*
X009951Y004380D01*
X009729Y004157D01*
X009729Y003843D01*
X009951Y003620D01*
X010266Y003620D01*
X010489Y003843D01*
X010489Y004157D01*
X010399Y004247D01*
X010399Y006479D01*
X010287Y006590D01*
X009219Y006590D01*
X009219Y006601D01*
X009141Y006789D01*
X009052Y006878D01*
X009049Y006887D01*
X009049Y006929D01*
X009020Y006957D01*
X009006Y006994D01*
X008967Y007010D01*
X008937Y007040D01*
X008898Y007040D01*
X008861Y007056D01*
X008822Y007040D01*
X008731Y007040D01*
X008797Y007068D01*
X008840Y007110D01*
X010919Y007110D01*
X010919Y004347D01*
X010729Y004157D01*
X010729Y003843D01*
X010951Y003620D01*
X011266Y003620D01*
X011489Y003843D01*
X011489Y004157D01*
X011299Y004347D01*
X011299Y007379D01*
X011187Y007490D01*
X009019Y007490D01*
X009019Y007601D01*
X009007Y007630D01*
X009049Y007671D01*
X010737Y009360D01*
X017330Y009360D01*
X018271Y008419D01*
X018229Y008316D01*
X018229Y007684D01*
X018286Y007545D01*
X018393Y007438D01*
X018533Y007380D01*
X018684Y007380D01*
X018824Y007438D01*
X018931Y007545D01*
X018989Y007684D01*
X018989Y008316D01*
X018931Y008455D01*
X018824Y008562D01*
X018684Y008620D01*
X018607Y008620D01*
X017487Y009740D01*
X010580Y009740D01*
X009205Y008365D01*
X009219Y008399D01*
X009219Y008601D01*
X009141Y008789D01*
X008997Y008932D01*
X008810Y009010D01*
X008607Y009010D01*
X008573Y008996D01*
X009387Y009810D01*
X017780Y009810D01*
X019242Y008348D01*
X019229Y008316D01*
X019229Y007684D01*
X019286Y007545D01*
X019393Y007438D01*
X019533Y007380D01*
X019684Y007380D01*
X019824Y007438D01*
X019931Y007545D01*
X019989Y007684D01*
X019989Y008316D01*
X019931Y008455D01*
X019926Y008460D01*
X020291Y008460D01*
X020286Y008455D01*
X020229Y008316D01*
X020229Y007684D01*
X020286Y007545D01*
X020393Y007438D01*
X020533Y007380D01*
X020684Y007380D01*
X020824Y007438D01*
X020931Y007545D01*
X020989Y007684D01*
X020989Y008316D01*
X020931Y008455D01*
X020926Y008460D01*
X020930Y008460D01*
X021229Y008161D01*
X021229Y007684D01*
X021286Y007545D01*
X021393Y007438D01*
X021533Y007380D01*
X021684Y007380D01*
X021824Y007438D01*
X021931Y007545D01*
X021989Y007684D01*
X021989Y008301D01*
X022177Y008113D01*
X022178Y008101D01*
X022229Y008061D01*
X022229Y007684D01*
X022286Y007545D01*
X022393Y007438D01*
X022533Y007380D01*
X022684Y007380D01*
X022824Y007438D01*
X022838Y007452D01*
X024630Y005660D01*
X024609Y005660D01*
X024609Y005000D01*
X024609Y004340D01*
X024642Y004340D01*
X024707Y004350D01*
X024770Y004371D01*
X024829Y004401D01*
X024869Y004430D01*
X024869Y002915D01*
X024855Y002901D01*
X024790Y002745D01*
X024790Y002575D01*
X024855Y002419D01*
X024974Y002300D01*
X023743Y002300D01*
X023863Y002419D01*
X023927Y002575D01*
X023927Y002745D01*
X023863Y002901D01*
X023743Y003020D01*
X023587Y003085D01*
X023418Y003085D01*
X023262Y003020D01*
X023142Y002901D01*
X023109Y002820D01*
X023075Y002901D01*
X022956Y003020D01*
X022799Y003085D01*
X022630Y003085D01*
X022474Y003020D01*
X022355Y002901D01*
X022290Y002745D01*
X022290Y002575D01*
X022355Y002419D01*
X022474Y002300D01*
X022630Y002235D01*
X022799Y002235D01*
X022846Y002254D01*
X023180Y001920D01*
X026937Y001920D01*
X027049Y002031D01*
X027049Y004229D01*
X026937Y004340D01*
X024799Y006479D01*
X024799Y007427D01*
X024824Y007438D01*
X024931Y007545D01*
X024989Y007684D01*
X024989Y008316D01*
X024931Y008455D01*
X024926Y008460D01*
X026487Y008460D01*
X026599Y008571D01*
X026599Y010979D01*
X026487Y011090D01*
X025922Y011656D01*
X026003Y011737D01*
X026074Y011908D01*
X026074Y012092D01*
X026003Y012263D01*
X025872Y012394D01*
X025701Y012465D01*
X025516Y012465D01*
X025345Y012394D01*
X025214Y012263D01*
X025144Y012092D01*
X025144Y011908D01*
X025214Y011737D01*
X025345Y011606D01*
X025497Y011543D01*
X025575Y011465D01*
X025516Y011465D01*
X025345Y011394D01*
X025214Y011263D01*
X025144Y011092D01*
X025144Y010908D01*
X025214Y010737D01*
X025345Y010606D01*
X025516Y010535D01*
X025701Y010535D01*
X025872Y010606D01*
X026003Y010737D01*
X026074Y010908D01*
X026074Y010966D01*
X026219Y010821D01*
X026219Y008840D01*
X021987Y008840D01*
X021537Y009290D01*
X020187Y009290D01*
X020117Y009360D01*
X024080Y009360D01*
X024419Y009021D01*
X024530Y008910D01*
X024687Y008910D01*
X025372Y009595D01*
X025516Y009535D01*
X025701Y009535D01*
X025872Y009606D01*
X026003Y009737D01*
X026074Y009908D01*
X026074Y010092D01*
X026003Y010263D01*
X025872Y010394D01*
X025701Y010465D01*
X025516Y010465D01*
X025345Y010394D01*
X025214Y010263D01*
X025144Y010092D01*
X025144Y009908D01*
X025145Y009905D01*
X025091Y009851D01*
X025101Y009882D01*
X025114Y009960D01*
X025114Y010000D01*
X025114Y010040D01*
X025101Y010118D01*
X025077Y010194D01*
X025040Y010265D01*
X024994Y010329D01*
X024938Y010385D01*
X024873Y010432D01*
X024802Y010468D01*
X024727Y010493D01*
X024680Y010500D01*
X024727Y010507D01*
X024802Y010532D01*
X024873Y010568D01*
X024938Y010615D01*
X024994Y010671D01*
X025040Y010735D01*
X025077Y010806D01*
X025101Y010882D01*
X025114Y010960D01*
X025114Y011000D01*
X025114Y011040D01*
X025101Y011118D01*
X025077Y011194D01*
X025040Y011265D01*
X024994Y011329D01*
X024938Y011385D01*
X024873Y011432D01*
X024802Y011468D01*
X024727Y011493D01*
X024680Y011500D01*
X024727Y011507D01*
X024802Y011532D01*
X024873Y011568D01*
X024938Y011615D01*
X024994Y011671D01*
X025040Y011735D01*
X025077Y011806D01*
X025101Y011882D01*
X025114Y011960D01*
X025114Y012000D01*
X025114Y012040D01*
X025101Y012118D01*
X025077Y012194D01*
X025040Y012265D01*
X024994Y012329D01*
X024938Y012385D01*
X024873Y012432D01*
X024802Y012468D01*
X024727Y012493D01*
X024680Y012500D01*
X024727Y012507D01*
X024802Y012532D01*
X024873Y012568D01*
X024938Y012615D01*
X024994Y012671D01*
X025040Y012735D01*
X025077Y012806D01*
X025101Y012882D01*
X025114Y012960D01*
X025114Y013000D01*
X025114Y013040D01*
X025101Y013118D01*
X025077Y013194D01*
X025040Y013265D01*
X024994Y013329D01*
X024938Y013385D01*
X024903Y013410D01*
X024980Y013410D01*
X025189Y013201D01*
X025144Y013092D01*
X025144Y012908D01*
X025214Y012737D01*
X025345Y012606D01*
X025516Y012535D01*
X025701Y012535D01*
X025872Y012606D01*
X026003Y012737D01*
X026074Y012908D01*
X026074Y013092D01*
X026003Y013263D01*
X025872Y013394D01*
X025701Y013465D01*
X025516Y013465D01*
X025478Y013449D01*
X025249Y013679D01*
X025137Y013790D01*
X020030Y013790D01*
X019620Y013380D01*
X019451Y013380D01*
X019411Y013340D01*
X018680Y013340D01*
X018569Y013229D01*
X018569Y009559D01*
X018049Y010079D01*
X018049Y015265D01*
X018182Y015396D02*
X024549Y015396D01*
X024558Y015555D02*
X018229Y015555D01*
X018203Y015713D02*
X024644Y015713D01*
X024820Y015872D02*
X018086Y015872D01*
X017651Y015872D02*
X016799Y015872D01*
X016957Y016030D02*
X024606Y016030D01*
X024549Y016189D02*
X017116Y016189D01*
X017274Y016347D02*
X024560Y016347D01*
X024649Y016506D02*
X017433Y016506D01*
X017212Y016823D02*
X016613Y016823D01*
X016668Y016981D02*
X017371Y016981D01*
X017529Y017140D02*
X016655Y017140D01*
X016563Y017298D02*
X017688Y017298D01*
X017054Y016664D02*
X016410Y016664D01*
X016568Y016506D02*
X016895Y016506D01*
X016737Y016347D02*
X016657Y016347D01*
X016640Y015713D02*
X017534Y015713D01*
X017509Y015555D02*
X016698Y015555D01*
X016708Y015457D02*
X016278Y015457D01*
X016278Y015457D01*
X016278Y015457D01*
X016278Y015027D01*
X016312Y015027D01*
X016379Y015037D01*
X016443Y015058D01*
X016503Y015089D01*
X016558Y015129D01*
X016606Y015177D01*
X016646Y015231D01*
X016676Y015292D01*
X016697Y015356D01*
X016708Y015423D01*
X016708Y015457D01*
X016704Y015396D02*
X017555Y015396D01*
X017669Y015238D02*
X016649Y015238D01*
X016484Y015079D02*
X017669Y015079D01*
X017669Y014921D02*
X014227Y014921D01*
X014227Y015079D02*
X016072Y015079D01*
X016052Y015089D02*
X016113Y015058D01*
X016177Y015037D01*
X016244Y015027D01*
X016278Y015027D01*
X016278Y015457D01*
X016278Y015457D01*
X015848Y015457D01*
X015848Y015423D01*
X015858Y015356D01*
X015879Y015292D01*
X015910Y015231D01*
X015950Y015177D01*
X015998Y015129D01*
X016052Y015089D01*
X015907Y015238D02*
X014365Y015238D01*
X014449Y015321D02*
X014449Y015321D01*
X014523Y015396D02*
X015852Y015396D01*
X015858Y015555D02*
X014682Y015555D01*
X014461Y015872D02*
X014207Y015872D01*
X014229Y015924D02*
X014229Y016076D01*
X014171Y016215D01*
X014064Y016322D01*
X013924Y016380D01*
X013293Y016380D01*
X013153Y016322D01*
X013046Y016215D01*
X012989Y016076D01*
X012989Y015924D01*
X013046Y015785D01*
X013153Y015678D01*
X013293Y015620D01*
X013924Y015620D01*
X014064Y015678D01*
X014171Y015785D01*
X014229Y015924D01*
X014229Y016030D02*
X014620Y016030D01*
X014303Y015713D02*
X014099Y015713D01*
X014182Y016189D02*
X015888Y016189D01*
X015898Y016347D02*
X014004Y016347D01*
X013924Y016620D02*
X014064Y016678D01*
X014171Y016785D01*
X014229Y016924D01*
X014229Y017076D01*
X014171Y017215D01*
X014064Y017322D01*
X013924Y017380D01*
X013293Y017380D01*
X013153Y017322D01*
X013046Y017215D01*
X012989Y017076D01*
X012989Y016924D01*
X013046Y016785D01*
X013153Y016678D01*
X013293Y016620D01*
X013924Y016620D01*
X014030Y016664D02*
X016146Y016664D01*
X015988Y016506D02*
X007897Y016506D01*
X007899Y016509D02*
X007821Y016321D01*
X007677Y016178D01*
X007490Y016100D01*
X007287Y016100D01*
X007100Y016178D01*
X006956Y016321D01*
X006879Y016509D01*
X006879Y016711D01*
X006956Y016899D01*
X007100Y017042D01*
X007287Y017120D01*
X007490Y017120D01*
X007677Y017042D01*
X007821Y016899D01*
X007899Y016711D01*
X007899Y016509D01*
X007899Y016664D02*
X010116Y016664D01*
X010095Y016680D02*
X010148Y016641D01*
X010207Y016611D01*
X010270Y016590D01*
X010336Y016580D01*
X010609Y016580D01*
X010882Y016580D01*
X010947Y016590D01*
X011010Y016611D01*
X011069Y016641D01*
X011122Y016680D01*
X011169Y016726D01*
X011208Y016780D01*
X011238Y016839D01*
X011258Y016902D01*
X011269Y016967D01*
X011269Y017000D01*
X011269Y017033D01*
X011258Y017098D01*
X011238Y017161D01*
X011208Y017220D01*
X011169Y017274D01*
X011122Y017320D01*
X011069Y017359D01*
X011010Y017389D01*
X010947Y017410D01*
X010882Y017420D01*
X010609Y017420D01*
X010609Y017000D01*
X011269Y017000D01*
X010609Y017000D01*
X010609Y017000D01*
X010609Y016580D01*
X010609Y017000D01*
X010609Y017000D01*
X010609Y017000D01*
X010609Y017420D01*
X010336Y017420D01*
X010270Y017410D01*
X010207Y017389D01*
X010148Y017359D01*
X010095Y017320D01*
X010048Y017274D01*
X010009Y017220D01*
X009979Y017161D01*
X009959Y017098D01*
X009949Y017033D01*
X009949Y017000D01*
X009949Y016967D01*
X009959Y016902D01*
X009979Y016839D01*
X010009Y016780D01*
X010048Y016726D01*
X010095Y016680D01*
X009988Y016823D02*
X007853Y016823D01*
X007739Y016981D02*
X009949Y016981D01*
X009949Y017000D02*
X010609Y017000D01*
X010609Y017000D01*
X009949Y017000D01*
X009972Y017140D02*
X006799Y017140D01*
X006799Y017298D02*
X010073Y017298D01*
X010058Y017774D02*
X006799Y017774D01*
X006799Y017932D02*
X007162Y017932D01*
X006967Y018091D02*
X006799Y018091D01*
X006817Y018249D02*
X006895Y018249D01*
X006419Y018239D02*
X006419Y015590D01*
X002980Y015590D01*
X002844Y015454D01*
X002734Y015500D01*
X002897Y015568D01*
X003041Y015711D01*
X003119Y015899D01*
X003119Y016101D01*
X003115Y016110D01*
X003587Y016110D01*
X003699Y016221D01*
X003699Y017589D01*
X004319Y018447D01*
X004319Y018289D01*
X004396Y018101D01*
X004540Y017958D01*
X004727Y017880D01*
X004930Y017880D01*
X005117Y017958D01*
X005261Y018101D01*
X005339Y018289D01*
X005339Y018491D01*
X005261Y018679D01*
X005234Y018706D01*
X005337Y018810D01*
X006359Y018810D01*
X006303Y018754D01*
X006249Y018622D01*
X006249Y018478D01*
X006303Y018346D01*
X006405Y018245D01*
X006419Y018239D01*
X006400Y018249D02*
X005322Y018249D01*
X005339Y018408D02*
X006278Y018408D01*
X006249Y018566D02*
X005308Y018566D01*
X005252Y018725D02*
X006291Y018725D01*
X006419Y018091D02*
X005250Y018091D01*
X005056Y017932D02*
X006419Y017932D01*
X006419Y017774D02*
X003832Y017774D01*
X003947Y017932D02*
X004602Y017932D01*
X004407Y018091D02*
X004061Y018091D01*
X004176Y018249D02*
X004335Y018249D01*
X004319Y018408D02*
X004290Y018408D01*
X003936Y018566D02*
X002947Y018566D01*
X002922Y018408D02*
X003821Y018408D01*
X003707Y018249D02*
X003057Y018249D01*
X003119Y018091D02*
X003592Y018091D01*
X003478Y017932D02*
X003119Y017932D01*
X003067Y017774D02*
X003363Y017774D01*
X003319Y017615D02*
X002945Y017615D01*
X002839Y017457D02*
X003319Y017457D01*
X003319Y017298D02*
X003032Y017298D01*
X003103Y017140D02*
X003319Y017140D01*
X003319Y016981D02*
X003119Y016981D01*
X003087Y016823D02*
X003319Y016823D01*
X003319Y016664D02*
X002994Y016664D01*
X002747Y016506D02*
X003319Y016506D01*
X003699Y016506D02*
X004288Y016506D01*
X004292Y016481D02*
X004319Y016399D01*
X004358Y016322D01*
X004409Y016252D01*
X004470Y016190D01*
X004540Y016140D01*
X004617Y016100D01*
X004700Y016074D01*
X004785Y016060D01*
X004809Y016060D01*
X004809Y016590D01*
X004849Y016590D01*
X004849Y016630D01*
X005379Y016630D01*
X005379Y016653D01*
X005365Y016739D01*
X005338Y016821D01*
X005299Y016898D01*
X005248Y016968D01*
X005187Y017030D01*
X005117Y017080D01*
X005040Y017120D01*
X004957Y017146D01*
X004872Y017160D01*
X004849Y017160D01*
X004849Y016630D01*
X004809Y016630D01*
X004809Y017160D01*
X004785Y017160D01*
X004700Y017146D01*
X004617Y017120D01*
X004540Y017080D01*
X004470Y017030D01*
X004409Y016968D01*
X004358Y016898D01*
X004319Y016821D01*
X004292Y016739D01*
X004279Y016653D01*
X004279Y016630D01*
X004809Y016630D01*
X004809Y016590D01*
X004279Y016590D01*
X004279Y016567D01*
X004292Y016481D01*
X004345Y016347D02*
X003699Y016347D01*
X003666Y016189D02*
X004473Y016189D01*
X004809Y016189D02*
X004849Y016189D01*
X004849Y016060D02*
X004872Y016060D01*
X004957Y016074D01*
X005040Y016100D01*
X005117Y016140D01*
X005187Y016190D01*
X005248Y016252D01*
X005299Y016322D01*
X005338Y016399D01*
X005365Y016481D01*
X005379Y016567D01*
X005379Y016590D01*
X004849Y016590D01*
X004849Y016060D01*
X004849Y016347D02*
X004809Y016347D01*
X004809Y016506D02*
X004849Y016506D01*
X004849Y016664D02*
X004809Y016664D01*
X004809Y016823D02*
X004849Y016823D01*
X004849Y016981D02*
X004809Y016981D01*
X004809Y017140D02*
X004849Y017140D01*
X004979Y017140D02*
X006419Y017140D01*
X006419Y017298D02*
X003699Y017298D01*
X003699Y017140D02*
X004678Y017140D01*
X004422Y016981D02*
X003699Y016981D01*
X003699Y016823D02*
X004320Y016823D01*
X004280Y016664D02*
X003699Y016664D01*
X003119Y016030D02*
X006419Y016030D01*
X006419Y015872D02*
X003107Y015872D01*
X003042Y015713D02*
X006419Y015713D01*
X006799Y015713D02*
X008284Y015713D01*
X008229Y015555D02*
X006799Y015555D01*
X006799Y015396D02*
X008229Y015396D01*
X008334Y015238D02*
X006715Y015238D01*
X006799Y015872D02*
X008443Y015872D01*
X008774Y015872D02*
X009161Y015872D01*
X009320Y016030D02*
X006799Y016030D01*
X006799Y016189D02*
X007089Y016189D01*
X006945Y016347D02*
X006799Y016347D01*
X006799Y016506D02*
X006880Y016506D01*
X006879Y016664D02*
X006799Y016664D01*
X006799Y016823D02*
X006925Y016823D01*
X007038Y016981D02*
X006799Y016981D01*
X006419Y016981D02*
X005235Y016981D01*
X005338Y016823D02*
X006419Y016823D01*
X006419Y016664D02*
X005377Y016664D01*
X005369Y016506D02*
X006419Y016506D01*
X006419Y016347D02*
X005312Y016347D01*
X005184Y016189D02*
X006419Y016189D01*
X006419Y017457D02*
X003699Y017457D01*
X003718Y017615D02*
X006419Y017615D01*
X007616Y017932D02*
X009989Y017932D01*
X009995Y018091D02*
X007810Y018091D01*
X007882Y018249D02*
X010080Y018249D01*
X010107Y018725D02*
X007775Y018725D01*
X008110Y018883D02*
X010006Y018883D01*
X009989Y019042D02*
X008269Y019042D01*
X008846Y019200D02*
X010040Y019200D01*
X010609Y017298D02*
X010609Y017298D01*
X010609Y017140D02*
X010609Y017140D01*
X010609Y016981D02*
X010609Y016981D01*
X010609Y016823D02*
X010609Y016823D01*
X010609Y016664D02*
X010609Y016664D01*
X011004Y016347D02*
X013213Y016347D01*
X013035Y016189D02*
X011182Y016189D01*
X011229Y016030D02*
X012989Y016030D01*
X013010Y015872D02*
X011207Y015872D01*
X011099Y015713D02*
X013118Y015713D01*
X012990Y015079D02*
X011227Y015079D01*
X011227Y014921D02*
X012990Y014921D01*
X013069Y014762D02*
X011148Y014762D01*
X010924Y014380D02*
X011064Y014322D01*
X011171Y014215D01*
X011229Y014076D01*
X011229Y013924D01*
X011171Y013785D01*
X011064Y013678D01*
X010924Y013620D01*
X010293Y013620D01*
X010153Y013678D01*
X010046Y013785D01*
X009989Y013924D01*
X009989Y014076D01*
X010046Y014215D01*
X010153Y014322D01*
X010293Y014380D01*
X010924Y014380D01*
X011099Y014287D02*
X013118Y014287D01*
X013153Y014322D02*
X013046Y014215D01*
X012989Y014076D01*
X012989Y013924D01*
X013046Y013785D01*
X013153Y013678D01*
X013293Y013620D01*
X013924Y013620D01*
X014064Y013678D01*
X014171Y013785D01*
X014229Y013924D01*
X014229Y014076D01*
X014171Y014215D01*
X014064Y014322D01*
X013924Y014380D01*
X013293Y014380D01*
X013153Y014322D01*
X013010Y014128D02*
X011207Y014128D01*
X011229Y013970D02*
X012989Y013970D01*
X013036Y013811D02*
X011182Y013811D01*
X011003Y013653D02*
X013214Y013653D01*
X013293Y013380D02*
X013153Y013322D01*
X013046Y013215D01*
X012989Y013076D01*
X012989Y012924D01*
X013046Y012785D01*
X013153Y012678D01*
X013293Y012620D01*
X013924Y012620D01*
X014064Y012678D01*
X014171Y012785D01*
X014229Y012924D01*
X014229Y013076D01*
X014171Y013215D01*
X014064Y013322D01*
X013924Y013380D01*
X013293Y013380D01*
X013186Y013336D02*
X011032Y013336D01*
X011064Y013322D02*
X010924Y013380D01*
X010293Y013380D01*
X010153Y013322D01*
X010046Y013215D01*
X009989Y013076D01*
X009989Y012924D01*
X010046Y012785D01*
X010153Y012678D01*
X010293Y012620D01*
X010924Y012620D01*
X011064Y012678D01*
X011171Y012785D01*
X011229Y012924D01*
X011229Y013076D01*
X011171Y013215D01*
X011064Y013322D01*
X011187Y013177D02*
X013031Y013177D01*
X012989Y013019D02*
X011229Y013019D01*
X011202Y012860D02*
X013015Y012860D01*
X013130Y012702D02*
X011087Y012702D01*
X010924Y012380D02*
X011064Y012322D01*
X011171Y012215D01*
X011229Y012076D01*
X011229Y011924D01*
X011171Y011785D01*
X011064Y011678D01*
X010924Y011620D01*
X010293Y011620D01*
X010153Y011678D01*
X010046Y011785D01*
X009989Y011924D01*
X009989Y012076D01*
X010046Y012215D01*
X010153Y012322D01*
X010293Y012380D01*
X010924Y012380D01*
X011160Y012226D02*
X013057Y012226D01*
X013046Y012215D02*
X012989Y012076D01*
X012989Y011924D01*
X013046Y011785D01*
X013153Y011678D01*
X013293Y011620D01*
X013924Y011620D01*
X014064Y011678D01*
X014171Y011785D01*
X014229Y011924D01*
X014229Y012076D01*
X014171Y012215D01*
X014064Y012322D01*
X013924Y012380D01*
X013293Y012380D01*
X013153Y012322D01*
X013046Y012215D01*
X012989Y012068D02*
X011229Y012068D01*
X011222Y011909D02*
X012995Y011909D01*
X013081Y011751D02*
X011136Y011751D01*
X010924Y011380D02*
X011064Y011322D01*
X011171Y011215D01*
X011229Y011076D01*
X011229Y010924D01*
X011171Y010785D01*
X011064Y010678D01*
X010924Y010620D01*
X010293Y010620D01*
X010153Y010678D01*
X010046Y010785D01*
X009989Y010924D01*
X009989Y011076D01*
X010046Y011215D01*
X010153Y011322D01*
X010293Y011380D01*
X010924Y011380D01*
X011111Y011275D02*
X013106Y011275D01*
X013153Y011322D02*
X013046Y011215D01*
X012989Y011076D01*
X012989Y010924D01*
X013046Y010785D01*
X013153Y010678D01*
X013293Y010620D01*
X013924Y010620D01*
X014064Y010678D01*
X014171Y010785D01*
X014229Y010924D01*
X014229Y011076D01*
X014171Y011215D01*
X014064Y011322D01*
X013924Y011380D01*
X013293Y011380D01*
X013153Y011322D01*
X013006Y011117D02*
X011212Y011117D01*
X011229Y010958D02*
X012989Y010958D01*
X013040Y010800D02*
X011177Y010800D01*
X010975Y010641D02*
X013242Y010641D01*
X013975Y010641D02*
X017669Y010641D01*
X017669Y010483D02*
X001589Y010483D01*
X001589Y010641D02*
X006178Y010641D01*
X006055Y010800D02*
X001589Y010800D01*
X001589Y010958D02*
X006029Y010958D01*
X006029Y011117D02*
X001589Y011117D01*
X001589Y011275D02*
X006029Y011275D01*
X006043Y011434D02*
X001589Y011434D01*
X001589Y011592D02*
X006150Y011592D01*
X006179Y011751D02*
X001589Y011751D01*
X001589Y011909D02*
X006179Y011909D01*
X006179Y012068D02*
X001589Y012068D01*
X001589Y012226D02*
X006179Y012226D01*
X006179Y012385D02*
X001589Y012385D01*
X001589Y012543D02*
X006179Y012543D01*
X006179Y012702D02*
X001589Y012702D01*
X001589Y012860D02*
X006179Y012860D01*
X006238Y013019D02*
X001589Y013019D01*
X001589Y013177D02*
X006397Y013177D01*
X006555Y013336D02*
X001589Y013336D01*
X001589Y013494D02*
X002497Y013494D01*
X002720Y013494D02*
X006714Y013494D01*
X006934Y013177D02*
X007341Y013177D01*
X007233Y013019D02*
X006776Y013019D01*
X007194Y012860D02*
X007194Y012820D01*
X007194Y012780D01*
X007206Y012702D01*
X007194Y012820D02*
X007699Y012820D01*
X008204Y012820D01*
X007699Y012820D01*
X007699Y012820D01*
X007699Y012315D01*
X007699Y012820D01*
X007699Y012820D01*
X007699Y012820D01*
X007194Y012820D01*
X007276Y012543D02*
X006559Y012543D01*
X006559Y012385D02*
X007441Y012385D01*
X007699Y012385D02*
X007699Y012385D01*
X007699Y012543D02*
X007699Y012543D01*
X007699Y012702D02*
X007699Y012702D01*
X007956Y012385D02*
X008179Y012385D01*
X008179Y012543D02*
X008122Y012543D01*
X008191Y012702D02*
X008244Y012702D01*
X008277Y013019D02*
X008164Y013019D01*
X008056Y013177D02*
X008398Y013177D01*
X008193Y013336D02*
X008965Y013336D01*
X009124Y013494D02*
X008351Y013494D01*
X008510Y013653D02*
X008520Y013653D01*
X008131Y013811D02*
X008100Y013811D01*
X008170Y013970D02*
X008225Y013970D01*
X008214Y014128D02*
X008184Y014128D01*
X008145Y014287D02*
X008257Y014287D01*
X008376Y014445D02*
X008038Y014445D01*
X007679Y014445D02*
X007679Y014445D01*
X007679Y014287D02*
X007679Y014287D01*
X007679Y014128D02*
X007679Y014128D01*
X007679Y014090D02*
X007679Y014090D01*
X007174Y014090D01*
X007679Y014090D01*
X007319Y014445D02*
X005749Y014445D01*
X005980Y014287D02*
X007212Y014287D01*
X007174Y014128D02*
X006059Y014128D01*
X006074Y013970D02*
X007187Y013970D01*
X007257Y013811D02*
X006034Y013811D01*
X005919Y013653D02*
X007425Y013653D01*
X007932Y013653D02*
X007972Y013653D01*
X008837Y013653D02*
X009219Y013653D01*
X009219Y013811D02*
X009057Y013811D01*
X009132Y013970D02*
X009219Y013970D01*
X009219Y014128D02*
X009144Y014128D01*
X009134Y014287D02*
X009219Y014287D01*
X009599Y014287D02*
X010118Y014287D01*
X010010Y014128D02*
X009599Y014128D01*
X009599Y013970D02*
X009989Y013970D01*
X010036Y013811D02*
X009599Y013811D01*
X009599Y013653D02*
X010214Y013653D01*
X010186Y013336D02*
X009503Y013336D01*
X009599Y013494D02*
X017669Y013494D01*
X017669Y013336D02*
X014032Y013336D01*
X014187Y013177D02*
X017669Y013177D01*
X017669Y013019D02*
X016660Y013019D01*
X016554Y013125D02*
X016349Y013125D01*
X016349Y012630D01*
X016844Y012630D01*
X016844Y012835D01*
X016554Y013125D01*
X016349Y013125D02*
X016349Y012630D01*
X016349Y012630D01*
X016844Y012630D01*
X016844Y012425D01*
X016554Y012135D01*
X016349Y012135D01*
X016349Y012630D01*
X016349Y012630D01*
X016349Y012630D01*
X016349Y012135D01*
X016144Y012135D01*
X015854Y012425D01*
X015854Y012630D01*
X016349Y012630D01*
X016349Y012630D01*
X015854Y012630D01*
X015854Y012835D01*
X016144Y013125D01*
X016349Y013125D01*
X016349Y013019D02*
X016349Y013019D01*
X016349Y012860D02*
X016349Y012860D01*
X016349Y012702D02*
X016349Y012702D01*
X016349Y012543D02*
X016349Y012543D01*
X016349Y012385D02*
X016349Y012385D01*
X016349Y012226D02*
X016349Y012226D01*
X016439Y012085D02*
X016258Y012085D01*
X016091Y012016D01*
X015963Y011888D01*
X015894Y011721D01*
X015894Y011539D01*
X015963Y011372D01*
X016091Y011244D01*
X016258Y011175D01*
X016439Y011175D01*
X016606Y011244D01*
X016734Y011372D01*
X016804Y011539D01*
X016804Y011721D01*
X016734Y011888D01*
X016606Y012016D01*
X016439Y012085D01*
X016481Y012068D02*
X017669Y012068D01*
X017669Y012226D02*
X016645Y012226D01*
X016803Y012385D02*
X017669Y012385D01*
X017669Y012543D02*
X016844Y012543D01*
X016844Y012702D02*
X017669Y012702D01*
X017669Y012860D02*
X016819Y012860D01*
X016037Y013019D02*
X014229Y013019D01*
X014202Y012860D02*
X015879Y012860D01*
X015854Y012702D02*
X014087Y012702D01*
X014160Y012226D02*
X016053Y012226D01*
X015894Y012385D02*
X008862Y012385D01*
X009079Y012543D02*
X015854Y012543D01*
X016216Y012068D02*
X014229Y012068D01*
X014222Y011909D02*
X015984Y011909D01*
X015906Y011751D02*
X014136Y011751D01*
X014111Y011275D02*
X016060Y011275D01*
X015937Y011434D02*
X008694Y011434D01*
X008709Y011275D02*
X010106Y011275D01*
X010006Y011117D02*
X008709Y011117D01*
X008709Y010958D02*
X009989Y010958D01*
X010040Y010800D02*
X008683Y010800D01*
X008559Y010641D02*
X010242Y010641D01*
X010530Y009690D02*
X009267Y009690D01*
X009109Y009532D02*
X010371Y009532D01*
X010213Y009373D02*
X008950Y009373D01*
X008792Y009215D02*
X010054Y009215D01*
X009896Y009056D02*
X008633Y009056D01*
X008413Y009373D02*
X001589Y009373D01*
X001589Y009215D02*
X008254Y009215D01*
X008096Y009056D02*
X001589Y009056D01*
X001589Y008898D02*
X007937Y008898D01*
X007779Y008739D02*
X001589Y008739D01*
X001589Y008581D02*
X007769Y008581D01*
X007769Y008422D02*
X001589Y008422D01*
X001589Y008264D02*
X007769Y008264D01*
X007769Y008105D02*
X001589Y008105D01*
X001589Y007947D02*
X007769Y007947D01*
X007769Y007788D02*
X001589Y007788D01*
X001589Y007630D02*
X007769Y007630D01*
X007769Y007471D02*
X001589Y007471D01*
X001589Y007313D02*
X007769Y007313D01*
X007769Y007154D02*
X001589Y007154D01*
X001589Y006996D02*
X007769Y006996D01*
X007769Y006837D02*
X001589Y006837D01*
X001589Y006679D02*
X007861Y006679D01*
X008199Y006520D02*
X001589Y006520D01*
X001589Y006362D02*
X008214Y006362D01*
X008284Y006203D02*
X001589Y006203D01*
X001589Y006045D02*
X008476Y006045D01*
X008173Y005886D02*
X001589Y005886D01*
X001589Y005728D02*
X008051Y005728D01*
X007999Y005569D02*
X001589Y005569D01*
X001589Y005411D02*
X007999Y005411D01*
X008059Y005252D02*
X001589Y005252D01*
X001589Y005094D02*
X008194Y005094D01*
X008426Y004935D02*
X001589Y004935D01*
X001589Y004777D02*
X008271Y004777D01*
X008205Y004618D02*
X001589Y004618D01*
X001589Y004460D02*
X008199Y004460D01*
X008239Y004301D02*
X001589Y004301D01*
X001589Y004143D02*
X008345Y004143D01*
X008247Y003984D02*
X001589Y003984D01*
X001589Y003826D02*
X008065Y003826D01*
X007985Y003667D02*
X001589Y003667D01*
X001589Y003509D02*
X008489Y003509D01*
X008489Y003480D02*
X007959Y003480D01*
X007959Y003457D01*
X007972Y003371D01*
X007999Y003289D01*
X008038Y003212D01*
X008089Y003142D01*
X008150Y003080D01*
X008220Y003030D01*
X008297Y002990D01*
X008380Y002964D01*
X008465Y002950D01*
X008489Y002950D01*
X008489Y003480D01*
X008529Y003480D02*
X008529Y002950D01*
X008552Y002950D01*
X008637Y002964D01*
X008720Y002990D01*
X008797Y003030D01*
X008867Y003080D01*
X008928Y003142D01*
X008979Y003212D01*
X009018Y003289D01*
X009045Y003371D01*
X009059Y003457D01*
X009059Y003480D01*
X008529Y003480D01*
X008529Y003509D02*
X016567Y003509D01*
X016400Y003667D02*
X011313Y003667D01*
X011471Y003826D02*
X016232Y003826D01*
X016064Y003984D02*
X011489Y003984D01*
X011489Y004143D02*
X015896Y004143D01*
X015728Y004301D02*
X011345Y004301D01*
X011299Y004460D02*
X015560Y004460D01*
X015392Y004618D02*
X011299Y004618D01*
X011299Y004777D02*
X015225Y004777D01*
X015057Y004935D02*
X011299Y004935D01*
X011299Y005094D02*
X014889Y005094D01*
X014721Y005252D02*
X011299Y005252D01*
X011299Y005411D02*
X014553Y005411D01*
X014385Y005569D02*
X011299Y005569D01*
X011299Y005728D02*
X014217Y005728D01*
X014183Y005760D02*
X016759Y003327D01*
X016769Y002109D01*
X016769Y002031D01*
X016769Y002030D01*
X016825Y001975D01*
X016880Y001920D01*
X016881Y001920D01*
X016881Y001919D01*
X016959Y001920D01*
X019737Y001920D01*
X020075Y002258D01*
X020130Y002235D01*
X020299Y002235D01*
X020456Y002300D01*
X020575Y002419D01*
X020609Y002500D01*
X020642Y002419D01*
X020762Y002300D01*
X020918Y002235D01*
X021087Y002235D01*
X021243Y002300D01*
X021363Y002419D01*
X021427Y002575D01*
X021427Y002638D01*
X023791Y004424D01*
X023794Y004426D01*
X023831Y004435D01*
X023846Y004460D01*
X024315Y004460D01*
X024335Y004440D02*
X024388Y004401D01*
X024447Y004371D01*
X024510Y004350D01*
X024576Y004340D01*
X024609Y004340D01*
X024609Y005000D01*
X024609Y005000D01*
X024609Y005000D01*
X024609Y005660D01*
X024576Y005660D01*
X024510Y005650D01*
X024447Y005629D01*
X024388Y005599D01*
X024335Y005560D01*
X024288Y005514D01*
X024249Y005460D01*
X024219Y005401D01*
X024199Y005338D01*
X024189Y005273D01*
X024189Y005000D01*
X024189Y004727D01*
X024199Y004662D01*
X024219Y004599D01*
X024249Y004540D01*
X024288Y004486D01*
X024335Y004440D01*
X024213Y004618D02*
X023961Y004618D01*
X023989Y004684D02*
X023989Y005316D01*
X023931Y005455D01*
X023824Y005562D01*
X023684Y005620D01*
X023533Y005620D01*
X023393Y005562D01*
X023286Y005455D01*
X023229Y005316D01*
X023229Y004684D01*
X023286Y004545D01*
X023301Y004530D01*
X021269Y002995D01*
X021243Y003020D01*
X021107Y003076D01*
X022909Y004438D01*
X022964Y004465D01*
X022970Y004484D01*
X022986Y004496D01*
X022994Y004556D01*
X023014Y004615D01*
X023005Y004632D01*
X023008Y004652D01*
X022987Y004680D01*
X022989Y004684D01*
X022989Y005316D01*
X022931Y005455D01*
X022824Y005562D01*
X022684Y005620D01*
X022533Y005620D01*
X022393Y005562D01*
X022286Y005455D01*
X022229Y005316D01*
X022229Y004684D01*
X022286Y004545D01*
X022344Y004487D01*
X020421Y003034D01*
X020299Y003085D01*
X020130Y003085D01*
X019974Y003020D01*
X019855Y002901D01*
X019790Y002745D01*
X019790Y002575D01*
X019809Y002529D01*
X019580Y002300D01*
X018743Y002300D01*
X018805Y002362D01*
X018810Y002361D01*
X018855Y002395D01*
X018907Y002418D01*
X018916Y002441D01*
X021500Y004393D01*
X021533Y004380D01*
X021684Y004380D01*
X021824Y004438D01*
X021931Y004545D01*
X021989Y004684D01*
X021989Y005316D01*
X021931Y005455D01*
X021824Y005562D01*
X021684Y005620D01*
X021533Y005620D01*
X021393Y005562D01*
X021304Y005473D01*
X020637Y006140D01*
X017149Y006140D01*
X017149Y008279D01*
X017037Y008390D01*
X016137Y009290D01*
X015080Y009290D01*
X014969Y009179D01*
X014739Y008949D01*
X014701Y008965D01*
X014516Y008965D01*
X014345Y008894D01*
X014214Y008763D01*
X014144Y008592D01*
X014144Y008408D01*
X014214Y008237D01*
X014345Y008106D01*
X014516Y008035D01*
X014701Y008035D01*
X014872Y008106D01*
X015003Y008237D01*
X015074Y008408D01*
X015074Y008592D01*
X015029Y008701D01*
X015237Y008910D01*
X015383Y008910D01*
X015345Y008894D01*
X015214Y008763D01*
X015144Y008592D01*
X015144Y008408D01*
X015214Y008237D01*
X015345Y008106D01*
X015497Y008043D01*
X015530Y008010D01*
X016319Y008010D01*
X016319Y007379D01*
X015793Y006853D01*
X015766Y006880D01*
X015451Y006880D01*
X015229Y006657D01*
X015229Y006343D01*
X015431Y006140D01*
X015237Y006140D01*
X014989Y006389D01*
X014989Y006657D01*
X014766Y006880D01*
X014451Y006880D01*
X014229Y006657D01*
X014229Y006343D01*
X014451Y006120D01*
X014720Y006120D01*
X015080Y005760D01*
X020480Y005760D01*
X020620Y005620D01*
X020533Y005620D01*
X020393Y005562D01*
X020286Y005455D01*
X020229Y005316D01*
X020229Y004684D01*
X020251Y004630D01*
X018703Y003650D01*
X018230Y003650D01*
X017780Y003200D01*
X017669Y003089D01*
X017669Y003085D01*
X017630Y003085D01*
X017474Y003020D01*
X017355Y002901D01*
X017290Y002745D01*
X017290Y002575D01*
X017355Y002419D01*
X017474Y002300D01*
X017147Y002300D01*
X017139Y003335D01*
X017141Y003337D01*
X017139Y003413D01*
X017138Y003490D01*
X017136Y003492D01*
X017136Y003494D01*
X017080Y003547D01*
X017026Y003601D01*
X017023Y003601D01*
X014391Y006086D01*
X014337Y006140D01*
X013989Y006489D01*
X013989Y006657D01*
X013766Y006880D01*
X013451Y006880D01*
X013229Y006657D01*
X013229Y006343D01*
X013431Y006140D01*
X012786Y006140D01*
X012989Y006343D01*
X012989Y006657D01*
X012766Y006880D01*
X012649Y006880D01*
X012649Y006929D01*
X012582Y006995D01*
X012609Y006995D01*
X012648Y006995D01*
X012727Y007007D01*
X012802Y007032D01*
X012873Y007068D01*
X012938Y007115D01*
X012994Y007171D01*
X013040Y007235D01*
X013077Y007306D01*
X013101Y007382D01*
X013109Y007429D01*
X013116Y007382D01*
X013141Y007306D01*
X013177Y007235D01*
X013223Y007171D01*
X013280Y007115D01*
X013344Y007068D01*
X013415Y007032D01*
X013490Y007007D01*
X013569Y006995D01*
X013609Y006995D01*
X013648Y006995D01*
X013727Y007007D01*
X013802Y007032D01*
X013873Y007068D01*
X013938Y007115D01*
X013994Y007171D01*
X014040Y007235D01*
X014077Y007306D01*
X014101Y007382D01*
X014109Y007429D01*
X014116Y007382D01*
X014141Y007306D01*
X014177Y007235D01*
X014223Y007171D01*
X014280Y007115D01*
X014344Y007068D01*
X014415Y007032D01*
X014490Y007007D01*
X014569Y006995D01*
X014609Y006995D01*
X014648Y006995D01*
X014727Y007007D01*
X014802Y007032D01*
X014873Y007068D01*
X014938Y007115D01*
X014994Y007171D01*
X015040Y007235D01*
X015077Y007306D01*
X015101Y007382D01*
X015109Y007429D01*
X015116Y007382D01*
X015141Y007306D01*
X015177Y007235D01*
X015223Y007171D01*
X015280Y007115D01*
X015344Y007068D01*
X015415Y007032D01*
X015490Y007007D01*
X015569Y006995D01*
X015609Y006995D01*
X015648Y006995D01*
X015727Y007007D01*
X015802Y007032D01*
X015873Y007068D01*
X015938Y007115D01*
X015994Y007171D01*
X016040Y007235D01*
X016077Y007306D01*
X016101Y007382D01*
X016114Y007460D01*
X016114Y007500D01*
X016114Y007540D01*
X016101Y007618D01*
X016077Y007694D01*
X016040Y007765D01*
X015994Y007829D01*
X015938Y007885D01*
X015873Y007932D01*
X015802Y007968D01*
X015727Y007993D01*
X015648Y008005D01*
X015609Y008005D01*
X015609Y007500D01*
X016114Y007500D01*
X015609Y007500D01*
X015609Y007500D01*
X015609Y007500D01*
X015609Y006995D01*
X015609Y007500D01*
X015609Y007500D01*
X015609Y008005D01*
X015569Y008005D01*
X015490Y007993D01*
X015415Y007968D01*
X015344Y007932D01*
X015280Y007885D01*
X015223Y007829D01*
X015177Y007765D01*
X015141Y007694D01*
X015116Y007618D01*
X015109Y007571D01*
X015101Y007618D01*
X015077Y007694D01*
X015040Y007765D01*
X014994Y007829D01*
X014938Y007885D01*
X014873Y007932D01*
X014802Y007968D01*
X014727Y007993D01*
X014648Y008005D01*
X014609Y008005D01*
X014609Y007500D01*
X015114Y007500D01*
X015609Y007500D01*
X014609Y007500D01*
X014609Y007500D01*
X014609Y007500D01*
X014609Y006995D01*
X014609Y007500D01*
X014609Y007500D01*
X014609Y008005D01*
X014569Y008005D01*
X014490Y007993D01*
X014415Y007968D01*
X014344Y007932D01*
X014280Y007885D01*
X014223Y007829D01*
X014177Y007765D01*
X014141Y007694D01*
X014116Y007618D01*
X014109Y007571D01*
X014101Y007618D01*
X014077Y007694D01*
X014040Y007765D01*
X013994Y007829D01*
X013938Y007885D01*
X013873Y007932D01*
X013802Y007968D01*
X013727Y007993D01*
X013648Y008005D01*
X013609Y008005D01*
X013609Y007500D01*
X014114Y007500D01*
X014609Y007500D01*
X013609Y007500D01*
X013609Y007500D01*
X013609Y007500D01*
X013609Y006995D01*
X013609Y007500D01*
X013609Y007500D01*
X013609Y008005D01*
X013569Y008005D01*
X013490Y007993D01*
X013415Y007968D01*
X013344Y007932D01*
X013280Y007885D01*
X013223Y007829D01*
X013177Y007765D01*
X013141Y007694D01*
X013116Y007618D01*
X013109Y007571D01*
X013101Y007618D01*
X013077Y007694D01*
X013040Y007765D01*
X012994Y007829D01*
X012938Y007885D01*
X012873Y007932D01*
X012802Y007968D01*
X012727Y007993D01*
X012648Y008005D01*
X012609Y008005D01*
X012609Y007500D01*
X013104Y007500D01*
X013609Y007500D01*
X012609Y007500D01*
X012609Y007500D01*
X012609Y007500D01*
X012609Y006995D01*
X012609Y007500D01*
X012609Y007500D01*
X012609Y008005D01*
X012569Y008005D01*
X012490Y007993D01*
X012415Y007968D01*
X012344Y007932D01*
X012280Y007885D01*
X012223Y007829D01*
X012199Y007795D01*
X012199Y008010D01*
X012414Y008010D01*
X012444Y007995D01*
X012489Y008010D01*
X012537Y008010D01*
X012561Y008034D01*
X012564Y008035D01*
X012701Y008035D01*
X012872Y008106D01*
X013003Y008237D01*
X013074Y008408D01*
X013074Y008592D01*
X013021Y008718D01*
X013145Y008595D01*
X013144Y008592D01*
X013144Y008408D01*
X013214Y008237D01*
X013345Y008106D01*
X013516Y008035D01*
X013701Y008035D01*
X013872Y008106D01*
X014003Y008237D01*
X014074Y008408D01*
X014074Y008592D01*
X014003Y008763D01*
X013872Y008894D01*
X013701Y008965D01*
X013516Y008965D01*
X013372Y008905D01*
X013099Y009179D01*
X012987Y009290D01*
X012380Y009290D01*
X011480Y008390D01*
X011369Y008279D01*
X011369Y008277D01*
X011266Y008380D01*
X010951Y008380D01*
X010729Y008157D01*
X010729Y007843D01*
X010951Y007620D01*
X011266Y007620D01*
X011369Y007723D01*
X011369Y005871D01*
X011480Y005760D01*
X014183Y005760D01*
X014435Y006045D02*
X014795Y006045D01*
X014954Y005886D02*
X014603Y005886D01*
X014771Y005728D02*
X020512Y005728D01*
X020410Y005569D02*
X019870Y005569D01*
X019882Y005560D02*
X019829Y005599D01*
X019770Y005629D01*
X019707Y005650D01*
X019642Y005660D01*
X019609Y005660D01*
X019609Y005000D01*
X020029Y005000D01*
X020029Y005273D01*
X020018Y005338D01*
X019998Y005401D01*
X019968Y005460D01*
X019929Y005514D01*
X019882Y005560D01*
X019993Y005411D02*
X020268Y005411D01*
X020229Y005252D02*
X020029Y005252D01*
X020029Y005094D02*
X020229Y005094D01*
X020229Y004935D02*
X020029Y004935D01*
X020029Y005000D02*
X019609Y005000D01*
X019609Y005000D01*
X019609Y004340D01*
X019642Y004340D01*
X019707Y004350D01*
X019770Y004371D01*
X019829Y004401D01*
X019882Y004440D01*
X019929Y004486D01*
X019968Y004540D01*
X019998Y004599D01*
X020018Y004662D01*
X020029Y004727D01*
X020029Y005000D01*
X020029Y004777D02*
X020229Y004777D01*
X020232Y004618D02*
X020004Y004618D01*
X019982Y004460D02*
X019902Y004460D01*
X019731Y004301D02*
X016282Y004301D01*
X016450Y004143D02*
X019481Y004143D01*
X019510Y004350D02*
X019576Y004340D01*
X019609Y004340D01*
X019609Y005000D01*
X019609Y005000D01*
X019609Y005000D01*
X019609Y005660D01*
X019576Y005660D01*
X019510Y005650D01*
X019447Y005629D01*
X019388Y005599D01*
X019335Y005560D01*
X019288Y005514D01*
X019249Y005460D01*
X019219Y005401D01*
X019199Y005338D01*
X019189Y005273D01*
X019189Y005000D01*
X019189Y004727D01*
X019199Y004662D01*
X019219Y004599D01*
X019249Y004540D01*
X019288Y004486D01*
X019335Y004440D01*
X019388Y004401D01*
X019447Y004371D01*
X019510Y004350D01*
X019609Y004460D02*
X019609Y004460D01*
X019609Y004618D02*
X019609Y004618D01*
X019609Y004777D02*
X019609Y004777D01*
X019609Y004935D02*
X019609Y004935D01*
X019609Y005000D02*
X019189Y005000D01*
X019609Y005000D01*
X019609Y005000D01*
X019609Y005094D02*
X019609Y005094D01*
X019609Y005252D02*
X019609Y005252D01*
X019609Y005411D02*
X019609Y005411D01*
X019609Y005569D02*
X019609Y005569D01*
X019347Y005569D02*
X018870Y005569D01*
X018882Y005560D02*
X018829Y005599D01*
X018770Y005629D01*
X018707Y005650D01*
X018642Y005660D01*
X018609Y005660D01*
X018609Y005000D01*
X019029Y005000D01*
X019029Y005273D01*
X019018Y005338D01*
X018998Y005401D01*
X018968Y005460D01*
X018929Y005514D01*
X018882Y005560D01*
X018993Y005411D02*
X019224Y005411D01*
X019189Y005252D02*
X019029Y005252D01*
X019029Y005094D02*
X019189Y005094D01*
X019189Y004935D02*
X019029Y004935D01*
X019029Y005000D02*
X018609Y005000D01*
X018609Y005000D01*
X018609Y004340D01*
X018642Y004340D01*
X018707Y004350D01*
X018770Y004371D01*
X018829Y004401D01*
X018882Y004440D01*
X018929Y004486D01*
X018968Y004540D01*
X018998Y004599D01*
X019018Y004662D01*
X019029Y004727D01*
X019029Y005000D01*
X019029Y004777D02*
X019189Y004777D01*
X019213Y004618D02*
X019004Y004618D01*
X018902Y004460D02*
X019315Y004460D01*
X019231Y003984D02*
X016617Y003984D01*
X016785Y003826D02*
X018981Y003826D01*
X018730Y003667D02*
X016953Y003667D01*
X017121Y003509D02*
X018088Y003509D01*
X017930Y003350D02*
X017140Y003350D01*
X017140Y003192D02*
X017771Y003192D01*
X017505Y003033D02*
X017141Y003033D01*
X017143Y002875D02*
X017344Y002875D01*
X017290Y002716D02*
X017144Y002716D01*
X017145Y002558D02*
X017297Y002558D01*
X017375Y002399D02*
X017146Y002399D01*
X016766Y002399D02*
X015989Y002399D01*
X015989Y002343D02*
X015989Y002657D01*
X015766Y002880D01*
X015451Y002880D01*
X015229Y002657D01*
X015229Y002343D01*
X015451Y002120D01*
X015766Y002120D01*
X015989Y002343D01*
X015886Y002241D02*
X016768Y002241D01*
X016769Y002082D02*
X003612Y002082D01*
X003569Y002125D02*
X003803Y001891D01*
X003930Y001585D01*
X003930Y001255D01*
X003803Y000949D01*
X003569Y000715D01*
X003264Y000589D01*
X002933Y000589D01*
X002628Y000715D01*
X002394Y000949D01*
X002267Y001255D01*
X002267Y001585D01*
X002394Y001891D01*
X002628Y002125D01*
X002933Y002251D01*
X003264Y002251D01*
X003569Y002125D01*
X003771Y001924D02*
X016876Y001924D01*
X016769Y002031D02*
X016769Y002031D01*
X016765Y002558D02*
X015989Y002558D01*
X015930Y002716D02*
X016764Y002716D01*
X016763Y002875D02*
X015771Y002875D01*
X015446Y002875D02*
X014771Y002875D01*
X014766Y002880D02*
X014451Y002880D01*
X014229Y002657D01*
X014229Y002343D01*
X014451Y002120D01*
X014766Y002120D01*
X014989Y002343D01*
X014989Y002657D01*
X014766Y002880D01*
X014930Y002716D02*
X015287Y002716D01*
X015229Y002558D02*
X014989Y002558D01*
X014989Y002399D02*
X015229Y002399D01*
X015331Y002241D02*
X014886Y002241D01*
X014331Y002241D02*
X013918Y002241D01*
X013949Y002271D02*
X013949Y002303D01*
X013989Y002343D01*
X013989Y002657D01*
X013766Y002880D01*
X013451Y002880D01*
X013229Y002657D01*
X013229Y002540D01*
X012989Y002540D01*
X012989Y002657D01*
X012766Y002880D01*
X012451Y002880D01*
X012229Y002657D01*
X012229Y002439D01*
X012219Y002429D01*
X012219Y002364D01*
X012209Y002299D01*
X012219Y002287D01*
X012219Y002271D01*
X012265Y002225D01*
X012304Y002173D01*
X012319Y002171D01*
X012330Y002160D01*
X012395Y002160D01*
X012414Y002157D01*
X012451Y002120D01*
X012766Y002120D01*
X012806Y002160D01*
X013411Y002160D01*
X013451Y002120D01*
X013766Y002120D01*
X013806Y002160D01*
X013837Y002160D01*
X013949Y002271D01*
X013989Y002399D02*
X014229Y002399D01*
X014229Y002558D02*
X013989Y002558D01*
X013930Y002716D02*
X014287Y002716D01*
X014446Y002875D02*
X013771Y002875D01*
X013446Y002875D02*
X012771Y002875D01*
X012930Y002716D02*
X013287Y002716D01*
X013229Y002558D02*
X012989Y002558D01*
X012446Y002875D02*
X001589Y002875D01*
X001589Y003033D02*
X008216Y003033D01*
X008053Y003192D02*
X001589Y003192D01*
X001589Y003350D02*
X007979Y003350D01*
X008489Y003350D02*
X008529Y003350D01*
X008529Y003192D02*
X008489Y003192D01*
X008489Y003033D02*
X008529Y003033D01*
X008802Y003033D02*
X016761Y003033D01*
X016760Y003192D02*
X008964Y003192D01*
X009038Y003350D02*
X016735Y003350D01*
X017388Y004401D02*
X017447Y004371D01*
X017510Y004350D01*
X017576Y004340D01*
X017609Y004340D01*
X017642Y004340D01*
X017707Y004350D01*
X017770Y004371D01*
X017829Y004401D01*
X017882Y004440D01*
X017929Y004486D01*
X017968Y004540D01*
X017998Y004599D01*
X018018Y004662D01*
X018029Y004727D01*
X018029Y005000D01*
X018029Y005273D01*
X018018Y005338D01*
X017998Y005401D01*
X017968Y005460D01*
X017929Y005514D01*
X017882Y005560D01*
X017829Y005599D01*
X017770Y005629D01*
X017707Y005650D01*
X017642Y005660D01*
X017609Y005660D01*
X017609Y005000D01*
X018029Y005000D01*
X017609Y005000D01*
X017609Y005000D01*
X017609Y004340D01*
X017609Y005000D01*
X017609Y005000D01*
X017609Y005000D01*
X017609Y005660D01*
X017576Y005660D01*
X017510Y005650D01*
X017447Y005629D01*
X017388Y005599D01*
X017335Y005560D01*
X017288Y005514D01*
X017249Y005460D01*
X017219Y005401D01*
X017199Y005338D01*
X017189Y005273D01*
X017189Y005000D01*
X017189Y004727D01*
X017199Y004662D01*
X017219Y004599D01*
X017249Y004540D01*
X017288Y004486D01*
X017335Y004440D01*
X017388Y004401D01*
X017315Y004460D02*
X016114Y004460D01*
X015946Y004618D02*
X017213Y004618D01*
X017189Y004777D02*
X015778Y004777D01*
X015610Y004935D02*
X017189Y004935D01*
X017189Y005000D02*
X017609Y005000D01*
X017609Y005000D01*
X017189Y005000D01*
X017189Y005094D02*
X015442Y005094D01*
X015275Y005252D02*
X017189Y005252D01*
X017224Y005411D02*
X015107Y005411D01*
X014939Y005569D02*
X017347Y005569D01*
X017609Y005569D02*
X017609Y005569D01*
X017609Y005411D02*
X017609Y005411D01*
X017609Y005252D02*
X017609Y005252D01*
X017609Y005094D02*
X017609Y005094D01*
X017609Y004935D02*
X017609Y004935D01*
X017609Y004777D02*
X017609Y004777D01*
X017609Y004618D02*
X017609Y004618D01*
X017609Y004460D02*
X017609Y004460D01*
X017902Y004460D02*
X018315Y004460D01*
X018335Y004440D02*
X018388Y004401D01*
X018447Y004371D01*
X018510Y004350D01*
X018576Y004340D01*
X018609Y004340D01*
X018609Y005000D01*
X018609Y005000D01*
X018609Y005000D01*
X018609Y005660D01*
X018576Y005660D01*
X018510Y005650D01*
X018447Y005629D01*
X018388Y005599D01*
X018335Y005560D01*
X018288Y005514D01*
X018249Y005460D01*
X018219Y005401D01*
X018199Y005338D01*
X018189Y005273D01*
X018189Y005000D01*
X018189Y004727D01*
X018199Y004662D01*
X018219Y004599D01*
X018249Y004540D01*
X018288Y004486D01*
X018335Y004440D01*
X018213Y004618D02*
X018004Y004618D01*
X018029Y004777D02*
X018189Y004777D01*
X018189Y004935D02*
X018029Y004935D01*
X018029Y005094D02*
X018189Y005094D01*
X018189Y005000D02*
X018609Y005000D01*
X018189Y005000D01*
X018189Y005252D02*
X018029Y005252D01*
X017993Y005411D02*
X018224Y005411D01*
X018347Y005569D02*
X017870Y005569D01*
X017149Y006203D02*
X024087Y006203D01*
X024245Y006045D02*
X020733Y006045D01*
X020891Y005886D02*
X024404Y005886D01*
X024562Y005728D02*
X021050Y005728D01*
X021208Y005569D02*
X021410Y005569D01*
X021807Y005569D02*
X022410Y005569D01*
X022268Y005411D02*
X021949Y005411D01*
X021989Y005252D02*
X022229Y005252D01*
X022229Y005094D02*
X021989Y005094D01*
X021989Y004935D02*
X022229Y004935D01*
X022229Y004777D02*
X021989Y004777D01*
X021961Y004618D02*
X022256Y004618D01*
X022307Y004460D02*
X021845Y004460D01*
X022098Y004301D02*
X021378Y004301D01*
X021168Y004143D02*
X021888Y004143D01*
X021678Y003984D02*
X020958Y003984D01*
X020749Y003826D02*
X021468Y003826D01*
X021259Y003667D02*
X020539Y003667D01*
X020329Y003509D02*
X021049Y003509D01*
X020839Y003350D02*
X020119Y003350D01*
X019910Y003192D02*
X020629Y003192D01*
X020005Y003033D02*
X019700Y003033D01*
X019844Y002875D02*
X019490Y002875D01*
X019280Y002716D02*
X019790Y002716D01*
X019797Y002558D02*
X019070Y002558D01*
X018865Y002399D02*
X019679Y002399D01*
X019899Y002082D02*
X023018Y002082D01*
X023176Y001924D02*
X019741Y001924D01*
X020058Y002241D02*
X020117Y002241D01*
X020313Y002241D02*
X020904Y002241D01*
X021100Y002241D02*
X022617Y002241D01*
X022813Y002241D02*
X022859Y002241D01*
X022375Y002399D02*
X021342Y002399D01*
X021420Y002558D02*
X022297Y002558D01*
X022290Y002716D02*
X021530Y002716D01*
X021740Y002875D02*
X022344Y002875D01*
X022505Y003033D02*
X021950Y003033D01*
X022160Y003192D02*
X024869Y003192D01*
X024869Y003350D02*
X022369Y003350D01*
X022579Y003509D02*
X024869Y003509D01*
X024869Y003667D02*
X022789Y003667D01*
X022999Y003826D02*
X024869Y003826D01*
X024869Y003984D02*
X023208Y003984D01*
X023418Y004143D02*
X024869Y004143D01*
X024869Y004301D02*
X023628Y004301D01*
X023846Y004460D02*
X023869Y004483D01*
X023886Y004496D01*
X023887Y004501D01*
X023931Y004545D01*
X023989Y004684D01*
X023989Y004777D02*
X024189Y004777D01*
X024189Y004935D02*
X023989Y004935D01*
X023989Y005094D02*
X024189Y005094D01*
X024189Y005000D02*
X024609Y005000D01*
X024189Y005000D01*
X024189Y005252D02*
X023989Y005252D01*
X023949Y005411D02*
X024224Y005411D01*
X024347Y005569D02*
X023807Y005569D01*
X023410Y005569D02*
X022807Y005569D01*
X022949Y005411D02*
X023268Y005411D01*
X023229Y005252D02*
X022989Y005252D01*
X022989Y005094D02*
X023229Y005094D01*
X023229Y004935D02*
X022989Y004935D01*
X022989Y004777D02*
X023229Y004777D01*
X023256Y004618D02*
X023012Y004618D01*
X022952Y004460D02*
X023207Y004460D01*
X022998Y004301D02*
X022728Y004301D01*
X022788Y004143D02*
X022518Y004143D01*
X022578Y003984D02*
X022308Y003984D01*
X022368Y003826D02*
X022099Y003826D01*
X022159Y003667D02*
X021889Y003667D01*
X021949Y003509D02*
X021679Y003509D01*
X021739Y003350D02*
X021469Y003350D01*
X021529Y003192D02*
X021260Y003192D01*
X021212Y003033D02*
X021319Y003033D01*
X020662Y002399D02*
X020555Y002399D01*
X018609Y004460D02*
X018609Y004460D01*
X018609Y004618D02*
X018609Y004618D01*
X018609Y004777D02*
X018609Y004777D01*
X018609Y004935D02*
X018609Y004935D01*
X018609Y005000D02*
X018609Y005000D01*
X018609Y005094D02*
X018609Y005094D01*
X018609Y005252D02*
X018609Y005252D01*
X018609Y005411D02*
X018609Y005411D01*
X018609Y005569D02*
X018609Y005569D01*
X017149Y006362D02*
X023928Y006362D01*
X023770Y006520D02*
X017149Y006520D01*
X017149Y006679D02*
X023611Y006679D01*
X023453Y006837D02*
X017149Y006837D01*
X017149Y006996D02*
X023294Y006996D01*
X023136Y007154D02*
X017149Y007154D01*
X017149Y007313D02*
X022977Y007313D01*
X022360Y007471D02*
X021857Y007471D01*
X021966Y007630D02*
X022251Y007630D01*
X022229Y007788D02*
X021989Y007788D01*
X021989Y007947D02*
X022229Y007947D01*
X022178Y008105D02*
X021989Y008105D01*
X021989Y008264D02*
X022026Y008264D01*
X021930Y008898D02*
X026219Y008898D01*
X026219Y009056D02*
X024833Y009056D01*
X024992Y009215D02*
X026219Y009215D01*
X026219Y009373D02*
X025150Y009373D01*
X025309Y009532D02*
X026219Y009532D01*
X026219Y009690D02*
X025956Y009690D01*
X026049Y009849D02*
X026219Y009849D01*
X026219Y010007D02*
X026074Y010007D01*
X026043Y010166D02*
X026219Y010166D01*
X026219Y010324D02*
X025942Y010324D01*
X026219Y010483D02*
X024758Y010483D01*
X024609Y010483D02*
X024609Y010483D01*
X024609Y010495D02*
X024609Y011000D01*
X025114Y011000D01*
X024609Y011000D01*
X024609Y011000D01*
X024609Y011000D01*
X024609Y011495D01*
X024609Y012000D01*
X025114Y012000D01*
X024609Y012000D01*
X024609Y012000D01*
X024609Y012000D01*
X024609Y012000D01*
X024609Y012495D01*
X024609Y013000D01*
X025114Y013000D01*
X024609Y013000D01*
X024609Y013000D01*
X024609Y013000D01*
X024609Y012000D01*
X024609Y011000D01*
X024609Y011000D01*
X024609Y010000D01*
X025114Y010000D01*
X024609Y010000D01*
X024609Y010000D01*
X024609Y009495D01*
X024648Y009495D01*
X024727Y009507D01*
X024757Y009517D01*
X024609Y009369D01*
X024460Y009517D01*
X024490Y009507D01*
X024569Y009495D01*
X024609Y009495D01*
X024609Y010000D01*
X024609Y010000D01*
X024609Y010000D01*
X024609Y010495D01*
X024537Y010500D02*
X024490Y010493D01*
X024415Y010468D01*
X024344Y010432D01*
X024280Y010385D01*
X024223Y010329D01*
X024177Y010265D01*
X024141Y010194D01*
X024116Y010118D01*
X024104Y010040D01*
X024104Y010000D01*
X024104Y009960D01*
X024116Y009882D01*
X024141Y009806D01*
X024174Y009740D01*
X023886Y009740D01*
X023989Y009843D01*
X023989Y010157D01*
X023766Y010380D01*
X023451Y010380D01*
X023229Y010157D01*
X023229Y009843D01*
X023331Y009740D01*
X020187Y009740D01*
X019989Y009939D01*
X019989Y010157D01*
X019766Y010380D01*
X019451Y010380D01*
X019399Y010327D01*
X019399Y010673D01*
X019451Y010620D01*
X019766Y010620D01*
X019989Y010843D01*
X019989Y011157D01*
X019766Y011380D01*
X019507Y011380D01*
X019747Y011620D01*
X019766Y011620D01*
X019781Y011635D01*
X019781Y011635D01*
X019781Y011635D01*
X019989Y011843D01*
X019989Y012157D01*
X019766Y012380D01*
X019451Y012380D01*
X019229Y012157D01*
X019229Y011843D01*
X019331Y011741D01*
X019130Y011540D01*
X019019Y011429D01*
X019019Y009559D01*
X018949Y009629D01*
X018949Y012960D01*
X019229Y012960D01*
X019229Y012843D01*
X019451Y012620D01*
X019766Y012620D01*
X019989Y012843D01*
X019989Y013157D01*
X019962Y013184D01*
X020187Y013410D01*
X024314Y013410D01*
X024280Y013385D01*
X024223Y013329D01*
X024177Y013265D01*
X024141Y013194D01*
X024116Y013118D01*
X024104Y013040D01*
X024104Y013000D01*
X024104Y012960D01*
X024116Y012882D01*
X024141Y012806D01*
X024177Y012735D01*
X024223Y012671D01*
X024280Y012615D01*
X024344Y012568D01*
X024415Y012532D01*
X024490Y012507D01*
X024537Y012500D01*
X024490Y012493D01*
X024415Y012468D01*
X024344Y012432D01*
X024280Y012385D01*
X024223Y012329D01*
X024177Y012265D01*
X024141Y012194D01*
X024116Y012118D01*
X024104Y012040D01*
X024104Y012000D01*
X024104Y011960D01*
X024116Y011882D01*
X024141Y011806D01*
X024177Y011735D01*
X024223Y011671D01*
X024280Y011615D01*
X024344Y011568D01*
X024415Y011532D01*
X024490Y011507D01*
X024537Y011500D01*
X024490Y011493D01*
X024415Y011468D01*
X024344Y011432D01*
X024280Y011385D01*
X024223Y011329D01*
X024177Y011265D01*
X024141Y011194D01*
X024116Y011118D01*
X024104Y011040D01*
X024104Y011000D01*
X024104Y010960D01*
X024116Y010882D01*
X024141Y010806D01*
X024177Y010735D01*
X024223Y010671D01*
X024280Y010615D01*
X024344Y010568D01*
X024415Y010532D01*
X024490Y010507D01*
X024537Y010500D01*
X024459Y010483D02*
X019399Y010483D01*
X019399Y010641D02*
X019430Y010641D01*
X019787Y010641D02*
X023430Y010641D01*
X023451Y010620D02*
X023766Y010620D01*
X023989Y010843D01*
X023989Y011157D01*
X023766Y011380D01*
X023451Y011380D01*
X023229Y011157D01*
X023229Y010843D01*
X023451Y010620D01*
X023272Y010800D02*
X019945Y010800D01*
X019989Y010958D02*
X023229Y010958D01*
X023229Y011117D02*
X019989Y011117D01*
X019871Y011275D02*
X023346Y011275D01*
X023451Y011620D02*
X023229Y011843D01*
X023229Y012157D01*
X023451Y012380D01*
X023766Y012380D01*
X023989Y012157D01*
X023989Y011843D01*
X023766Y011620D01*
X023451Y011620D01*
X023321Y011751D02*
X019896Y011751D01*
X019989Y011909D02*
X023229Y011909D01*
X023229Y012068D02*
X019989Y012068D01*
X019920Y012226D02*
X023297Y012226D01*
X023451Y012620D02*
X023766Y012620D01*
X023989Y012843D01*
X023989Y013157D01*
X023766Y013380D01*
X023451Y013380D01*
X023229Y013157D01*
X023229Y012843D01*
X023451Y012620D01*
X023370Y012702D02*
X019847Y012702D01*
X019989Y012860D02*
X023229Y012860D01*
X023229Y013019D02*
X019989Y013019D01*
X019969Y013177D02*
X023248Y013177D01*
X023407Y013336D02*
X020113Y013336D01*
X019892Y013653D02*
X018049Y013653D01*
X018049Y013811D02*
X027139Y013811D01*
X027139Y013653D02*
X025275Y013653D01*
X025433Y013494D02*
X027139Y013494D01*
X027139Y013336D02*
X025931Y013336D01*
X026039Y013177D02*
X027139Y013177D01*
X027139Y013019D02*
X026074Y013019D01*
X026054Y012860D02*
X027139Y012860D01*
X027139Y012702D02*
X025968Y012702D01*
X025720Y012543D02*
X027139Y012543D01*
X027139Y012385D02*
X025882Y012385D01*
X026018Y012226D02*
X027139Y012226D01*
X027139Y012068D02*
X026074Y012068D01*
X026074Y011909D02*
X027139Y011909D01*
X027139Y011751D02*
X026009Y011751D01*
X025985Y011592D02*
X027139Y011592D01*
X027139Y011434D02*
X026144Y011434D01*
X026302Y011275D02*
X027139Y011275D01*
X027139Y011117D02*
X026461Y011117D01*
X026599Y010958D02*
X027139Y010958D01*
X027139Y010800D02*
X026599Y010800D01*
X026599Y010641D02*
X027139Y010641D01*
X027139Y010483D02*
X026599Y010483D01*
X026599Y010324D02*
X027139Y010324D01*
X027139Y010166D02*
X026599Y010166D01*
X026599Y010007D02*
X027139Y010007D01*
X027139Y009849D02*
X026599Y009849D01*
X026599Y009690D02*
X027139Y009690D01*
X027139Y009532D02*
X026599Y009532D01*
X026599Y009373D02*
X027139Y009373D01*
X027139Y009215D02*
X026599Y009215D01*
X026599Y009056D02*
X027139Y009056D01*
X027139Y008898D02*
X026599Y008898D01*
X026599Y008739D02*
X027139Y008739D01*
X027139Y008581D02*
X026599Y008581D01*
X026628Y008264D02*
X027139Y008264D01*
X027139Y008422D02*
X024944Y008422D01*
X024989Y008264D02*
X025729Y008264D01*
X025708Y008255D02*
X025474Y008021D01*
X025347Y007715D01*
X025347Y007385D01*
X025474Y007079D01*
X025708Y006845D01*
X026013Y006719D01*
X026344Y006719D01*
X026649Y006845D01*
X026883Y007079D01*
X027010Y007385D01*
X027010Y007715D01*
X026883Y008021D01*
X026649Y008255D01*
X026344Y008381D01*
X026013Y008381D01*
X025708Y008255D01*
X025558Y008105D02*
X024989Y008105D01*
X024989Y007947D02*
X025443Y007947D01*
X025377Y007788D02*
X024989Y007788D01*
X024966Y007630D02*
X025347Y007630D01*
X025347Y007471D02*
X024857Y007471D01*
X024799Y007313D02*
X025377Y007313D01*
X025443Y007154D02*
X024799Y007154D01*
X024799Y006996D02*
X025558Y006996D01*
X025728Y006837D02*
X024799Y006837D01*
X024799Y006679D02*
X027139Y006679D01*
X027139Y006837D02*
X026629Y006837D01*
X026800Y006996D02*
X027139Y006996D01*
X027139Y007154D02*
X026914Y007154D01*
X026980Y007313D02*
X027139Y007313D01*
X027139Y007471D02*
X027010Y007471D01*
X027010Y007630D02*
X027139Y007630D01*
X027139Y007788D02*
X026980Y007788D01*
X026914Y007947D02*
X027139Y007947D01*
X027139Y008105D02*
X026799Y008105D01*
X027139Y006520D02*
X024799Y006520D01*
X024916Y006362D02*
X027139Y006362D01*
X027139Y006203D02*
X025074Y006203D01*
X025233Y006045D02*
X027139Y006045D01*
X027139Y005886D02*
X025391Y005886D01*
X025550Y005728D02*
X027139Y005728D01*
X027139Y005569D02*
X025708Y005569D01*
X025867Y005411D02*
X027139Y005411D01*
X027139Y005252D02*
X026025Y005252D01*
X026184Y005094D02*
X027139Y005094D01*
X027139Y004935D02*
X026342Y004935D01*
X026501Y004777D02*
X027139Y004777D01*
X027139Y004618D02*
X026659Y004618D01*
X026818Y004460D02*
X027139Y004460D01*
X027139Y004301D02*
X026976Y004301D01*
X027049Y004143D02*
X027139Y004143D01*
X027139Y003984D02*
X027049Y003984D01*
X027049Y003826D02*
X027139Y003826D01*
X027139Y003667D02*
X027049Y003667D01*
X027049Y003509D02*
X027139Y003509D01*
X027139Y003350D02*
X027049Y003350D01*
X027049Y003192D02*
X027139Y003192D01*
X027139Y003033D02*
X027049Y003033D01*
X027049Y002875D02*
X027139Y002875D01*
X027139Y002716D02*
X027049Y002716D01*
X027049Y002558D02*
X027139Y002558D01*
X027139Y002399D02*
X027049Y002399D01*
X027049Y002241D02*
X027139Y002241D01*
X027139Y002082D02*
X027049Y002082D01*
X027139Y001924D02*
X026941Y001924D01*
X027139Y001765D02*
X003855Y001765D01*
X003921Y001607D02*
X027139Y001607D01*
X027139Y001448D02*
X003930Y001448D01*
X003930Y001290D02*
X027139Y001290D01*
X027139Y001131D02*
X003879Y001131D01*
X003813Y000973D02*
X027139Y000973D01*
X027139Y000814D02*
X003668Y000814D01*
X003425Y000656D02*
X027139Y000656D01*
X027139Y000497D02*
X001589Y000497D01*
X001589Y000656D02*
X002772Y000656D01*
X002529Y000814D02*
X001589Y000814D01*
X001589Y000973D02*
X002384Y000973D01*
X002319Y001131D02*
X001589Y001131D01*
X001589Y001290D02*
X002267Y001290D01*
X002267Y001448D02*
X001589Y001448D01*
X001589Y001607D02*
X002276Y001607D01*
X002342Y001765D02*
X001589Y001765D01*
X001589Y001924D02*
X002427Y001924D01*
X002585Y002082D02*
X001589Y002082D01*
X001589Y002241D02*
X002907Y002241D01*
X003290Y002241D02*
X012249Y002241D01*
X012219Y002399D02*
X001589Y002399D01*
X001589Y002558D02*
X012229Y002558D01*
X012287Y002716D02*
X001589Y002716D01*
X001589Y009532D02*
X008571Y009532D01*
X008730Y009690D02*
X001589Y009690D01*
X001589Y009849D02*
X008888Y009849D01*
X009047Y010007D02*
X001589Y010007D01*
X001589Y010166D02*
X009205Y010166D01*
X009032Y008898D02*
X009737Y008898D01*
X009579Y008739D02*
X009162Y008739D01*
X009219Y008581D02*
X009420Y008581D01*
X009262Y008422D02*
X009219Y008422D01*
X009482Y008105D02*
X009729Y008105D01*
X009729Y008157D02*
X009729Y007843D01*
X009951Y007620D01*
X010266Y007620D01*
X010489Y007843D01*
X010489Y008157D01*
X010266Y008380D01*
X009951Y008380D01*
X009729Y008157D01*
X009641Y008264D02*
X009835Y008264D01*
X009799Y008422D02*
X011512Y008422D01*
X011670Y008581D02*
X009958Y008581D01*
X010116Y008739D02*
X011829Y008739D01*
X011987Y008898D02*
X010275Y008898D01*
X010433Y009056D02*
X012146Y009056D01*
X012304Y009215D02*
X010592Y009215D01*
X010382Y008264D02*
X010835Y008264D01*
X010729Y008105D02*
X010489Y008105D01*
X010489Y007947D02*
X010729Y007947D01*
X010783Y007788D02*
X010434Y007788D01*
X010275Y007630D02*
X010942Y007630D01*
X011206Y007471D02*
X011369Y007471D01*
X011369Y007313D02*
X011299Y007313D01*
X011299Y007154D02*
X011369Y007154D01*
X011369Y006996D02*
X011299Y006996D01*
X011299Y006837D02*
X011369Y006837D01*
X011369Y006679D02*
X011299Y006679D01*
X011299Y006520D02*
X011369Y006520D01*
X011369Y006362D02*
X011299Y006362D01*
X011299Y006203D02*
X011369Y006203D01*
X011369Y006045D02*
X011299Y006045D01*
X011299Y005886D02*
X011369Y005886D01*
X010919Y005886D02*
X010399Y005886D01*
X010399Y005728D02*
X010919Y005728D01*
X010919Y005569D02*
X010399Y005569D01*
X010399Y005411D02*
X010919Y005411D01*
X010919Y005252D02*
X010399Y005252D01*
X010399Y005094D02*
X010919Y005094D01*
X010919Y004935D02*
X010399Y004935D01*
X010399Y004777D02*
X010919Y004777D01*
X010919Y004618D02*
X010399Y004618D01*
X010399Y004460D02*
X010919Y004460D01*
X010872Y004301D02*
X010399Y004301D01*
X010489Y004143D02*
X010729Y004143D01*
X010729Y003984D02*
X010489Y003984D01*
X010471Y003826D02*
X010746Y003826D01*
X010904Y003667D02*
X010313Y003667D01*
X009904Y003667D02*
X009033Y003667D01*
X008952Y003826D02*
X009746Y003826D01*
X009729Y003984D02*
X008770Y003984D01*
X009072Y004143D02*
X009729Y004143D01*
X009872Y004301D02*
X009178Y004301D01*
X009219Y004460D02*
X010019Y004460D01*
X010019Y004618D02*
X009212Y004618D01*
X009146Y004777D02*
X010019Y004777D01*
X010019Y004935D02*
X008991Y004935D01*
X008823Y005094D02*
X010019Y005094D01*
X010019Y005252D02*
X008958Y005252D01*
X009019Y005411D02*
X010019Y005411D01*
X010019Y005569D02*
X009019Y005569D01*
X008966Y005728D02*
X010019Y005728D01*
X010019Y005886D02*
X008844Y005886D01*
X008942Y006045D02*
X010019Y006045D01*
X010019Y006203D02*
X009133Y006203D01*
X009187Y006679D02*
X010919Y006679D01*
X010919Y006837D02*
X009093Y006837D01*
X009001Y006996D02*
X010919Y006996D01*
X010919Y006520D02*
X010357Y006520D01*
X010399Y006362D02*
X010919Y006362D01*
X010919Y006203D02*
X010399Y006203D01*
X010399Y006045D02*
X010919Y006045D01*
X011275Y007630D02*
X011369Y007630D01*
X012199Y007947D02*
X012373Y007947D01*
X012609Y007947D02*
X012609Y007947D01*
X012609Y007788D02*
X012609Y007788D01*
X012609Y007630D02*
X012609Y007630D01*
X012609Y007471D02*
X012609Y007471D01*
X012609Y007313D02*
X012609Y007313D01*
X012609Y007154D02*
X012609Y007154D01*
X012609Y006996D02*
X012609Y006996D01*
X012652Y006996D02*
X013566Y006996D01*
X013609Y006996D02*
X013609Y006996D01*
X013652Y006996D02*
X014566Y006996D01*
X014609Y006996D02*
X014609Y006996D01*
X014652Y006996D02*
X015566Y006996D01*
X015609Y006996D02*
X015609Y006996D01*
X015652Y006996D02*
X015935Y006996D01*
X015977Y007154D02*
X016094Y007154D01*
X016079Y007313D02*
X016252Y007313D01*
X016319Y007471D02*
X016114Y007471D01*
X016097Y007630D02*
X016319Y007630D01*
X016319Y007788D02*
X016024Y007788D01*
X015845Y007947D02*
X016319Y007947D01*
X016847Y008581D02*
X017438Y008581D01*
X017393Y008562D02*
X017286Y008455D01*
X017229Y008316D01*
X017229Y007684D01*
X017286Y007545D01*
X017393Y007438D01*
X017533Y007380D01*
X017684Y007380D01*
X017824Y007438D01*
X017931Y007545D01*
X017989Y007684D01*
X017989Y008316D01*
X017931Y008455D01*
X017824Y008562D01*
X017684Y008620D01*
X017533Y008620D01*
X017393Y008562D01*
X017273Y008422D02*
X017005Y008422D01*
X017149Y008264D02*
X017229Y008264D01*
X017229Y008105D02*
X017149Y008105D01*
X017149Y007947D02*
X017229Y007947D01*
X017229Y007788D02*
X017149Y007788D01*
X017149Y007630D02*
X017251Y007630D01*
X017149Y007471D02*
X017360Y007471D01*
X017857Y007471D02*
X018360Y007471D01*
X018251Y007630D02*
X017966Y007630D01*
X017989Y007788D02*
X018229Y007788D01*
X018229Y007947D02*
X017989Y007947D01*
X017989Y008105D02*
X018229Y008105D01*
X018229Y008264D02*
X017989Y008264D01*
X017944Y008422D02*
X018268Y008422D01*
X018109Y008581D02*
X017779Y008581D01*
X017951Y008739D02*
X016688Y008739D01*
X016530Y008898D02*
X017792Y008898D01*
X017634Y009056D02*
X016371Y009056D01*
X016213Y009215D02*
X017475Y009215D01*
X017696Y009532D02*
X018058Y009532D01*
X017900Y009690D02*
X017537Y009690D01*
X017854Y009373D02*
X018217Y009373D01*
X018375Y009215D02*
X018013Y009215D01*
X018171Y009056D02*
X018534Y009056D01*
X018692Y008898D02*
X018330Y008898D01*
X018488Y008739D02*
X018851Y008739D01*
X018779Y008581D02*
X019009Y008581D01*
X018944Y008422D02*
X019168Y008422D01*
X019229Y008264D02*
X018989Y008264D01*
X018989Y008105D02*
X019229Y008105D01*
X019229Y007947D02*
X018989Y007947D01*
X018989Y007788D02*
X019229Y007788D01*
X019251Y007630D02*
X018966Y007630D01*
X018857Y007471D02*
X019360Y007471D01*
X019857Y007471D02*
X020360Y007471D01*
X020251Y007630D02*
X019966Y007630D01*
X019989Y007788D02*
X020229Y007788D01*
X020229Y007947D02*
X019989Y007947D01*
X019989Y008105D02*
X020229Y008105D01*
X020229Y008264D02*
X019989Y008264D01*
X019944Y008422D02*
X020273Y008422D01*
X020944Y008422D02*
X020968Y008422D01*
X020989Y008264D02*
X021126Y008264D01*
X021229Y008105D02*
X020989Y008105D01*
X020989Y007947D02*
X021229Y007947D01*
X021229Y007788D02*
X020989Y007788D01*
X020966Y007630D02*
X021251Y007630D01*
X021360Y007471D02*
X020857Y007471D01*
X021771Y009056D02*
X024384Y009056D01*
X024225Y009215D02*
X021613Y009215D01*
X020079Y009849D02*
X023229Y009849D01*
X023229Y010007D02*
X019989Y010007D01*
X019980Y010166D02*
X023237Y010166D01*
X023395Y010324D02*
X019822Y010324D01*
X019019Y010324D02*
X018949Y010324D01*
X018949Y010166D02*
X019019Y010166D01*
X019019Y010007D02*
X018949Y010007D01*
X018949Y009849D02*
X019019Y009849D01*
X019019Y009690D02*
X018949Y009690D01*
X018569Y009690D02*
X018437Y009690D01*
X018569Y009849D02*
X018279Y009849D01*
X018120Y010007D02*
X018569Y010007D01*
X018569Y010166D02*
X018049Y010166D01*
X018049Y010324D02*
X018569Y010324D01*
X018569Y010483D02*
X018049Y010483D01*
X018049Y010641D02*
X018569Y010641D01*
X018569Y010800D02*
X018049Y010800D01*
X018049Y010958D02*
X018569Y010958D01*
X018569Y011117D02*
X018049Y011117D01*
X018049Y011275D02*
X018569Y011275D01*
X018569Y011434D02*
X018049Y011434D01*
X018049Y011592D02*
X018569Y011592D01*
X018569Y011751D02*
X018049Y011751D01*
X018049Y011909D02*
X018569Y011909D01*
X018569Y012068D02*
X018049Y012068D01*
X018049Y012226D02*
X018569Y012226D01*
X018569Y012385D02*
X018049Y012385D01*
X018049Y012543D02*
X018569Y012543D01*
X018569Y012702D02*
X018049Y012702D01*
X018049Y012860D02*
X018569Y012860D01*
X018569Y013019D02*
X018049Y013019D01*
X018049Y013177D02*
X018569Y013177D01*
X018675Y013336D02*
X018049Y013336D01*
X018049Y013494D02*
X019734Y013494D01*
X019229Y012860D02*
X018949Y012860D01*
X018949Y012702D02*
X019370Y012702D01*
X018949Y012543D02*
X024393Y012543D01*
X024279Y012385D02*
X018949Y012385D01*
X018949Y012226D02*
X019297Y012226D01*
X019229Y012068D02*
X018949Y012068D01*
X018949Y011909D02*
X019229Y011909D01*
X019321Y011751D02*
X018949Y011751D01*
X018949Y011592D02*
X019182Y011592D01*
X019023Y011434D02*
X018949Y011434D01*
X018949Y011275D02*
X019019Y011275D01*
X019019Y011117D02*
X018949Y011117D01*
X018949Y010958D02*
X019019Y010958D01*
X019019Y010800D02*
X018949Y010800D01*
X018949Y010641D02*
X019019Y010641D01*
X019019Y010483D02*
X018949Y010483D01*
X019561Y011434D02*
X024347Y011434D01*
X024311Y011592D02*
X019719Y011592D01*
X017669Y011592D02*
X016804Y011592D01*
X016791Y011751D02*
X017669Y011751D01*
X017669Y011909D02*
X016713Y011909D01*
X016760Y011434D02*
X017669Y011434D01*
X017669Y011275D02*
X016637Y011275D01*
X015894Y011592D02*
X008587Y011592D01*
X008559Y011751D02*
X010081Y011751D01*
X009995Y011909D02*
X008559Y011909D01*
X008559Y012068D02*
X009989Y012068D01*
X010057Y012226D02*
X008559Y012226D01*
X008179Y012226D02*
X006559Y012226D01*
X006559Y012068D02*
X008179Y012068D01*
X008179Y011909D02*
X006559Y011909D01*
X006559Y011751D02*
X008179Y011751D01*
X008150Y011592D02*
X006587Y011592D01*
X006694Y011434D02*
X008043Y011434D01*
X008029Y011275D02*
X006709Y011275D01*
X006709Y011117D02*
X008029Y011117D01*
X008029Y010958D02*
X006709Y010958D01*
X006683Y010800D02*
X008055Y010800D01*
X008178Y010641D02*
X006559Y010641D01*
X005298Y013653D02*
X004919Y013653D01*
X005034Y013811D02*
X005184Y013811D01*
X005144Y013970D02*
X005074Y013970D01*
X005059Y014128D02*
X005158Y014128D01*
X005203Y014287D02*
X004980Y014287D01*
X005424Y014604D02*
X008913Y014604D01*
X008959Y014762D02*
X003062Y014762D01*
X003119Y014921D02*
X008959Y014921D01*
X008959Y015079D02*
X003119Y015079D01*
X002944Y015555D02*
X002866Y015555D01*
X002351Y015555D02*
X001589Y015555D01*
X001589Y015713D02*
X002175Y015713D01*
X002110Y015872D02*
X001589Y015872D01*
X001589Y016030D02*
X002099Y016030D01*
X002135Y016189D02*
X001589Y016189D01*
X001589Y016347D02*
X002234Y016347D01*
X002470Y016506D02*
X001589Y016506D01*
X001589Y016664D02*
X002223Y016664D01*
X002130Y016823D02*
X001589Y016823D01*
X001589Y016981D02*
X002099Y016981D01*
X002114Y017140D02*
X001589Y017140D01*
X001589Y017298D02*
X002185Y017298D01*
X002378Y017457D02*
X001589Y017457D01*
X001589Y017615D02*
X002272Y017615D01*
X002150Y017774D02*
X001589Y017774D01*
X001589Y017932D02*
X002099Y017932D01*
X002099Y018091D02*
X001589Y018091D01*
X001589Y018249D02*
X002160Y018249D01*
X002295Y018408D02*
X001589Y018408D01*
X001589Y018566D02*
X002270Y018566D01*
X002132Y018725D02*
X001589Y018725D01*
X001589Y018883D02*
X002070Y018883D01*
X002059Y019042D02*
X001589Y019042D01*
X001589Y019200D02*
X002095Y019200D01*
X002189Y019359D02*
X001589Y019359D01*
X001589Y019517D02*
X002420Y019517D01*
X002589Y019517D02*
X002629Y019517D01*
X002629Y019359D02*
X002589Y019359D01*
X002589Y019200D02*
X002629Y019200D01*
X002629Y019042D02*
X002589Y019042D01*
X002797Y019517D02*
X004619Y019517D01*
X004508Y019359D02*
X003028Y019359D01*
X003122Y019200D02*
X004394Y019200D01*
X004279Y019042D02*
X003159Y019042D01*
X003147Y018883D02*
X004165Y018883D01*
X004050Y018725D02*
X003085Y018725D01*
X001589Y019676D02*
X005532Y019676D01*
X005616Y019641D02*
X005941Y019641D01*
X006243Y019765D01*
X006473Y019996D01*
X006598Y020297D01*
X006598Y020623D01*
X006473Y020924D01*
X006243Y021154D01*
X005941Y021279D01*
X005616Y021279D01*
X005315Y021154D01*
X005084Y020924D01*
X004959Y020623D01*
X004959Y020297D01*
X005084Y019996D01*
X005315Y019765D01*
X005616Y019641D01*
X006025Y019676D02*
X006565Y019676D01*
X006724Y019834D02*
X006311Y019834D01*
X006470Y019993D02*
X006882Y019993D01*
X007041Y020151D02*
X006537Y020151D01*
X006598Y020310D02*
X007199Y020310D01*
X007358Y020468D02*
X006598Y020468D01*
X006596Y020627D02*
X007516Y020627D01*
X007675Y020785D02*
X006531Y020785D01*
X006453Y020944D02*
X007833Y020944D01*
X007992Y021102D02*
X006295Y021102D01*
X005986Y021261D02*
X008150Y021261D01*
X008309Y021419D02*
X001589Y021419D01*
X001589Y021261D02*
X005571Y021261D01*
X005262Y021102D02*
X001589Y021102D01*
X001589Y020944D02*
X005104Y020944D01*
X005027Y020785D02*
X001589Y020785D01*
X001589Y020627D02*
X004961Y020627D01*
X004959Y020468D02*
X001589Y020468D01*
X001589Y020310D02*
X004959Y020310D01*
X005020Y020151D02*
X001589Y020151D01*
X001589Y019993D02*
X005088Y019993D01*
X005246Y019834D02*
X001589Y019834D01*
X001589Y021578D02*
X008467Y021578D01*
X008626Y021736D02*
X001589Y021736D01*
X001589Y021895D02*
X006757Y021895D01*
X006740Y021897D02*
X006810Y021886D01*
X006835Y021886D01*
X006835Y022327D01*
X006856Y022327D01*
X006856Y021886D01*
X006881Y021886D01*
X006951Y021897D01*
X007019Y021919D01*
X007082Y021952D01*
X007140Y021993D01*
X007190Y022044D01*
X007232Y022101D01*
X007261Y022159D01*
X007284Y022105D01*
X007400Y021989D01*
X007551Y021926D01*
X007715Y021926D01*
X007866Y021989D01*
X007982Y022105D01*
X008045Y022256D01*
X008045Y022420D01*
X007982Y022571D01*
X007866Y022687D01*
X007715Y022750D01*
X007551Y022750D01*
X007400Y022687D01*
X007133Y022687D01*
X007140Y022682D02*
X007082Y022724D01*
X007019Y022756D01*
X006951Y022778D01*
X006881Y022790D01*
X006856Y022790D01*
X006856Y022348D01*
X006835Y022348D01*
X006835Y022327D01*
X006394Y022327D01*
X006394Y022302D01*
X006405Y022232D01*
X006427Y022164D01*
X006459Y022101D01*
X006501Y022044D01*
X006551Y021993D01*
X006609Y021952D01*
X006672Y021919D01*
X006740Y021897D01*
X006835Y021895D02*
X006856Y021895D01*
X006934Y021895D02*
X008784Y021895D01*
X008943Y022053D02*
X007930Y022053D01*
X008026Y022212D02*
X009101Y022212D01*
X009260Y022370D02*
X008045Y022370D01*
X007999Y022529D02*
X009418Y022529D01*
X009577Y022687D02*
X007866Y022687D01*
X007715Y022910D02*
X007551Y022910D01*
X007400Y022973D01*
X007284Y023089D01*
X007239Y023197D01*
X007194Y023089D01*
X007079Y022973D01*
X006927Y022910D01*
X006764Y022910D01*
X006612Y022973D01*
X006497Y023089D01*
X006434Y023240D01*
X006434Y023404D01*
X006497Y023555D01*
X006612Y023671D01*
X006764Y023734D01*
X006927Y023734D01*
X007079Y023671D01*
X007194Y023555D01*
X007239Y023447D01*
X007284Y023555D01*
X007400Y023671D01*
X007551Y023734D01*
X007715Y023734D01*
X007866Y023671D01*
X007982Y023555D01*
X008045Y023404D01*
X008045Y023240D01*
X007982Y023089D01*
X007866Y022973D01*
X007715Y022910D01*
X007897Y023004D02*
X009894Y023004D01*
X010025Y023163D02*
X008012Y023163D01*
X008045Y023321D02*
X010152Y023321D01*
X010249Y023638D02*
X007899Y023638D01*
X008013Y023480D02*
X010860Y023480D01*
X011239Y023638D02*
X011769Y023638D01*
X011769Y023480D02*
X011398Y023480D01*
X011556Y023321D02*
X011769Y023321D01*
X011769Y023163D02*
X011715Y023163D01*
X011749Y023004D02*
X011769Y023004D01*
X011769Y022846D02*
X011749Y022846D01*
X011749Y022687D02*
X011769Y022687D01*
X011769Y022529D02*
X011749Y022529D01*
X011749Y022370D02*
X011769Y022370D01*
X011769Y022212D02*
X011749Y022212D01*
X011749Y022053D02*
X011769Y022053D01*
X011769Y021895D02*
X011749Y021895D01*
X011749Y021736D02*
X011769Y021736D01*
X011769Y021578D02*
X011749Y021578D01*
X011749Y021419D02*
X011769Y021419D01*
X011769Y021261D02*
X011749Y021261D01*
X011769Y023797D02*
X011176Y023797D01*
X011229Y023955D02*
X011769Y023955D01*
X011769Y024114D02*
X011213Y024114D01*
X011114Y024272D02*
X011769Y024272D01*
X011769Y024431D02*
X006061Y024431D01*
X005941Y024381D02*
X006243Y024506D01*
X006473Y024736D01*
X006598Y025037D01*
X006598Y025363D01*
X006473Y025664D01*
X006243Y025895D01*
X005941Y026019D01*
X005616Y026019D01*
X005315Y025895D01*
X005084Y025664D01*
X004959Y025363D01*
X004959Y025037D01*
X005084Y024736D01*
X005315Y024506D01*
X005616Y024381D01*
X005941Y024381D01*
X006326Y024589D02*
X011769Y024589D01*
X011769Y024748D02*
X006478Y024748D01*
X006543Y024906D02*
X011769Y024906D01*
X011769Y025065D02*
X006598Y025065D01*
X006598Y025223D02*
X011769Y025223D01*
X011769Y025382D02*
X006590Y025382D01*
X006524Y025540D02*
X007641Y025540D01*
X007701Y025480D02*
X008016Y025480D01*
X008239Y025703D01*
X008239Y026017D01*
X008016Y026240D01*
X007701Y026240D01*
X007479Y026017D01*
X007479Y025703D01*
X007701Y025480D01*
X007483Y025699D02*
X006439Y025699D01*
X006280Y025857D02*
X007479Y025857D01*
X007479Y026016D02*
X005950Y026016D01*
X005607Y026016D02*
X004419Y026016D01*
X004389Y025986D02*
X004509Y026106D01*
X004574Y026262D01*
X004574Y026431D01*
X004509Y026587D01*
X004389Y026707D01*
X004359Y026719D01*
X004392Y026736D01*
X004451Y026779D01*
X004503Y026831D01*
X004546Y026890D01*
X004579Y026955D01*
X004602Y027025D01*
X004614Y027097D01*
X004614Y027134D01*
X004614Y027170D01*
X004602Y027243D01*
X004579Y027312D01*
X004546Y027377D01*
X004503Y027437D01*
X004451Y027488D01*
X004392Y027531D01*
X004327Y027565D01*
X004257Y027587D01*
X004185Y027599D01*
X004149Y027599D01*
X004149Y027134D01*
X004614Y027134D01*
X004149Y027134D01*
X004149Y027134D01*
X004149Y027134D01*
X004149Y027599D01*
X004112Y027599D01*
X004040Y027587D01*
X003970Y027565D01*
X003905Y027531D01*
X003846Y027488D01*
X003794Y027437D01*
X003751Y027377D01*
X003718Y027312D01*
X003695Y027243D01*
X003684Y027170D01*
X003684Y027134D01*
X004149Y027134D01*
X004149Y027134D01*
X003684Y027134D01*
X003684Y027097D01*
X003695Y027025D01*
X003718Y026955D01*
X003751Y026890D01*
X003794Y026831D01*
X003846Y026779D01*
X003905Y026736D01*
X003938Y026719D01*
X003908Y026707D01*
X003788Y026587D01*
X003724Y026431D01*
X003724Y026262D01*
X003788Y026106D01*
X003908Y025986D01*
X004064Y025921D01*
X004233Y025921D01*
X004389Y025986D01*
X004537Y026174D02*
X007635Y026174D01*
X007516Y026230D02*
X007739Y026453D01*
X007739Y026767D01*
X007516Y026990D01*
X007201Y026990D01*
X006979Y026767D01*
X006979Y026453D01*
X007201Y026230D01*
X007516Y026230D01*
X007619Y026333D02*
X008042Y026333D01*
X007939Y026436D02*
X008185Y026190D01*
X008359Y026190D01*
X008533Y026190D01*
X008779Y026436D01*
X008779Y026610D01*
X008779Y026784D01*
X008533Y027030D01*
X008359Y027030D01*
X008359Y026610D01*
X008779Y026610D01*
X008359Y026610D01*
X008359Y026610D01*
X008359Y026190D01*
X008359Y026610D01*
X008359Y026610D01*
X008359Y026610D01*
X008359Y027030D01*
X008185Y027030D01*
X007939Y026784D01*
X007939Y026610D01*
X007939Y026436D01*
X007939Y026491D02*
X007739Y026491D01*
X007739Y026650D02*
X007939Y026650D01*
X007939Y026610D02*
X008359Y026610D01*
X007939Y026610D01*
X007963Y026808D02*
X007698Y026808D01*
X007539Y026967D02*
X008121Y026967D01*
X008359Y026967D02*
X008359Y026967D01*
X008359Y026808D02*
X008359Y026808D01*
X008359Y026650D02*
X008359Y026650D01*
X008359Y026610D02*
X008359Y026610D01*
X008359Y026491D02*
X008359Y026491D01*
X008359Y026333D02*
X008359Y026333D01*
X008675Y026333D02*
X009347Y026333D01*
X009435Y026420D02*
X009189Y026174D01*
X008082Y026174D01*
X008239Y026016D02*
X009189Y026016D01*
X009189Y026000D02*
X009609Y026000D01*
X010029Y026000D01*
X010029Y026174D01*
X009783Y026420D01*
X009609Y026420D01*
X009609Y026000D01*
X009609Y026000D01*
X010029Y026000D01*
X010029Y025826D01*
X009783Y025580D01*
X009609Y025580D01*
X009609Y026000D01*
X009609Y026000D01*
X009609Y026000D01*
X009609Y026420D01*
X009435Y026420D01*
X009609Y026333D02*
X009609Y026333D01*
X009609Y026174D02*
X009609Y026174D01*
X009609Y026016D02*
X009609Y026016D01*
X009609Y026000D02*
X009609Y026000D01*
X009609Y025580D01*
X009435Y025580D01*
X009189Y025826D01*
X009189Y026000D01*
X009609Y026000D01*
X009609Y025857D02*
X009609Y025857D01*
X009609Y025699D02*
X009609Y025699D01*
X009901Y025699D02*
X010873Y025699D01*
X010951Y025620D02*
X011266Y025620D01*
X011489Y025843D01*
X011489Y026157D01*
X011266Y026380D01*
X010951Y026380D01*
X010729Y026157D01*
X010729Y025843D01*
X010951Y025620D01*
X010729Y025857D02*
X010029Y025857D01*
X010029Y026016D02*
X010729Y026016D01*
X010745Y026174D02*
X010028Y026174D01*
X009870Y026333D02*
X010904Y026333D01*
X011313Y026333D02*
X011769Y026333D01*
X011769Y026491D02*
X008779Y026491D01*
X008779Y026650D02*
X011769Y026650D01*
X011769Y026808D02*
X008754Y026808D01*
X008596Y026967D02*
X011769Y026967D01*
X011769Y027125D02*
X004614Y027125D01*
X004589Y027284D02*
X011769Y027284D01*
X011769Y027442D02*
X006584Y027442D01*
X006634Y027492D02*
X006506Y027364D01*
X006339Y027295D01*
X006158Y027295D01*
X005991Y027364D01*
X005863Y027492D01*
X005794Y027659D01*
X005794Y027841D01*
X005863Y028008D01*
X005991Y028136D01*
X006158Y028205D01*
X006339Y028205D01*
X006506Y028136D01*
X006634Y028008D01*
X006704Y027841D01*
X006704Y027659D01*
X006634Y027492D01*
X006679Y027601D02*
X011769Y027601D01*
X011769Y027759D02*
X006704Y027759D01*
X006672Y027918D02*
X011769Y027918D01*
X011769Y028076D02*
X006566Y028076D01*
X006454Y028255D02*
X006744Y028545D01*
X006744Y028750D01*
X006744Y028955D01*
X006454Y029245D01*
X006249Y029245D01*
X006249Y028750D01*
X006744Y028750D01*
X006249Y028750D01*
X006249Y028750D01*
X006249Y028750D01*
X006249Y028255D01*
X006454Y028255D01*
X006592Y028393D02*
X011769Y028393D01*
X011769Y028235D02*
X001589Y028235D01*
X001589Y028393D02*
X005905Y028393D01*
X006044Y028255D02*
X005754Y028545D01*
X005754Y028750D01*
X006249Y028750D01*
X006249Y028750D01*
X006249Y029245D01*
X006044Y029245D01*
X005754Y028955D01*
X005754Y028750D01*
X006249Y028750D01*
X006249Y028255D01*
X006044Y028255D01*
X005931Y028076D02*
X001589Y028076D01*
X001589Y027918D02*
X005825Y027918D01*
X005794Y027759D02*
X001589Y027759D01*
X001589Y027601D02*
X005818Y027601D01*
X005913Y027442D02*
X004498Y027442D01*
X004149Y027442D02*
X004149Y027442D01*
X004149Y027284D02*
X004149Y027284D01*
X004583Y026967D02*
X007178Y026967D01*
X007019Y026808D02*
X004481Y026808D01*
X004446Y026650D02*
X006979Y026650D01*
X006979Y026491D02*
X004549Y026491D01*
X004574Y026333D02*
X007099Y026333D01*
X008239Y025857D02*
X009189Y025857D01*
X009189Y026000D02*
X009189Y026174D01*
X009316Y025699D02*
X008235Y025699D01*
X008076Y025540D02*
X011769Y025540D01*
X011769Y025699D02*
X011345Y025699D01*
X011489Y025857D02*
X011769Y025857D01*
X011769Y026016D02*
X011489Y026016D01*
X011472Y026174D02*
X011769Y026174D01*
X010103Y024272D02*
X001589Y024272D01*
X001589Y024114D02*
X010004Y024114D01*
X009989Y023955D02*
X001589Y023955D01*
X001589Y023797D02*
X010042Y023797D01*
X009735Y022846D02*
X001589Y022846D01*
X001589Y023004D02*
X006581Y023004D01*
X006466Y023163D02*
X001589Y023163D01*
X001589Y023321D02*
X006434Y023321D01*
X006465Y023480D02*
X001589Y023480D01*
X001589Y023638D02*
X006579Y023638D01*
X007112Y023638D02*
X007367Y023638D01*
X007253Y023480D02*
X007226Y023480D01*
X007225Y023163D02*
X007253Y023163D01*
X007369Y023004D02*
X007110Y023004D01*
X007140Y022682D02*
X007190Y022632D01*
X007232Y022575D01*
X007261Y022517D01*
X007284Y022571D01*
X007400Y022687D01*
X007266Y022529D02*
X007255Y022529D01*
X006856Y022529D02*
X006835Y022529D01*
X006835Y022687D02*
X006856Y022687D01*
X006835Y022790D02*
X006810Y022790D01*
X006740Y022778D01*
X006672Y022756D01*
X006609Y022724D01*
X006551Y022682D01*
X006501Y022632D01*
X006459Y022575D01*
X006427Y022511D01*
X006405Y022444D01*
X006394Y022373D01*
X006394Y022348D01*
X006835Y022348D01*
X006835Y022790D01*
X006558Y022687D02*
X001589Y022687D01*
X001589Y022529D02*
X006436Y022529D01*
X006394Y022370D02*
X001589Y022370D01*
X001589Y022212D02*
X006412Y022212D01*
X006494Y022053D02*
X001589Y022053D01*
X001589Y024431D02*
X005496Y024431D01*
X005231Y024589D02*
X001589Y024589D01*
X001589Y024748D02*
X005079Y024748D01*
X005014Y024906D02*
X001589Y024906D01*
X001589Y025065D02*
X004959Y025065D01*
X004959Y025223D02*
X001589Y025223D01*
X001589Y025382D02*
X004967Y025382D01*
X005033Y025540D02*
X001589Y025540D01*
X001589Y025699D02*
X005119Y025699D01*
X005277Y025857D02*
X001589Y025857D01*
X001589Y026016D02*
X003878Y026016D01*
X003760Y026174D02*
X001589Y026174D01*
X001589Y026333D02*
X003724Y026333D01*
X003749Y026491D02*
X001589Y026491D01*
X001589Y026650D02*
X003851Y026650D01*
X003817Y026808D02*
X001589Y026808D01*
X001589Y026967D02*
X003714Y026967D01*
X003684Y027125D02*
X001589Y027125D01*
X001589Y027284D02*
X003708Y027284D01*
X003799Y027442D02*
X001589Y027442D01*
X001589Y028552D02*
X005754Y028552D01*
X005754Y028710D02*
X001589Y028710D01*
X001589Y028869D02*
X005754Y028869D01*
X005826Y029027D02*
X001589Y029027D01*
X001589Y029186D02*
X005984Y029186D01*
X006249Y029186D02*
X006249Y029186D01*
X006249Y029027D02*
X006249Y029027D01*
X006249Y028869D02*
X006249Y028869D01*
X006249Y028750D02*
X006249Y028750D01*
X006249Y028710D02*
X006249Y028710D01*
X006249Y028552D02*
X006249Y028552D01*
X006249Y028393D02*
X006249Y028393D01*
X006744Y028552D02*
X011769Y028552D01*
X011769Y028710D02*
X006744Y028710D01*
X006744Y028869D02*
X011769Y028869D01*
X011769Y029027D02*
X006672Y029027D01*
X006513Y029186D02*
X006904Y029186D01*
X006746Y029344D02*
X001589Y029344D01*
X001589Y029503D02*
X006587Y029503D01*
X006410Y029661D02*
X002864Y029661D01*
X002783Y029580D02*
X003029Y029826D01*
X003029Y030000D01*
X003029Y030174D01*
X002783Y030420D01*
X002609Y030420D01*
X002609Y030000D01*
X003029Y030000D01*
X002609Y030000D01*
X002609Y030000D01*
X002609Y029580D01*
X002783Y029580D01*
X002609Y029580D02*
X002609Y030000D01*
X002609Y030000D01*
X002609Y030000D01*
X002609Y030420D01*
X002435Y030420D01*
X002189Y030174D01*
X002189Y030000D01*
X002189Y029826D01*
X002435Y029580D01*
X002609Y029580D01*
X002609Y029661D02*
X002609Y029661D01*
X002609Y029820D02*
X002609Y029820D01*
X002609Y029978D02*
X002609Y029978D01*
X002609Y030000D02*
X002189Y030000D01*
X002609Y030000D01*
X002609Y030000D01*
X002609Y030137D02*
X002609Y030137D01*
X002609Y030295D02*
X002609Y030295D01*
X002907Y030295D02*
X006245Y030295D01*
X006229Y030137D02*
X003029Y030137D01*
X003029Y029978D02*
X006229Y029978D01*
X006252Y029820D02*
X003022Y029820D01*
X002354Y029661D02*
X001589Y029661D01*
X001589Y029820D02*
X002195Y029820D01*
X002189Y029978D02*
X001589Y029978D01*
X001589Y030137D02*
X002189Y030137D01*
X002310Y030295D02*
X001589Y030295D01*
X001589Y030454D02*
X006086Y030454D01*
X005928Y030612D02*
X001589Y030612D01*
X006002Y031500D02*
X006002Y031965D01*
X006002Y031500D01*
X006002Y031500D01*
X006467Y031500D01*
X006002Y031500D01*
X006002Y031500D01*
X006002Y031563D02*
X006002Y031563D01*
X006002Y031722D02*
X006002Y031722D01*
X006002Y031880D02*
X006002Y031880D01*
X006270Y031880D02*
X007522Y031880D01*
X007474Y031860D02*
X007355Y031741D01*
X007290Y031585D01*
X007290Y031415D01*
X007355Y031259D01*
X007474Y031140D01*
X007630Y031075D01*
X007799Y031075D01*
X007956Y031140D01*
X008075Y031259D01*
X008088Y031289D01*
X008105Y031256D01*
X008148Y031197D01*
X008199Y031145D01*
X008259Y031102D01*
X008324Y031069D01*
X008393Y031046D01*
X008466Y031035D01*
X008502Y031035D01*
X008502Y031500D01*
X008502Y031500D01*
X008502Y031965D01*
X008466Y031965D01*
X008393Y031954D01*
X008324Y031931D01*
X008259Y031898D01*
X008199Y031855D01*
X008148Y031803D01*
X008105Y031744D01*
X008088Y031711D01*
X008075Y031741D01*
X007956Y031860D01*
X007799Y031925D01*
X007630Y031925D01*
X007474Y031860D01*
X007347Y031722D02*
X006411Y031722D01*
X006463Y031563D02*
X007290Y031563D01*
X007294Y031405D02*
X006458Y031405D01*
X006393Y031246D02*
X007368Y031246D01*
X007600Y031088D02*
X006217Y031088D01*
X006148Y030929D02*
X010161Y030929D01*
X010019Y031088D02*
X008717Y031088D01*
X008746Y031102D02*
X008805Y031145D01*
X008857Y031197D01*
X008900Y031256D01*
X008933Y031322D01*
X008956Y031391D01*
X008967Y031463D01*
X008967Y031500D01*
X008967Y031537D01*
X008956Y031609D01*
X008933Y031678D01*
X008900Y031744D01*
X008857Y031803D01*
X008805Y031855D01*
X008746Y031898D01*
X008681Y031931D01*
X008611Y031954D01*
X008539Y031965D01*
X008502Y031965D01*
X008502Y031500D01*
X008502Y031500D01*
X008502Y031035D01*
X008539Y031035D01*
X008611Y031046D01*
X008681Y031069D01*
X008746Y031102D01*
X008893Y031246D02*
X009868Y031246D01*
X009794Y031405D02*
X008958Y031405D01*
X008967Y031500D02*
X008502Y031500D01*
X008967Y031500D01*
X008963Y031563D02*
X009790Y031563D01*
X009847Y031722D02*
X008911Y031722D01*
X008770Y031880D02*
X010022Y031880D01*
X010408Y031880D02*
X010809Y031880D01*
X010634Y031722D02*
X010583Y031722D01*
X010562Y031246D02*
X010655Y031246D01*
X010857Y030771D02*
X012269Y030771D01*
X010795Y030295D02*
X009851Y030295D01*
X009766Y030380D02*
X009451Y030380D01*
X009229Y030157D01*
X009229Y029843D01*
X009451Y029620D01*
X009766Y029620D01*
X009989Y029843D01*
X009989Y030157D01*
X009766Y030380D01*
X009989Y030137D02*
X010729Y030137D01*
X010729Y029978D02*
X009989Y029978D01*
X009966Y029820D02*
X010752Y029820D01*
X010910Y029661D02*
X009807Y029661D01*
X009410Y029661D02*
X006966Y029661D01*
X006966Y029820D02*
X009252Y029820D01*
X009229Y029978D02*
X006989Y029978D01*
X006989Y030137D02*
X009229Y030137D01*
X009366Y030295D02*
X006851Y030295D01*
X006624Y030454D02*
X010636Y030454D01*
X010478Y030612D02*
X006465Y030612D01*
X006307Y030771D02*
X010319Y030771D01*
X008502Y031088D02*
X008502Y031088D01*
X008502Y031246D02*
X008502Y031246D01*
X008502Y031405D02*
X008502Y031405D01*
X008502Y031500D02*
X008502Y031500D01*
X008502Y031563D02*
X008502Y031563D01*
X008502Y031722D02*
X008502Y031722D01*
X008502Y031880D02*
X008502Y031880D01*
X008234Y031880D02*
X007908Y031880D01*
X008083Y031722D02*
X008093Y031722D01*
X008112Y031246D02*
X008062Y031246D01*
X008287Y031088D02*
X007830Y031088D01*
X014449Y024589D02*
X022801Y024589D01*
X022959Y024431D02*
X017941Y024431D01*
X018117Y024272D02*
X023118Y024272D01*
X023276Y024114D02*
X018159Y024114D01*
X018128Y023955D02*
X023435Y023955D01*
X023593Y023797D02*
X018004Y023797D01*
X017989Y023638D02*
X023752Y023638D01*
X023910Y023480D02*
X017989Y023480D01*
X017989Y023321D02*
X024069Y023321D01*
X024227Y023163D02*
X017989Y023163D01*
X017989Y023004D02*
X024386Y023004D01*
X025699Y023004D02*
X025769Y023004D01*
X025769Y022846D02*
X025699Y022846D01*
X025699Y022687D02*
X025769Y022687D01*
X025769Y022529D02*
X025699Y022529D01*
X025699Y023163D02*
X025769Y023163D01*
X025769Y023321D02*
X025699Y023321D01*
X025699Y023480D02*
X025769Y023480D01*
X025769Y023638D02*
X025699Y023638D01*
X025699Y023797D02*
X025769Y023797D01*
X025769Y023955D02*
X025699Y023955D01*
X025699Y024114D02*
X025769Y024114D01*
X025769Y024272D02*
X025699Y024272D01*
X025699Y024431D02*
X025769Y024431D01*
X025769Y024589D02*
X025588Y024589D01*
X026599Y024589D02*
X027139Y024589D01*
X027139Y024431D02*
X026599Y024431D01*
X026599Y024272D02*
X027139Y024272D01*
X027139Y024114D02*
X026599Y024114D01*
X026599Y023955D02*
X027139Y023955D01*
X027139Y023797D02*
X026599Y023797D01*
X026599Y023638D02*
X027139Y023638D01*
X027139Y023480D02*
X026599Y023480D01*
X026599Y023321D02*
X027139Y023321D01*
X027139Y023163D02*
X026599Y023163D01*
X026599Y023004D02*
X027139Y023004D01*
X027139Y022846D02*
X026599Y022846D01*
X026599Y022687D02*
X027139Y022687D01*
X027139Y022529D02*
X026599Y022529D01*
X026599Y022370D02*
X027139Y022370D01*
X027139Y022212D02*
X026599Y022212D01*
X026599Y022053D02*
X027139Y022053D01*
X027139Y021895D02*
X026599Y021895D01*
X026599Y021736D02*
X027139Y021736D01*
X027139Y021578D02*
X026599Y021578D01*
X026599Y021419D02*
X027139Y021419D01*
X027139Y021261D02*
X026599Y021261D01*
X026599Y021102D02*
X027139Y021102D01*
X027139Y020944D02*
X026599Y020944D01*
X026599Y024748D02*
X027139Y024748D01*
X027139Y024906D02*
X026599Y024906D01*
X026599Y025065D02*
X027139Y025065D01*
X027139Y025223D02*
X026599Y025223D01*
X026596Y025382D02*
X027139Y025382D01*
X025632Y027284D02*
X024999Y027284D01*
X024999Y027442D02*
X025471Y027442D01*
X025360Y027601D02*
X024999Y027601D01*
X024999Y027759D02*
X025295Y027759D01*
X025267Y027918D02*
X024999Y027918D01*
X024999Y028076D02*
X025267Y028076D01*
X025300Y028235D02*
X024999Y028235D01*
X024999Y028393D02*
X025366Y028393D01*
X025485Y028552D02*
X024999Y028552D01*
X024999Y028710D02*
X025665Y028710D01*
X022619Y030454D02*
X020299Y030454D01*
X020299Y030612D02*
X022619Y030612D01*
X022619Y030771D02*
X020299Y030771D01*
X020299Y030929D02*
X022619Y030929D01*
X022600Y031088D02*
X021117Y031088D01*
X020887Y031088D02*
X020330Y031088D01*
X020299Y031075D02*
X020299Y031075D01*
X020562Y031246D02*
X020655Y031246D01*
X020634Y031722D02*
X020583Y031722D01*
X020408Y031880D02*
X020809Y031880D01*
X021195Y031880D02*
X022522Y031880D01*
X022347Y031722D02*
X021371Y031722D01*
X021427Y031563D02*
X022290Y031563D01*
X022294Y031405D02*
X021423Y031405D01*
X021349Y031246D02*
X022368Y031246D01*
X020810Y030295D02*
X020299Y030295D01*
X020299Y030137D02*
X020689Y030137D01*
X020689Y029978D02*
X020299Y029978D01*
X020299Y029820D02*
X020695Y029820D01*
X017600Y031088D02*
X016117Y031088D01*
X015887Y031088D02*
X015349Y031088D01*
X015562Y031246D02*
X015655Y031246D01*
X015634Y031722D02*
X015583Y031722D01*
X015408Y031880D02*
X015809Y031880D01*
X016195Y031880D02*
X017522Y031880D01*
X017347Y031722D02*
X016371Y031722D01*
X016427Y031563D02*
X017290Y031563D01*
X017294Y031405D02*
X016423Y031405D01*
X016349Y031246D02*
X017368Y031246D01*
X017656Y024431D02*
X014449Y024431D01*
X017989Y021419D02*
X018659Y021419D01*
X016915Y019676D02*
X016548Y019676D01*
X016649Y019517D02*
X016757Y019517D01*
X015905Y018725D02*
X014702Y018725D01*
X014543Y018566D02*
X015888Y018566D01*
X015938Y018408D02*
X014385Y018408D01*
X014187Y018249D02*
X016121Y018249D01*
X015998Y018091D02*
X014259Y018091D01*
X014263Y017932D02*
X015903Y017932D01*
X015888Y017774D02*
X014203Y017774D01*
X014018Y017615D02*
X015940Y017615D01*
X015993Y017298D02*
X014088Y017298D01*
X014202Y017140D02*
X015900Y017140D01*
X015888Y016981D02*
X014229Y016981D01*
X014186Y016823D02*
X015942Y016823D01*
X016278Y015396D02*
X016278Y015396D01*
X016278Y015238D02*
X016278Y015238D01*
X016278Y015079D02*
X016278Y015079D01*
X017669Y014762D02*
X014148Y014762D01*
X014099Y014287D02*
X017669Y014287D01*
X017669Y014445D02*
X009599Y014445D01*
X009751Y014604D02*
X017669Y014604D01*
X018049Y014604D02*
X027139Y014604D01*
X027139Y014762D02*
X018049Y014762D01*
X018049Y014445D02*
X027139Y014445D01*
X027139Y014287D02*
X018049Y014287D01*
X018049Y014128D02*
X027139Y014128D01*
X027139Y013970D02*
X018049Y013970D01*
X017669Y013970D02*
X014229Y013970D01*
X014207Y014128D02*
X017669Y014128D01*
X017669Y013811D02*
X014182Y013811D01*
X014003Y013653D02*
X017669Y013653D01*
X017669Y011117D02*
X014212Y011117D01*
X014229Y010958D02*
X017669Y010958D01*
X017669Y010800D02*
X014177Y010800D01*
X015004Y009215D02*
X013063Y009215D01*
X013221Y009056D02*
X014846Y009056D01*
X015066Y008739D02*
X015204Y008739D01*
X015225Y008898D02*
X015353Y008898D01*
X015144Y008581D02*
X015074Y008581D01*
X015074Y008422D02*
X015144Y008422D01*
X015203Y008264D02*
X015014Y008264D01*
X014870Y008105D02*
X015347Y008105D01*
X015373Y007947D02*
X014845Y007947D01*
X014609Y007947D02*
X014609Y007947D01*
X014609Y007788D02*
X014609Y007788D01*
X014609Y007630D02*
X014609Y007630D01*
X014609Y007500D02*
X014609Y007500D01*
X014609Y007471D02*
X014609Y007471D01*
X014609Y007313D02*
X014609Y007313D01*
X014609Y007154D02*
X014609Y007154D01*
X014977Y007154D02*
X015240Y007154D01*
X015138Y007313D02*
X015079Y007313D01*
X015097Y007630D02*
X015120Y007630D01*
X015194Y007788D02*
X015024Y007788D01*
X015609Y007788D02*
X015609Y007788D01*
X015609Y007630D02*
X015609Y007630D01*
X015609Y007500D02*
X015609Y007500D01*
X015609Y007471D02*
X015609Y007471D01*
X015609Y007313D02*
X015609Y007313D01*
X015609Y007154D02*
X015609Y007154D01*
X015408Y006837D02*
X014809Y006837D01*
X014967Y006679D02*
X015250Y006679D01*
X015229Y006520D02*
X014989Y006520D01*
X015016Y006362D02*
X015229Y006362D01*
X015174Y006203D02*
X015368Y006203D01*
X014368Y006203D02*
X014274Y006203D01*
X014337Y006140D02*
X014337Y006140D01*
X014229Y006362D02*
X014116Y006362D01*
X014229Y006520D02*
X013989Y006520D01*
X013967Y006679D02*
X014250Y006679D01*
X014408Y006837D02*
X013809Y006837D01*
X013977Y007154D02*
X014240Y007154D01*
X014138Y007313D02*
X014079Y007313D01*
X014097Y007630D02*
X014120Y007630D01*
X014194Y007788D02*
X014024Y007788D01*
X013845Y007947D02*
X014373Y007947D01*
X014347Y008105D02*
X013870Y008105D01*
X014014Y008264D02*
X014203Y008264D01*
X014144Y008422D02*
X014074Y008422D01*
X014074Y008581D02*
X014144Y008581D01*
X014204Y008739D02*
X014013Y008739D01*
X013864Y008898D02*
X014353Y008898D01*
X013609Y007947D02*
X013609Y007947D01*
X013609Y007788D02*
X013609Y007788D01*
X013609Y007630D02*
X013609Y007630D01*
X013609Y007500D02*
X013609Y007500D01*
X013609Y007471D02*
X013609Y007471D01*
X013609Y007313D02*
X013609Y007313D01*
X013609Y007154D02*
X013609Y007154D01*
X013240Y007154D02*
X012977Y007154D01*
X013079Y007313D02*
X013138Y007313D01*
X013120Y007630D02*
X013097Y007630D01*
X013024Y007788D02*
X013194Y007788D01*
X013373Y007947D02*
X012845Y007947D01*
X012870Y008105D02*
X013347Y008105D01*
X013203Y008264D02*
X013014Y008264D01*
X013074Y008422D02*
X013144Y008422D01*
X013144Y008581D02*
X013074Y008581D01*
X012809Y006837D02*
X013408Y006837D01*
X013250Y006679D02*
X012967Y006679D01*
X012989Y006520D02*
X013229Y006520D01*
X013229Y006362D02*
X012989Y006362D01*
X012849Y006203D02*
X013368Y006203D01*
X015609Y007947D02*
X015609Y007947D01*
X017669Y010324D02*
X001589Y010324D01*
X001589Y013653D02*
X002235Y013653D01*
X002135Y013811D02*
X001589Y013811D01*
X001589Y013970D02*
X002099Y013970D01*
X002110Y014128D02*
X001589Y014128D01*
X001589Y014287D02*
X002175Y014287D01*
X002350Y014445D02*
X001589Y014445D01*
X001589Y014604D02*
X002284Y014604D01*
X002155Y014762D02*
X001589Y014762D01*
X001589Y014921D02*
X002099Y014921D01*
X002099Y015079D02*
X001589Y015079D01*
X001589Y015238D02*
X002155Y015238D01*
X002283Y015396D02*
X001589Y015396D01*
X002933Y014604D02*
X003343Y014604D01*
X003185Y014445D02*
X002867Y014445D01*
X003247Y013970D02*
X004144Y013970D01*
X004158Y014128D02*
X003405Y014128D01*
X003564Y014287D02*
X004237Y014287D01*
X004184Y013811D02*
X003082Y013811D01*
X002982Y013653D02*
X004298Y013653D01*
X007688Y016189D02*
X009478Y016189D01*
X009540Y015713D02*
X009574Y015713D01*
X009433Y015555D02*
X009382Y015555D01*
X009399Y015396D02*
X009339Y015396D01*
X009339Y015238D02*
X009436Y015238D01*
X009339Y015079D02*
X009593Y015079D01*
X009530Y014921D02*
X009339Y014921D01*
X009339Y014762D02*
X009372Y014762D01*
X008959Y015238D02*
X008883Y015238D01*
X008933Y015713D02*
X009003Y015713D01*
X009944Y015713D02*
X010118Y015713D01*
X010213Y016347D02*
X007832Y016347D01*
X009344Y013177D02*
X010031Y013177D01*
X009989Y013019D02*
X009186Y013019D01*
X009164Y012860D02*
X010015Y012860D01*
X010130Y012702D02*
X009153Y012702D01*
X011101Y016664D02*
X013187Y016664D01*
X013031Y016823D02*
X011230Y016823D01*
X011269Y016981D02*
X012989Y016981D01*
X013015Y017140D02*
X011245Y017140D01*
X011145Y017298D02*
X013129Y017298D01*
X013609Y017615D02*
X013609Y017615D01*
X013609Y017774D02*
X013609Y017774D01*
X013609Y017932D02*
X013609Y017932D01*
X013609Y018000D02*
X013609Y018000D01*
X007336Y022053D02*
X007197Y022053D01*
X006856Y022053D02*
X006835Y022053D01*
X006835Y022212D02*
X006856Y022212D01*
X006856Y022370D02*
X006835Y022370D01*
X009324Y007947D02*
X009729Y007947D01*
X009783Y007788D02*
X009165Y007788D01*
X009049Y007671D02*
X009049Y007671D01*
X009007Y007630D02*
X009942Y007630D01*
X022925Y003033D02*
X023292Y003033D01*
X023131Y002875D02*
X023086Y002875D01*
X023712Y003033D02*
X024869Y003033D01*
X024844Y002875D02*
X023873Y002875D01*
X023927Y002716D02*
X024790Y002716D01*
X024797Y002558D02*
X023920Y002558D01*
X023842Y002399D02*
X024875Y002399D01*
X024609Y004460D02*
X024609Y004460D01*
X024609Y004618D02*
X024609Y004618D01*
X024609Y004777D02*
X024609Y004777D01*
X024609Y004935D02*
X024609Y004935D01*
X024609Y005000D02*
X024609Y005000D01*
X024609Y005094D02*
X024609Y005094D01*
X024609Y005252D02*
X024609Y005252D01*
X024609Y005411D02*
X024609Y005411D01*
X024609Y005569D02*
X024609Y005569D01*
X024604Y009373D02*
X024613Y009373D01*
X024609Y009532D02*
X024609Y009532D01*
X024609Y009690D02*
X024609Y009690D01*
X024609Y009849D02*
X024609Y009849D01*
X024609Y010000D02*
X024104Y010000D01*
X024609Y010000D01*
X024609Y010000D01*
X024609Y010007D02*
X024609Y010007D01*
X024609Y010166D02*
X024609Y010166D01*
X024609Y010324D02*
X024609Y010324D01*
X024609Y010641D02*
X024609Y010641D01*
X024609Y010800D02*
X024609Y010800D01*
X024609Y010958D02*
X024609Y010958D01*
X024609Y011000D02*
X024104Y011000D01*
X024609Y011000D01*
X024609Y011000D01*
X024609Y011117D02*
X024609Y011117D01*
X024609Y011275D02*
X024609Y011275D01*
X024609Y011434D02*
X024609Y011434D01*
X024609Y011592D02*
X024609Y011592D01*
X024609Y011751D02*
X024609Y011751D01*
X024609Y011909D02*
X024609Y011909D01*
X024609Y012000D02*
X024104Y012000D01*
X024609Y012000D01*
X024609Y012000D01*
X024609Y012068D02*
X024609Y012068D01*
X024609Y012226D02*
X024609Y012226D01*
X024609Y012385D02*
X024609Y012385D01*
X024609Y012543D02*
X024609Y012543D01*
X024609Y012702D02*
X024609Y012702D01*
X024609Y012860D02*
X024609Y012860D01*
X024609Y013000D02*
X024104Y013000D01*
X024609Y013000D01*
X024609Y013000D01*
X025016Y012702D02*
X025249Y012702D01*
X025163Y012860D02*
X025094Y012860D01*
X025114Y013019D02*
X025144Y013019D01*
X025179Y013177D02*
X025082Y013177D01*
X025054Y013336D02*
X024987Y013336D01*
X024230Y013336D02*
X023810Y013336D01*
X023969Y013177D02*
X024135Y013177D01*
X024104Y013019D02*
X023989Y013019D01*
X023989Y012860D02*
X024123Y012860D01*
X024201Y012702D02*
X023847Y012702D01*
X023920Y012226D02*
X024157Y012226D01*
X024108Y012068D02*
X023989Y012068D01*
X023989Y011909D02*
X024112Y011909D01*
X024169Y011751D02*
X023896Y011751D01*
X023871Y011275D02*
X024184Y011275D01*
X024116Y011117D02*
X023989Y011117D01*
X023989Y010958D02*
X024104Y010958D01*
X024144Y010800D02*
X023945Y010800D01*
X023787Y010641D02*
X024253Y010641D01*
X024220Y010324D02*
X023822Y010324D01*
X023980Y010166D02*
X024131Y010166D01*
X024104Y010007D02*
X023989Y010007D01*
X023989Y009849D02*
X024127Y009849D01*
X024997Y010324D02*
X025275Y010324D01*
X025174Y010166D02*
X025086Y010166D01*
X025114Y010007D02*
X025144Y010007D01*
X025310Y010641D02*
X024964Y010641D01*
X025073Y010800D02*
X025188Y010800D01*
X025144Y010958D02*
X025113Y010958D01*
X025101Y011117D02*
X025154Y011117D01*
X025226Y011275D02*
X025033Y011275D01*
X024870Y011434D02*
X025440Y011434D01*
X025378Y011592D02*
X024906Y011592D01*
X025048Y011751D02*
X025209Y011751D01*
X025144Y011909D02*
X025105Y011909D01*
X025109Y012068D02*
X025144Y012068D01*
X025199Y012226D02*
X025060Y012226D01*
X024938Y012385D02*
X025335Y012385D01*
X025497Y012543D02*
X024824Y012543D01*
X026074Y010958D02*
X026082Y010958D01*
X026029Y010800D02*
X026219Y010800D01*
X026219Y010641D02*
X025907Y010641D01*
X025261Y015872D02*
X025059Y015872D01*
X025273Y016030D02*
X025420Y016030D01*
X025329Y016189D02*
X025578Y016189D01*
X025737Y016347D02*
X025319Y016347D01*
X025229Y016506D02*
X025895Y016506D01*
D24*
X012109Y017000D03*
X012109Y014000D03*
D25*
X015729Y005320D03*
X016289Y004750D03*
X015509Y003950D03*
X014939Y004520D03*
D26*
X020959Y012880D03*
X022099Y012880D03*
X022119Y014250D03*
X020979Y014270D03*
X012099Y014800D03*
X012099Y016080D03*
M02*
