G75*
G70*
%OFA0B0*%
%FSLAX24Y24*%
%IPPOS*%
%LPD*%
%AMOC8*
5,1,8,0,0,1.08239X$1,22.5*
%
%ADD10C,0.0000*%
D10*
X001309Y000180D02*
X001309Y034000D01*
X001279Y034000D01*
X001279Y034030D01*
X027419Y034030D01*
X027419Y000150D01*
X001339Y000150D01*
X002548Y001420D02*
X002550Y001467D01*
X002556Y001513D01*
X002566Y001559D01*
X002579Y001604D01*
X002597Y001647D01*
X002618Y001689D01*
X002642Y001729D01*
X002670Y001766D01*
X002701Y001801D01*
X002735Y001834D01*
X002771Y001863D01*
X002810Y001889D01*
X002851Y001912D01*
X002894Y001931D01*
X002938Y001947D01*
X002983Y001959D01*
X003029Y001967D01*
X003076Y001971D01*
X003122Y001971D01*
X003169Y001967D01*
X003215Y001959D01*
X003260Y001947D01*
X003304Y001931D01*
X003347Y001912D01*
X003388Y001889D01*
X003427Y001863D01*
X003463Y001834D01*
X003497Y001801D01*
X003528Y001766D01*
X003556Y001729D01*
X003580Y001689D01*
X003601Y001647D01*
X003619Y001604D01*
X003632Y001559D01*
X003642Y001513D01*
X003648Y001467D01*
X003650Y001420D01*
X003648Y001373D01*
X003642Y001327D01*
X003632Y001281D01*
X003619Y001236D01*
X003601Y001193D01*
X003580Y001151D01*
X003556Y001111D01*
X003528Y001074D01*
X003497Y001039D01*
X003463Y001006D01*
X003427Y000977D01*
X003388Y000951D01*
X003347Y000928D01*
X003304Y000909D01*
X003260Y000893D01*
X003215Y000881D01*
X003169Y000873D01*
X003122Y000869D01*
X003076Y000869D01*
X003029Y000873D01*
X002983Y000881D01*
X002938Y000893D01*
X002894Y000909D01*
X002851Y000928D01*
X002810Y000951D01*
X002771Y000977D01*
X002735Y001006D01*
X002701Y001039D01*
X002670Y001074D01*
X002642Y001111D01*
X002618Y001151D01*
X002597Y001193D01*
X002579Y001236D01*
X002566Y001281D01*
X002556Y001327D01*
X002550Y001373D01*
X002548Y001420D01*
X025548Y027990D02*
X025550Y028037D01*
X025556Y028083D01*
X025566Y028129D01*
X025579Y028174D01*
X025597Y028217D01*
X025618Y028259D01*
X025642Y028299D01*
X025670Y028336D01*
X025701Y028371D01*
X025735Y028404D01*
X025771Y028433D01*
X025810Y028459D01*
X025851Y028482D01*
X025894Y028501D01*
X025938Y028517D01*
X025983Y028529D01*
X026029Y028537D01*
X026076Y028541D01*
X026122Y028541D01*
X026169Y028537D01*
X026215Y028529D01*
X026260Y028517D01*
X026304Y028501D01*
X026347Y028482D01*
X026388Y028459D01*
X026427Y028433D01*
X026463Y028404D01*
X026497Y028371D01*
X026528Y028336D01*
X026556Y028299D01*
X026580Y028259D01*
X026601Y028217D01*
X026619Y028174D01*
X026632Y028129D01*
X026642Y028083D01*
X026648Y028037D01*
X026650Y027990D01*
X026648Y027943D01*
X026642Y027897D01*
X026632Y027851D01*
X026619Y027806D01*
X026601Y027763D01*
X026580Y027721D01*
X026556Y027681D01*
X026528Y027644D01*
X026497Y027609D01*
X026463Y027576D01*
X026427Y027547D01*
X026388Y027521D01*
X026347Y027498D01*
X026304Y027479D01*
X026260Y027463D01*
X026215Y027451D01*
X026169Y027443D01*
X026122Y027439D01*
X026076Y027439D01*
X026029Y027443D01*
X025983Y027451D01*
X025938Y027463D01*
X025894Y027479D01*
X025851Y027498D01*
X025810Y027521D01*
X025771Y027547D01*
X025735Y027576D01*
X025701Y027609D01*
X025670Y027644D01*
X025642Y027681D01*
X025618Y027721D01*
X025597Y027763D01*
X025579Y027806D01*
X025566Y027851D01*
X025556Y027897D01*
X025550Y027943D01*
X025548Y027990D01*
X025628Y007550D02*
X025630Y007597D01*
X025636Y007643D01*
X025646Y007689D01*
X025659Y007734D01*
X025677Y007777D01*
X025698Y007819D01*
X025722Y007859D01*
X025750Y007896D01*
X025781Y007931D01*
X025815Y007964D01*
X025851Y007993D01*
X025890Y008019D01*
X025931Y008042D01*
X025974Y008061D01*
X026018Y008077D01*
X026063Y008089D01*
X026109Y008097D01*
X026156Y008101D01*
X026202Y008101D01*
X026249Y008097D01*
X026295Y008089D01*
X026340Y008077D01*
X026384Y008061D01*
X026427Y008042D01*
X026468Y008019D01*
X026507Y007993D01*
X026543Y007964D01*
X026577Y007931D01*
X026608Y007896D01*
X026636Y007859D01*
X026660Y007819D01*
X026681Y007777D01*
X026699Y007734D01*
X026712Y007689D01*
X026722Y007643D01*
X026728Y007597D01*
X026730Y007550D01*
X026728Y007503D01*
X026722Y007457D01*
X026712Y007411D01*
X026699Y007366D01*
X026681Y007323D01*
X026660Y007281D01*
X026636Y007241D01*
X026608Y007204D01*
X026577Y007169D01*
X026543Y007136D01*
X026507Y007107D01*
X026468Y007081D01*
X026427Y007058D01*
X026384Y007039D01*
X026340Y007023D01*
X026295Y007011D01*
X026249Y007003D01*
X026202Y006999D01*
X026156Y006999D01*
X026109Y007003D01*
X026063Y007011D01*
X026018Y007023D01*
X025974Y007039D01*
X025931Y007058D01*
X025890Y007081D01*
X025851Y007107D01*
X025815Y007136D01*
X025781Y007169D01*
X025750Y007204D01*
X025722Y007241D01*
X025698Y007281D01*
X025677Y007323D01*
X025659Y007366D01*
X025646Y007411D01*
X025636Y007457D01*
X025630Y007503D01*
X025628Y007550D01*
X027419Y000150D02*
X027419Y000120D01*
X002428Y031620D02*
X002430Y031667D01*
X002436Y031713D01*
X002446Y031759D01*
X002459Y031804D01*
X002477Y031847D01*
X002498Y031889D01*
X002522Y031929D01*
X002550Y031966D01*
X002581Y032001D01*
X002615Y032034D01*
X002651Y032063D01*
X002690Y032089D01*
X002731Y032112D01*
X002774Y032131D01*
X002818Y032147D01*
X002863Y032159D01*
X002909Y032167D01*
X002956Y032171D01*
X003002Y032171D01*
X003049Y032167D01*
X003095Y032159D01*
X003140Y032147D01*
X003184Y032131D01*
X003227Y032112D01*
X003268Y032089D01*
X003307Y032063D01*
X003343Y032034D01*
X003377Y032001D01*
X003408Y031966D01*
X003436Y031929D01*
X003460Y031889D01*
X003481Y031847D01*
X003499Y031804D01*
X003512Y031759D01*
X003522Y031713D01*
X003528Y031667D01*
X003530Y031620D01*
X003528Y031573D01*
X003522Y031527D01*
X003512Y031481D01*
X003499Y031436D01*
X003481Y031393D01*
X003460Y031351D01*
X003436Y031311D01*
X003408Y031274D01*
X003377Y031239D01*
X003343Y031206D01*
X003307Y031177D01*
X003268Y031151D01*
X003227Y031128D01*
X003184Y031109D01*
X003140Y031093D01*
X003095Y031081D01*
X003049Y031073D01*
X003002Y031069D01*
X002956Y031069D01*
X002909Y031073D01*
X002863Y031081D01*
X002818Y031093D01*
X002774Y031109D01*
X002731Y031128D01*
X002690Y031151D01*
X002651Y031177D01*
X002615Y031206D01*
X002581Y031239D01*
X002550Y031274D01*
X002522Y031311D01*
X002498Y031351D01*
X002477Y031393D01*
X002459Y031436D01*
X002446Y031481D01*
X002436Y031527D01*
X002430Y031573D01*
X002428Y031620D01*
M02*
